<mxfile host="app.diagrams.net" modified="2024-06-12T20:43:22.685Z" agent="Mozilla/5.0 (Windows NT 10.0; Win64; x64) AppleWebKit/537.36 (KHTML, like Gecko) Chrome/125.0.0.0 Safari/537.36" etag="7g4JOlVfpdBqdLlHpP3E" version="24.5.4" type="github">
  <diagram name="Page-1" id="JpTwn4OZaRBHCGHLCtZP">
    <mxGraphModel dx="1827" dy="497" grid="1" gridSize="10" guides="1" tooltips="1" connect="1" arrows="1" fold="1" page="1" pageScale="1" pageWidth="827" pageHeight="1169" math="0" shadow="0">
      <root>
        <mxCell id="0" />
        <mxCell id="1" parent="0" />
        <mxCell id="_TGiCRJFAITHIr49HdVO-1" value="" style="shape=image;verticalLabelPosition=bottom;labelBackgroundColor=default;verticalAlign=top;aspect=fixed;imageAspect=0;image=data:image/png,iVBORw0KGgoAAAANSUhEUgAAAaQAAAEWCAYAAAApTuNLAAAAOXRFWHRTb2Z0d2FyZQBNYXRwbG90bGliIHZlcnNpb24zLjUuMSwgaHR0cHM6Ly9tYXRwbG90bGliLm9yZy/YYfK9AAAACXBIWXMAAAsTAAALEwEAmpwYAABcM0lEQVR4nO2dd7wU1fXAv+c9qlSpgoigCIpYsaCxvBhbmho1Rk2isUSjpjclJpb4w8SYmNijxgRbYg0JsURRWUWDIihKryIivTzg0cv5/XFnnNl9u+/NzuzOzu7e7+ezn5m50+7cnbnnnnPPPVdUFYvFYrFYSk1NqTNgsVgsFgtYgWSxWCyWhGAFksVisVgSgRVIFovFYkkEViBZLBaLJRFYgWSxWCyWRGAFkqWiEJGvi8hLRbp2XxFpEJHaYlw/6YjINBGpK3U+LJWLFUiW2BGRBSKyTETa+dIuFZFU1Gur6mOqenLU68Cn+TzRd+2FqtpeVXcU4voZ91IR2eAIvFUi8oqIfC2P8+tEZFGE+/dz8tDg/JaJyD0i0tI9RlX3V9WUc/wNIvJoyHvdICLbnPvUi8j/ROQoZ9+3RGSHs2+diLwvIl/Kks/nMq75qIjc4Ky3EpGnnf9PrRAtH6xAspSKFsAPSp2JhHGQqrYHBgEjgbtE5PqY89DZycMBwFHAVUW6zxPOfboDbwD/FBFx9o139nUG7gEeF5HOGecPE5HPNHH9N4BvAEsLmmtLUbECyVIqbgV+mqWiAUBEbheRj51W8iQROdZJ7y0im0Ski+/YQ0RkpYi0dFrYb/j2nSwis0RkrdPif01ELnX27S0irzoayUoReczNj4g8AvQF/uO01n/ua5238OVltIisFpG5IvJt331vEJEnReRhEVnvmLsOC1IwqrpSVR8BrgCGi0hX55oXicgM53rzReRyJ70d8ALQ26fh9BaRI0RkvKOFLBGRu0SkVcA8LAfGAIN9z7RARE4UkVOBXwBfc+71vrP/W06+1ovIhyLy9QD32QY8BOwGdM3YtxN4BGgH7JNx6u+A/8txza2q+idVfQMouDZrKR5WIFlKxUQgBfw0x/53gIOBLsDfgadEpI2qLgbGA2f5jj0feNqp3D5FRLoBTwPDMZXdLOBo/yHAb4DewH7AHsANAKr6TWAh8GXHTPe7LHn8B7DIOf9s4GYR+Zxv/2nA45iW/mjgrhzPmot/YzTJI5zt5cCXgI7ARcAfReRQVd0AfB5Y7OS1vVNOO4AfAd0w2s7ngCuD3FhEegOnAG9l7lPV/wI342g5qnqQIxTvAD6vqh0w5Tw5wH1aA98CFqnqyox9tc5zbgM+yjj1bmCg36RqKX+sQLKUkuuA74lI98wdqvqoqq5S1e2q+gegNcaUBUZAnQfgmHnOddIy+QIwTVX/qarbMRXmpyYcVZ2rqmNUdYuqrgBuA44PknER2QM4BrhaVTer6mTgL8A3fYe9oarPO31OjwAHBbm2L3/bgJUYoYyqPqeq89TwGvAScGwT509S1becMlwA3Bfg+VaKSD3wCbABI9CDshMYIiJtVXWJqk5r4thznPt8DAwFzvDtG+bs2wz8HviGo7H52QyMIIeWZClPrECylAxVnQo8C1yTuU9EfuKYp9Y6lVMnTEsfTCV5lNOKPw5QYFyWW/TGVHju/RSj0bj36CEij4vIJyKyDnjUd4/m6A2sVtX1vrSPgN192/7+i41AG9fcFwQxDgXdgdXO9udF5C3HRFiPEbg58ysiA0XkWRFZ6jzfzU0d79BNVTsDuwBvAv8NkldHS/sa8B1giYg8JyL7NnHKk6raWVV7qOoJqjrJt+8tJw+7YjTLXEL3AaCniHw5SB4tyccKJEupuR74Nr6K3Okvuho4B9jVqZzWYkxsqGo9Rjs4B2Ou+4dmD1u/BOjju674tzHmOgUOVNWOmE5w8e1vKhT+YqCLiHTwpfXFaBaF4nRgOzDBMW09g9EYejpl8rwvv9nyei8wE9jHeb5fkP58OVHVTRjHiqMc02ejQ7Kc86KqngT0cu77QJB7NZGHBoyJ8ZsickiW/duAG4GbCPhclmRjBZKlpKjqXOAJ4Pu+5A6YingF0EJErsP0m/j5O3ABpi8pm7kO4DngABE5w9FMrsJ0nvvv0wDUi8juwM8yzl8G7JUj3x8D/wN+IyJtRORA4BLgsSYeNxAi0sVxCLgbuEVVVwGtMGbLFcB2Efk84HdvXwZ0FZFOGc+3DmhwtJUr8shDa4z5cSmwKsshy4B+IlLjHN9TRE5z+pK2YMo1skOB8+x/wZh3s/EIplxOzcy/iLRxNls5/5EVWgnHCiRLEvg1xpPK5UWM19hsjBlsMz7Tm8NojOfVMlV9P9tFnU7yr2I8slZhPMYmYipMMK3rQzHa13PAPzMu8Rvgl46XWjbni/OAfhhtaRRwvaqOaeZZm+J9EWkA5gKXAj9S1eucZ1mPEdpPAmswmuFo37POxDhZzHfy2xvjMHI+sB6jrTwRIA/1Th6WYRwhTsuhfT7lLFeJyLuYuuQnmLJYjemrCuRAEYA/AV9whH4aTv/c9Tj9bD5mAZswmveLzvqeBcqPpUiInaDPUi04rflFwNdVdWyp82OxWNKxGpKlohGRU0Sks2OCcvtQGrkyWyyW0lNSgSQifxWR5SIy1Zd2g+P1NNn5fcG3b7gzAHGWiJziSx8qIlOcfXe4tmLHjvyEk/62iPSL9QEtSeAoYB7GffrLwBlOh73FYkkYJTXZichxmM7Ph1V1iJN2A9Cgqr/POHYwxkZ+BMbl9mVgoKruEJEJmDA0b2E8j+5Q1RdE5EqMB9V3RORc4CuqGjg+mMVisVjio6Qakqq+jjPGIgCnA487gxg/xHT8HiEivYCOqjre6Xx9GG+Q3emYsCRgxq58znraWCwWSzIJPEgvZr4rIhdgPKJ+oqprMN4yftv/IidtG77Bjr50nOXHAKq6XUTWYkLIZIYouQy4DKBNmzZD+/btW/AHKkd27txJTY3tZgRbFn5sWXjYsvCYPXv2SlVtFHUlH5IokO7FDHRTZ/kH4GKyD3zTJtJpZp+XoHo/cD/AoEGDdNasWfnnugJJpVLU1dWVOhuJwJaFhy0LD1sWHiKSGW8wbxIn2lV1marucCL9PoAXWHIRJvilSx/MmIdFpI++d9PTznEGRnYiuInQYrFYLDGSOIHk9Am5fAVwPfBGA+c6nnP9MYMiJ6jqEmC9iAxz+ocuwERJds+50Fk/G3g1xyA/i8VisZSYkprsROQfQB3QTcxsl9cDdSJyMMa0tgC4HEBVp4nIk8B0TFiZq3wzd16BibvVFjPC/wUn/UHgERGZi9GMzi36Q1ksFoslFCUVSKp6XpbkB5s4fgQm5Hxm+kRgSJb0zZjQMRaLxWJJOIkz2VksFoulOrECyWKxWCyJwAoki8VisSQCK5AsFovFkgisQLJYLBZLIrACyWKxWCyJwAoki8VisSQCK5AsFovFkgisQLJYLBZLIrACyWKxWCyJoFmBJCIDReQVd5pxETlQRH5Z/KxZLNkZMwa++c1S5yI7w4fDmWeWOhcWS3kSREN6ABiOmQgPVf0AG6TUUkJOPhkefRS2by91Thrz29/CqFGlzoXFUp4EEUi7qOqEjLQEVgXVwY4dsGpV7v1z58LPfw47d8aXp1KxeXOpc5CbDRtKnQOLpfwIIpBWisjeODOtisjZwJKi5qrMmTIFli5tnH7LLfCvf0W79s9+Bt26wfr12fdfcgnceitMnhztPklh+3ZTbg0NjfclTSD5/5OFC0uXD4ulXAkikK4C7gP2FZFPgB9i5h+qCiZPzt8Ec+CB5pfJ7bfDQw9Fy88zz5hlLi2pZUuzXLYs2n2SwtNPwzXXwHXXgarREF3iFEiq8MtfwvTpuY+ZN89bHzwY2rUrfr4slkqiWYGkqvNV9USgO7Cvqh6jqguKnrMSsWJFazZu9LYPOSS/Tmq3klyxovG++vrogmKXXcwyl0moWzezXLAg2n3iZtUq0srdxdU61q6FH/0IWvhm8IpTIK1Z05IRI+D443Mf8+GH6dvZnseSzn//WzmNJ0t0ck7QJyI/zpEOgKreVqQ8lZQ1a1rx/PNw9tmmVZwvn3ySPX3rVti0qXACaeVKYxbq29dsz5gB++zj7Z8/P9p94qZbN+je3Zg0jz4ajjgCjjkGBg40+2trjYbpJ06BtHatUT1Xrsx9zPLlMWWmQli5Ej7/efjsZ+HVV0udm+C89JJpmEyYANu2SamzU1E0pSF1cH6HYUx0uzu/7wCDi5+10lBbqzz+uFlfvNhL9wuntWuNGSmzBbxtG/w4qxg354ARSA0NcO65sCRET1zbtmZ53XWw554wdaoRTIMHw9VXe30t5SaQwGiVn/mMWX/nHfjjH73nqcnypm7aFF/e6utbfbqeq6HiCiu3UWBpmjfeMMts/a2lYNOmdLNrNiZOhFNOgRNOgOOOg4ce6hdL3qqFnAJJVW9U1RuBbsChqvoTVf0JMBToE1cG46Z9++288oqpdD74wEv3V36XXWY62l96Kf3c0aPNLxv19Wa5YQP8+c/wxBNw443558+t7CY4fo+33uppXWPGwLp1Zt0vTMsNvwODW8lv3dr4uDg1pPr6lp+u59KCV60y/Ua77ealvfwyPPxw42OtF54nkPr4apMlS+Cii7I7sRSbs86CAQOa/m9cU/z//meWy5a1+XTfsmXR+4irnSBODX0Bf3WwFehXlNwkgNatd1Bfbyodvwbjf0mffNIsM1vtmRXka6+Z5b/+BQcc4KXPmmWWnTvnnz9XILn3ev55WL3arO/Y4fW5uAKwHJk711t3K4Bsreh4BZKnIeUS9qtWQdeusOuuXtpJJ8GFF5p1VdO399pr0L49pFJFy25ZMGWKWfrf1d/+FkaOjL9i37gRXnjBrI8bl/s419Lh0rXrlk/XzzoLvvWt8m4M+lm1ymiBH38c3z2DCKRHgAkicoOIXA+8DWRp81UGrVubATwffJBeCbotNr+zgl9IqTbuH6qrM2a8r3wFtnjvbSSB5JrsXFau9Cq2HTs8DamcBdKcOd76jBlm+e67jY+L26nB5cgjTSv+xRfN9qhR5l1xBVK2/3XzZlPh9e8PP/2pSfvDH4qf7yTjOt68846p+AA6djTLuM14M2d66y+/nPu4zG+8ttaz37qa8/r1pm7o2jW3xaQcePhhI5zjfE+DeNmNAC4C1gD1wEWqenOR81UyXIE0ZUr6y3foocaLavhwL80VSG+9ZbSlF180XmC/+IV3jKsl+YkikPxamdvh/5//mGWmQBoxwpgWi8mSJdEFQ2afjF8gjR9vltmcQUrh1OAyciSceqppaJx5pqlQV60yzhmtWzc+/+OPzXsCph8CYOzY4uY5ybz0Esye7W2PG5f+HuQyixYL/7vU1Bi+TEG5caPnF+Z6gN52m9GAV6+GK68sXB7jZOtWz0mnRU7Xt8ITJJZdX2AlMMr5rXLSKpKaGqVnT+O0cMcdXnp9PRx7LDz4oJfmCqS77jLLl16C3r3T+xD+8Y/G93D/aLc1mA/btnnrhx1mltOmmeWmTZ5A2rzZjJu55ppwzhNBUIWDDoou9PzPBOkVlZ/evdO343RqWLOmFXvt1Tj9/ffNcs4co6127ZrdAWPhQuOA4sfN/2OPeY2UamDzZuMYANCpk5d+3nneOC9XM44L14LRp0+6yXjDhnRhldkw2rix9tN1t+K+//7cx5eSW27x+u2a47TTjPkUGgukESPgqacKmzeXICa754Bnnd8rwHzgheJkJxn0zSFu3Vab6wnmCiR/RdOzZ/pH9re/geTwDK2tzZ7eFH7TX58+pgJ0WbbM2Li7dEk/p3fv7OOiolJfb67rVsphyXRYcAXSxx+bmHXHHmu2L7gg/bg4NaQNG1rQs2fj9Bd8X4Jrssv2vy5c2LicamvhzTfhG9+ASy8178lVVxU230nE7x4/YIC3/sQT8M9/mvVFi+LNk/td7b+/+a/cd+sLXzD9Qi6ZGtKmTebPnjMne9/R9u3hho8Ug2uu8b4ll4suyl4/ueZoaCyQfvlLOOecwucPgpnsDlDVA53fPsARQEA5W57kEkguzzxjKpMNG8zL5jcxZVZaqsa04+I304V5Uf2Vd6dO6dqY+/Jny79fkOXLfffBT35itL0RI7x0V/PytyjDkKkhuWa6rl3h61830Rr+8x9zb3fgL8QrkLZsqcnqzu0PBVVfn1sgffRR48HKIqbBYq5vlvfcU4DMJhx/4+i++7J7my5aZCwIcfUlue/SkCHmG3rjDVPxvvuu6SN0LQ/Llpn/+NJL4fDDjUB6+21jPnePyaQYjcF88Uc48TNyZOO0zHopUSa7TFT1XeDwIuQlMfTq5a1naz3suqvxdvvwQzNuwT8eabfdPKFxwglwxhnG9Pf666b/yX/tMAFQt241jg39+5uBo65AOuooaON4oA4Z0vi8XFpaEJ5+2riqn3+++Uhd3Mpi7txorUC3vA73vVVt2ngOHD16wJe+ZExhkyZ5Xj+lFkjt26f3N6jmNtnNmmX+7x49vLStWz239qZCElUarob0t7/B0KHmnTr0UM/y4LJ+fdMeb4XEbRC4385JJ5kGUEOD+Z9OPtk0RJcuNeasBx4wDcKNG2vTtORsNDWYOi6yubK/+Wb2YzP77268Md0MWUyC9CH92Pf7qYj8HUiAzC8ebuVaV5fd5tqqlRlv8o9/mOgIfgYONBX3975nXuBRo4xZ4thj4eab0zWosBrSsGFm4Otxx3kaV12d+XhfeAGuyBJpMEr078WL04WuqnnBr7nGbG/aFK2fyhVIl13mpa1Zk/3Yvn09oR6vQKpll11MReSGD/I7uLh062YaB36OOMLr5/NrtOBVVpU+Lun99405bPRoT2NwzUduQ+POOxuf1717PPlzBVL//tn3v/22id6yfLn3H3boYJwamovQkQSBlG1c1zHHeOvdusGJJ5r1bGHHLr88nrFhQTSkDr5fa0yf0umFuLmI/FVElruT/zlpXURkjIjMcZa7+vYNF5G5IjJLRE7xpQ8VkSnOvjvEiW8kIq1F5Akn/W0R6RckX6732g9+kF3bACOUsrHffkZ7uuOO7F50/g8srEDy39vVUg4/3Dg5nHpq+jiYKPdyybSNb9gA995r3HVdopjtXJNdq1bGJXrkSE/by0ZtrQkiG6dTw5YtNbRta0w1qZQpzyOOaHxc164m5p7fg65/f08DyhRISer0LiYTJ5oyOO88T0PKFDb77df4vLiiXriNG/8g3Wxs3+41Kjt0MCa75kxyfoG0ZQvsu6+J4RcnmbMDZM4ltmoVvPKKWc8Vg/H11xunbd5c2P6+IAJpuhu1QVVHqOpjwJcLdP+RwKkZadcArzj9Va8424jIYMzEgPs759wjIq61/l7gMmAf5+de8xJgjaoOAP4IBPIHu+oq06l3+um5Izb7W7R+wZPto/Ljr0TDmuz8AmnQILM89FAvrUMHs+zXz0sLK5A2bmw8pmnlysZ5nzEj/D1cDalVKxN5wh1I2hRt2sSrIW3eXNuocvSb31y6djXm0SOP9NL69vVs+H6TLRiB5Nea47TXx4mrgWzcaJ65dWvvPXVp0wbee89zbID4HALc/Pkdklzuvjs9JJjbqGjf3gikbBpSTY1nXfELpOnTjfk203nlk0/Spyy57joz0LZQZGo3ucYpquZu6DU0NO6LuvNOo/lG6aP2E0QgZTFMZE3LG1V9HVidkXw64I7Tfgg4w5f+uKpuUdUPgbnAESLSC+ioquNVVTGDds/Icq2ngc+52lNT1NYam7FIbk84/x982GFey8ovBLJxww3pI/fzJVMg3X67sQXvuaeX1qeP6fdxw5uEvdeHH+7CE080Tl+xIv0jE4HvfMf0l40Zk/99XIHkTp0RhLgFUrY+pFwCCTwN7+KL0/+bTA1p/XpjbnXJNoapEvD/V5MmmbLL9iUefHC62SxugZSt/PfYA779bW/bryFt3GgEUmY9MXiw6R8Dz0T5q195Dcf58+Gmm8z61Knmmz3lFO/8m24ygjkzgnxY/PXVzp1edJdMtmzJLZA2bWrsEbtokXHmyBzSEJacAklEPi8idwK7O2Yw9zeS4s4Y21NVlwA4S/ez3x3wB7FYhBfwdVGW9LRzVHU7sBbwOUoH45570t0gIb1FsOeepvJPpZp35R461Aglk6d8c9JYILVvb6JjZ3LWWaY17nrRhNHGLr74CC6+2Kz7TRkrV5o+o65djcnQfY7Ro40gzxe/hhSUtm3jE0iqpg8pM0pG1yxvkpsmYrSB++83FZpLpkCCdK/IbA4RlYD/vxo7Nl2jz8RfrnEJJDd/2UzFnTt7lghI70Pavr2Gjz5q3PfUpo35tW9vvpcdO+D//i/9mOuuM96Xzz5rtmfObPyd7rVXYTwN/QJp3brcfbSbNjUtkDI1IdezcNKk6HmEJqafABYDE4HTAP/t1gM/Kszt8yKbZqNNpDd1TvqFRS7DmPzo3r07qYwgY/vt56qqdQDOfrPeqdNWTjjhXebN2+zsa+oRDEuXtgaOYvr0maRS+b1t69cPY/XqelKpmc0fDMyc2RPYj/Hj32Lhwnxr8LpP1w4/fBGLFhmpNG7cDKZN243ddqthxoz30o4DGpVfc0yb1hE4lBkz3qdDhxxfSgaqR/DRRw2kUsV3T9uypQY4jqVL55NKZU4FW5e2NWlSqlHL/+OPzfMBrF49DWN19li9ej69evViyZK2NDQoY8e+Fskrstg0NDTk/R/PnNkPfwjMyy9/nVQqeytp0yZT3gCTJr3Lli05/KkLyOzZ/RDZkzfeeI3M/3TOnHfYsWPDp+lz5rzB0qXbEekKHMCmTdC//1LmzvVaG1u21JNKTaZ9+yOZNm0tTz31IZDh7QLceusc5s1rDxhb7lNPjadbt62AN/HWs8++w4AB0bxe3n67B+4kDddfP5vevTcDjWcRffnl/zF5cjdgYKN9778/jx49lgGmBfzqqynmzdsf6M6zzxYogJ+qNvkDWjR3TJQf5i2d6tueBfRy1nsBs5z14cBw33EvYv7hXsBMX/p5wH3+Y9znwESckKbyM3DgQM3FsGGqd91l1k3bTXXjxpyH5+Sjj8y5f/lL/ufutpvqZZcFP/7hh8295szJ/161tTs+fc6FC1W/+EWzftttqvvtp3rmmea4p5/2ygPyv08qZc575ZXg5wwerHrWWfnfKwwrV5r83X57433+58717HPmePvdZ/X/7rxTde1a1e99z2yvX1/c54nK2LFj8z7nZz9TbdFCVUT12mubPnbnTq9sxo0Ll8cw+WvTxqxn/j8LF5r0999X/dWvTP5Uzf/kHnP33arz5qlefLHZPvFEc8xhh6n275/9fwfVG29UPfpob/ull8z9wHxfoPrGG9Gf74EH0u/76KPZ8zN7tuqtt2bfB+a7d9cbGsxzgurhh6sCEzWiPGjKZOfEtOY9Efkg81cYcZiV0YDbrX0h8G9f+rmO51x/jPPCBDVmvfUiMszpH7og4xz3WmcDr5oXLhzjx3udkW5/R6YZJwhu67cQJrvmcE1AYe7VqZNxf3vlFWN2+s9/jJli/HhjsnM76M86K7ureVDCmOxE4jPnuCaMpv7rzOgYfvzeZNlMdh07mt/+juKUa4BlObN5s3l3tm1rbLrKRMSLzxinyc4112X2A7teqwceCL/+tff9tm8Pp566hGHDzDew116eU4R7rSuuMP1AuQKUNjSYyCSnnWa2v/EN+O53zfq++5plIYYEZDo15OpDGjOmae9Vf0inDRu8d/WDAkmEpizWP3CWX8J41WX+IiMi/wDGA4NEZJGIXAL8FjhJROYAJznbqOo04ElgOvBf4CpVdX0+rgD+gnF0mIcX2uhBoKuIzAV+jOOxVwimT6fZAXG5iCIk8hVI7scTpg+poaEFP/uZGeDrXuv73zdxrOrr0zv1f/KT/K/v4nf7DkpNTXyVlesGm80F+cwzTTy/+fNzzxjrj1mYTSC5lZh7XKUKpDZtgofLcss6rv94yxbPoeG11+Dxx83A3X79cnvaAlx99SzGj/ccHdxj3WtddJFpvLrzl2WycKHpYzruODMQd/lyL0K4229VSIH0s5+Z/yCXQLrqKjOko0ULMzi4KVyB1LJl4bzscvYhqedY8FFhbpX1Hufl2PW5HMePAEZkSZ8INBoxpKqbga9GyWMuBgxIj8OVD1GERFiBlO+HbTxqahu1/D/3OS98kL/zee+9zeC5UaPyuw+E15CiDPbNh6YE0jPPNH++vz/IdXXed19vygNXELnLzDl3KgG/BhKEKN9IGPwCqW9fz9HEH8cuCO3bm6X7vYmYWJIf5ahF3WlVBg6EL3/ZNFguucSkuV56hRBI69eb5+vY0fSHL1tmGkKjR3sDvV2WLDHv6UsvNR3hxRVIRx4ZPGhrczRlslsvIut8v/X+ZWFuX52EFRKq8Qkk1wsnc5CtP5ZcprAKa0YL4/adNJNdUGpqzIfsTvIIXjm6FWK22XHLnbACKU4NKZ/85cIVSP6Bp26U+mwNGjcOpqsNuVE+Onb0vr1CaUgdOnjv8CefmPcucyyYS5B33RVIQ4cWblLCpqYw76CqHX2/Dv5lYW5fnYQ12bkveRx9SK5Knyl0/AIp0+05rBmtnE12Ydhll/RruWa8uCvhOMlXIEUxa4dh8+bCjAFzBZJ/AOnuziCUHj1M6Ck3wocbdqxFC89tfNAgYxZ/5RXP/FcogdS+fWOBlOs/CSKQ1q831+3cufGA77AEGvUgIoeKyPdF5Hsickhhbl29hDVHhDVthbmXK5AyNSS/EMqmIYU1Q0JyTXauhhRFIGWGkfJXBK6Qj7sSjpNyMtlFwRUi2TSk7t1N6Km33zb/ses8sddennWgpsYMdj/sMO9ahYghVwyB5MavDDOvWy6CBFe9DhPtoCvQDRgpIr9s+ixLU4RtCUcRSGFNdplCx3/vTA2pUk12roYUxWQ3b1560Ep/ReB29MddCcdJtZns/BqS+81kOgm4x/ojefhp0cKcW6g+pPbtvUbV0qWmsZlLCAdpfLmR2AspkIJEzjoPOMRxEEBEfgu8CzTjvGnJRdiWcJwCKUglXOg+pKSb7KIIpC5d0ssrW+VX6Sa7bJEtchF3WWzeXJg+Qvd/9WtIl19unue669KPdQVS5kzIftq1MwJp8eKmj2uOzD4kCKYh1dZmn0upthaee86s5+qHCkMQk90CwJ/t1hjXaktI4jTZhRV+7vFNhbLJbBnF2YcUp8nO/SALGfg0W8vUmuw84i6LQpnsXG3XL5AGDIDf/a7x9V0tpDmBdPfdph8qypxZmSY7CCaQpkyBhx5qvP9zn/McGQohyF2CCKQtwDQRGSkifwOmAg1ubLvCZaV6CNv6c1/yfKY+Dyv8/G6rzV3bvx1nH1JclVWQssiXbMLNmuw8StGHVAiTnfu/5pqh1Y8bP685geTijwYelJ07TR/VlCnZBVIuIewet99+cMEFjff7Y1sWMiBwkDbfKOfnkirc7auTsK0/9+PMJwBnFBdz//l+Lr44+0yecfYhxWmyC1PuQfnhD731SjfZJb0PKZ8GUS7csYkXXdT8se4cRdmixru4Zj0IJzDHj/cihmcTSLkat81pPX7rSCHKzaVZgaSqWRQ2SxSKqbXkulchBdKDD2Y/J4rJrqYmf80vrtZzMTQk/3VdrEDyiNtkt3NnYRoc3bsHz7MbkaMppwC/hhRGE/nXv7z1Dh3SnRWaCnfVnEDy9xsVUkMK4mX3JRF5T0RW24GxhaEYQiIXxexDyiSKyS7fVla5m+yy4Za1NdnFb7JTLf7/m4kbuzCXlx1EF0j++ZQyNaTMIRzz5nkxKb/+9fTrZDYWi6UhBalu/oQJUNrVDowtDHEKpLAftnt8vvcKqyHl6zBQKSY7P1ZD8oi7LFTjn4vqlluMSa2pWab9AikfC4LLqlXeeqZAcufpeu894zCx115w223w8ceNXdQnT07vN/JrSHELpI8x00NU4GdSGuLWWqLcKw6BFMZcUgkmu0wqVSDt2GEaHUkWSDt3xq8htW4Nw4Y1fYxfIIUpi6YEkhtB4uCDveCwbdqkCx6XIUO8KOTucS5xOzX8HHheRF7DeNwBoKq3FS4b1UXcWgvEZx4M89GEaZ1ak135EDY0FMT7HydxUkS/QArzXqxc6a23bp0ukPK1SriCRyRdCMXq1ICJrt2AGYtUwFtXL+XUh5Sv8Avz0YRpndbUpI/1KCZhNNMwVKqGFEWzr+Q+pCBE0ZBU0zWkzZvz82TNxNWK2rdPF0JxC6Quqnpy4W5piVtIQHiPvnwrkbAaUr6VQZwmuzCaaRgqVSDFqdmHpRR9SEHwu33n+75v2JAeOd4d9xQWVytq1y5dQ4rVyw54WUSsQCog5eD2HaYSiWKyCyOQKtVkV2kCKU7NPiyl6EMKQhQNydWObroJvvhF+OY3zfYf/pB9HGFzuIKnffvSmuyuAn4uIluAbYAAaj3twhNVSCTZqSGM1hJGINXUxO/UEJfJrtL6kKzJLjyFEEhDhsAvfeGwf/zjcHnxa0h+IRSrU4OqFjB0ngXiNdmVwjyYL0l3arAmu2iUi8ku6QIp7BQyTQ2AzYdcGlKUfqlM8qoGRGRvEblWRKYWLgvVRylMdkk3D4bRkKzJrjwoB5NdOQikfMtii+MTXYgYfeD9J5kaUiEtB0EiNfQSkR+JyARgGkarOq9wWag+SjEwNunaWJKdGqzJLhpxNqTCklSnhigaUqEbUu40LJlODYUk518gIt8WkVeB1zCT810KLFHVG1V1SnGyU10keWBslP6qMB9Okp0arMkuGnG+t2GpRKeGQkcYcWeuzTTZFZKm+pDuBsYD56vqRAARqbBPpXSE6ZQP6/kGydfG8v1orMmufLB9SOHxu33H8Q03xVe+YuZGuvHGws4N5qepy/YGvgrcJiI9gSeBAnZfVTdhWvhJ70OKMq2GNdlZk50f24dkKITJrlDvbadOMHasWV++vDDXzCRnVlV1pareq6rHAZ8D1gLLRWSGiNxcnOxUD3ELpKQLP2uyq3yTXdL7kJIukOIYSxiUQo498hNIdqrqIlX9vaoOBc7AF9POEo4wJqdyEUhxODVYk135UA59SNapIT9K0YeUFVWdBdxYhLxUFWFMTmE+7HKJLG5NdpVrsouz7zMsSXVqKEQfUjHe25JqSJbCE8bkFKVzOOkOFHZgrDXZ+bEmO0NtLbz6qlmP4xsOSpi5mYJgBVKJqGSTXZgPx5rsrMnOj/Wy83DNY6X2souDQK+IiOwuIkeLyHHur9gZE5EFIjJFRCaLiOt23kVExojIHGe5q+/44SIyV0RmicgpvvShznXmisgdIsn4e6KY7JIukCrVZBeXhmRNdlYg+YnT7F5qmu1DEpFbgK8B04EdTrICrxcxXy6fVVXfFFNcA7yiqr8VkWuc7atFZDBwLrA/xl39ZREZqKo7gHuBy4C3gOeBU4EXYsh7k8TlZVcucfOS7mVnhuAVt8ayJjuPUrh9J7XijtPsXmqCODWcAQxS1SR41p0O1DnrDwEp4Gon/XEnjx+KyFzgCBFZAHRU1fEAIvIw5nlKLpCimOziip4Q572SPjA2jo+60k12Se5DSqpTA8TbqCw1QQTSfMyA2LgFkgIvOdEh7lPV+4GeqroEQFWXiEgP59jdMRqQyyInbZuznpmehohchtGi6N69O6lUqsCP0pgdO45h4cKlpFJzA58zeXJn4GDef38yNTX1gc6ZM6c9cBhTpkylU6eVzR7vMnduX2Avxo17nVatgtUKc+fuDuzDuHFv0LFj8Olcly4dzKZN7UmlJgQ+Z/ny/diwoUNe54RlwYL+iOxBKvVaUe+zYkUr4GhmzJhFKrWkqPeKQkNDQ17fyNKlbYBhzJ49k1RqaaBzVq82ZTFr1mxSqcWh8pkPO3Ycx8cfLyKVmp/XefmWRRhmzeoADOX996fQrt2qZo93mTatJ7Af77zzNosXbypCzuoACvr8QQTSRmCyiLyCTyip6vcLlovsfEZVFztCZ4yIzGzi2GxtgFw2lkbtDEfY3Q8waNAgraurC5Hd/GjZEnbfvQ91dX0Cn+O2eA455GCCZrFzZ7Pcf/8hgc8B+N//zPL4448LPObggw/M8jOfOYauXYPf6557YOlSyKfcH3gAPvoov3PC8uKLILKz6Pda7NS7AwcOoq5uUFHvFYVUKpVXWcx36vj99tuXurp9A53jRgLYZ5+B1NUNzDOH+SMCe+7Zl7q6vnmdl29ZhKGDMwHQkCEH5PUNL1xolsOGHcneexc8W8ycCR07Qq9eeWSqGYIIpNHOL1ZUdbGzXC4io4AjgGUi0svRjnoBbgCLRcAevtP7AIud9D5Z0ktOJfchxRGpwZrsyodyMNlZp4b8GVSENlOzWVXVh4B/AJOc39+dtKIhIu1EpIO7DpwMTMUIxgudwy4E/u2sjwbOFZHWItIf2AeY4Jj31ovIMMe77gLfOSWlXPqQrJedm7/iS4lK9bKL810Ki3VqSAZBvOzqMA4ECzAmsD1E5EJVLaaXXU9glOOh3QIjBP8rIu8AT4rIJcBCTPBXVHWaiDyJ8QTcDlzleNgBXAGMBNpinBlK7tAA4SrUON1nkx7tO34vu+Lfp9K97OKIMBIW69SQDIKY7P4AnOyEDEJEBmI0pqHFypSqzgcOypK+ChPoNds5I4ARWdInAkMKnceoJD24api5VOKM9m1NduVDnBFGwpJkk12cnrKlJkhWW7rCCEBVZ2OnoYhMXJEaSjEfUlzRvq3JrjwoF5Nd0gVSkqJ9F4sgGtJEEXkQeMTZ/jqmL8kSgbgjNVRiH1KlmXOsyc4jzrJIumkrirMQJPe5shFEIF0BXAV8H9OH9DpwTzEzVQ1EMdnFFYE7X+IMrmpNduVD0qN9J920FfUbTupzZaNZgeREP7jN+VkKRJgKNW6nhnzD5cQZXLUUseyKjTXZecRZFknXJKL0zUJynysbOQWSiDypqueIyBSyDyY9sKg5q3DiMtnFHV8uznvFabKrqYmvD6nSNKSk9yElXSDFaXYvNU1pSD9wll+KIyPVRtxeduG0lnAaUhwCqaam8jywKl0gJdXtO+kVd1QNqZxMdjmz6saMA65U1Y/8P+DKeLJXuZTDfEhhhERc94pTQ4rrPmE7r5NO0t2+k97XUk0aUpC/4KQsaZ8vdEaqjSgmuyRPKw6VF+3bmuyikXSTXdL7WqxTAyAiV2A0ob1E5APfrg7Am8XOWKUTpoUf97Ti+RJlvETSnRqsyS48SRdISdckrFOD4e+YMDu/wUyE57JeVVcXNVdVQNL7kIzWkl8GrckuGpVqsrN9SNGoJpNdToGkqmuBtcB5AM40EG2A9iLSXlUXxpPFyiTpfUhhtRb33HwI218Vb+BNa7ILS7n0ISW14k5qtO9i0GxWReTLIjIH+BB4DRNkNREBSsuZcuhDype4g6tW2myilSqQysVkl9SKO4qnrP/8ciDIX/B/wDBgtqr2xwQ3tX1IESmHPqR847fFrY1VqsmuUgVSUkMHJb3ijtqoTOpzZSPIK7LNibJdIyI1qjoWOLi42ap84jbZxWVGc8+N416VarKrtD4ka7KLRjWZ7ILEsqsXkfaYGHaPichyzJxDlgjEHVw16W7fSfaysya7aISt8OPSgpMukKzJLp3TgU3Aj4D/AvOALxczU9VA3F524cxo8ZjsrJedwQqkdKxAMtgJ+nyo6gbf5kNFzEtVEfcU5kmP1JDkgbFxmewgXs0vLsKajuIKD5V001ZUt++kPlc2mhoYux7SgqqKsy2AqmrHIuetoglT8URxaojLjBbmXkkfGBvn9NZxan5xEdZ0FFdZJN20ZQfGAqraIc6MVBtJN9nF7fad1MoK4hUQcWp+cWFNdtGoJg0pUFZF5BgRuchZ7yYi/Yubrcon6QNj43T7tl52HpVsskvqf1wuAqkaNKQgA2OvB64GhjtJrYBHi5mpaqAcvOzC2PzD3sua7AyVaLIL21KP6z9OukCqJqeGIK/IV4DTgA0AqroYE2DVEoEoJrswMcHC9lflQ5Q+pDCVlTXZlQdJ70NKummrmmLZBfkLtqqq4jg4iEi74mapOogrUkMlm+zC3CsM1mQXjaSb7JJu2ori1JDUZ8pFEIH0pIjcB3QWkW8DLwMPFDdblU959CHld045TJcehjgFhDXZeViTnSHOAeelpslxSCIiwBPAvsA6YBBwnaqOiSFvFU059CElPVKDe26xifPDtiY7D+tlZ4izH7jUNCmQVFVF5F+qOhSwQqiAxOX2HW0cUnwmu7gcKMJgTXbRsG7f0bAmu3TeEpHDi56TKiNMS9itqOKI1BBlPqQ47xVH5W1NdtFIeh9SJTs1VKJA+iwwXkTmicgHIjIlY0rzxCMip4rILBGZKyLXNH9G8alEk12l9iFZk100kt6HVKlODRVnsnP6kL4DfBRPdgqPiNQCdwMnAYuAd0RktKpOL22+ku/UkC9xtuSsya58sH1I0YgzJFepCdKH9EenD6lcOQKYq6rzAUTkcUwE85IKpLi87MqlD8ma7AzWZOdhIzUYrIaUzlsicriqvlP03BSH3YGPfduLgCP9B4jIZcBlAN27dyeVShU9U2vXHowIpFKTA58za1ZvYCDjx79J587bAp2zY4cAxzN//oekUsEV3aVL9wU65FUWH3zQGTiY996bjGp94PPWrz+cVas2kkpNC3zO/Pl7AHvz2muv07ZtcSXGypUHoFoby3uxY8fRLFq0glRqTtHvFZaGhoY834uuwAFMmjSRhoaGwOdt3340ixatJJWanX8m8+CTT9oAw5g1awap1LK8zs23LMJgBFEd8+cvIJVaEPi8jz7am507e5FKvVGsrBWcIALps8B3RGQBJlqDYJSnA4uZsQKSrd2T1tZQ1fuB+wEGDRqkdXV1Rc/UrruaFy2fe02ZYpbHHPMZunULds6OHWbZr19/6uqChyB84AGoqdmUV/7cFuaBBx5MPkW4yy7Qo0e7vO41caJZHnPMcXQoctyQLl1g7dp1eeUvLK1aQa9eu1NXt3vR7xWWVCqVV1msXWuWRxxxGIccEvw+pix6U1fXO78M5skcR/YPHrwfdXX75XVuvmURhT337EddXb/Ax//739CiRX51TKkJIpA+X/RcFJdFwB6+7T7A4hLl5VNqamB7nvPu2uCq0e8VBmuyi4btQ4pO2D7ncjPZNZtdVf0I6IyZJfbLQGcnrVx4B9hHRPqLSCvgXGB0ifMUu5ddkgerJl0gWS+7aETpQ7KRGgxh6otydGoIEu37B8BjQA/n96iIfK/YGSsUqrod+C7wIjADeFJVg3dWFIly8LIL6/kWRviFHRgbV4VlvezCE8Xt22pIhrBOUEl+pmwEMdldAhzpTmUuIrcA44E7i5mxQqKqzwPPlzoffqIIpDg+7Chu30kehBsGa7KLRrmY7JJs3gprUUnyM2UjSHYF2OHb3kF2RwFLHkSJ1BDHh22mhEhuH1Lc45CsyS48SXf7TvrAWAj/DSf5mbIRREP6G/C2iIxyts8AHixajqqEuPqQINqYp3zvE+bcpI9DCuPgEZZKNtmF+Y9tH5LBmuwcVPU2EUkBx2A0o4tU9b1iZ6zSiasPyT0+TqeGJDtQhMHOGBsN24cUnWox2eUUSE5A1W6q+oKqvgu866SfJiI1qjoprkxWInFFanCPT7rbd9KjfVuTXXjCmsRspAaPsCb+JD9TNpqqBm7FeKVlMt3ZZ4lAFJNdXE4NcfXrJD3atzXZRaNcTHZJ1iaqRUNqKrtdVXVBZqKqzgW6Fi1HVULYTkr33HyIy/5sTXbRqWSTXVK97MrBqcFqSNC2iX3tCp2RaiNuk124QXXWy869hxVI4bF9SNGJqx+41DT1irwsIiOcKSg+RURuBF4tbrYqnzi97OIy2cXZh1SpJru4ohPEie1Dik61hA5qysvuJ8BfgLkiMtlJOwiYCFxa5HxVPJU4MLYUfUjWZJd8yqUPKckCqVpMdjkFkhOZ4TwR2QvY30me5s4rZIlGnANjK7EPyZrsyodyMdklWZuoFpNdkHFI8wErhApM3Ca7cB46ye1Dsia78iHpJrtKdWooR5NdmWW3coh7YGxYbSwfShGpwWpIycea7KIT3jGpOPkpFlYglYikC6S4TXZJHhhr+5CikXS373IRSNUQOijI9BOPBEmz5EecsanC3ysek50dGOtRiZEayqUPKcmVtzXZeezv3xCRWmBocbJTPcSpgscdy86a7MJTiZEakt6HVKlODRVlshOR4SKyHjhQRNaJyHpneznw79hyWKHEqYIn3e076V521mQXjaT3IVWyU0OSnykbOQWSqv5GVTsAt6pqR1Xt4Py6qurwGPNYkcT5goV1agjrZRdHH5I12ZUPtg8pOmE1pCRrfdkIMh/SL0TkTMz0EwqMU9V/FTVXVUCc4wriHodUaQNjrckuGmFNYjZSg0fVa0g+7ga+A0wBpgLfEZG7i5qrKiDOUCBRxjzlgzXZRacSTXZRZjq2bt+G8GMJi5OfYhFEQzoeGKJq/jYReQgjnCwRiDMUSDm4fVsvO4M12XnEJZzddyjJlXdYs3uShWw2gvwFs4C+vu09gA+Kk53qIU6TXXiBlPxIDdZkl3ysyS461WKyC6IhdQVmiMgEZ/twYLyIjAZQ1dOKlblKJk4vu6T3IdmBsR7WZOdhTXYe1mTncV3Rc1GFJL0PKUwlbGeMjY412XlYLzuPqo/27aKqrwGISEf/8aq6uoj5qnjCBNGMvw8pPrdva7IzVLLJLukCKcnaRJwm/lLSrEASkcuAm4BNwE5AMO7fexU3a5VNOQyMTXKkBrfyiGvgpDXZhSfpfUjlMDA2TotKKQlisvsZsL+qrix2ZqqJcuhDCnOfMOdGGRgbn4ZkTXZhsX1I0akWk12QamAesLHYGak24o7UEOd8SEnurwqDNdlFo1xMdkmuvKvFZBdEIA0H/ici94nIHe6vWBkSkRtE5BMRmez8vuDbN1xE5orILBE5xZc+VESmOPvuEDF/g4i0FpEnnPS3RaRfsfKdL3F6zcQ1hqEUbt/WZJd8wlb41u3bI6yGVIkmu/uAVzGDYeNqu/1RVX/vTxCRwcC5mOjjvYGXRWSgqu4A7gUuA94CngdOBV4ALgHWqOoAETkXuAX4WkzP0CRxDnSLK7hqZY9Dis9kt317LLeKjbB9SHGb7JJceVeLhhREIG1X1R8XPSfNczrwuKpuAT4UkbnAESKyAOioquMBRORh4AyMQDoduME5/2ngLhERN+pEKSmP+ZDyvw/E8+FYk135EKUPyTo1GKplPqQgAmms42n3H2CLm1hkt+/visgFwETgJ6q6BtgdowG5LHLStjnrmek4y4+d/G4XkbWYgb5pDhrO810G0L17d1KpVKGfpxGffDKArVt7kkq9mcc5+7B9e3dSqf/lda9Nmw5n6dINpFLTA5+zfv1QOnfenldZrFvXAjiG2bPnkEp9Eugc85HVsXDhAlKpBYHv9cEHuwIHMWnSe2zdujbweWHYvPkotm/fFst7UV9/EFu21JBKvVf0e4WloaEhr7KYP39PoD+vv/4aLVoEr1Xr6w9k8+baopfFBx90BQ5g0qSJrF/fkNe5+ZZFWDZsGMqKFVtIpaYGPmf16oPYuVNIpSYXL2MFJohAOt9Z+qeciOT2LSIvA7tl2XUtxvx2k3OPm4A/ABdj3M0z0SbSaWafl6B6P3A/wKBBg7Surq7pBygAo0ZBbS3kc6/HH4dWrfI7B6BdO+jevR11dT3yOqdlyy153WvNGrMcMGAf6ur2CXSO2zrt378fdXX9At/LNWsdfPAhHHts4NNC0bIltGrVIu9yD0PXrtDQkP9/HCepVCqv/I0bZ5af/ezx1NYGv0/XrrBuXfHLor7eLA8//DAOOSS/c/Mti7B06ABdunTI616dOpkGX5LfpUyCDIztX+ibquqJQY4TkQeAZ53NRZg4ei59gMVOep8s6f5zFolIC6ATkIgBvXGq4HH1V4Uxo0Xp8M73XmGxJrtoWLfv6ASpL1asgGuugbvugrZty9Nk12x2RaSliHxfRJ52ft8VkZbFypCI9PJtfgUz5QXAaOBcx3OuP7APMEFVlwDrRWSY4113Ad6MtqOBC531s4FXk9B/BPGF84EofUjFd/uO4hKc773CYr3solEubt9JrryD1BfXXgt//Ss8+qjZLsdxSEFMdvcCLYF7nO1vOmmXFilPvxORgzGmtQXA5QCqOk1EngSmA9uBqxwPO4ArgJFAW4wzwwtO+oPAI44DxGqMl14iiDtSQ1LD+UTxwMr3XmGxA2OjkXS370pxanD3+5dJfqZsBBFIh6vqQb7tV0Xk/WJlSFW/2cS+EcCILOkTgSFZ0jcDXy1oBgtEOYQOCnOffM8NWxnEbbKLi0o02cXZkApDOZjscpXF88/DRx/BFVc03leRJjtgh4js7W6IyF7AjiaOtwQgTHDVOPuQ4nL7LheTXVwfdiWa7OIcPxeGchFI2crii1+EK6/Mfk6lmux+inH9no/xWtsTuKiouaoC4hwYG3cfUhxODdZkVz7EOX4uDOUgkOwEfYCI1AIHYRwIBmEE0kxncKolAknvQ4ordFC5eNnFhTXZedhIDR5hv+EkP1M2msyu4zRwmqpuUdUPVPV9K4wKQ9zBVeM02cXp1GBNdsknTlNzGCrFqSGTitOQHP4nIncBTwAb3ERVfbdouaoCampgR549cfELpOK7fUcZowLWZFcO2D6k6DSnIWWrG8rRqSGIQDraWf7al6bACYXPTvXQsqV5wfJpfYd9weKaD8ma7KJjTXYetg/Jo7n3YvPmxmmV6tTwVTs5X+Fp1cost22D1q2DnROlpRmHR1+ckRqsya58iGKys27fhpoaU1fkwi+Q3DIrR5NdztdERL4sIiuAD0RkkYgcnetYS/64AmlLHj1ycZrsjPCLL1KDHRhrqESBVC4muySbt5oriy5dYMkSs+4KrnI02TWV3RHAsaraGzgL+E08WaoOXIG0dWvwc+zAWI9KNdmFGZ+WdJJusqsUp4axY83SFUjlaLJrSiBtV9WZAKr6NtAhnixVB66ZLg6BFLeHjjXZhacSNaRycftOcuUdpCzatDFLt04pR5NdU31IPUTkx7m2VfW24mWr8gmrIcVli49L+NmBselUqkBKstt3OQikIN+V28gtZ5NdUwLpAdK1osxtSwTCCKS4pzAPUwnnK/ysl106lWiys31I0QnyXbll7NYp5WiyyymQVPXGODNSbZSHU0Px71UOA2PjbGlWqoYU5l1q2bJpz7JCUQ59SEHei40bzdKvISX5mbKR4DZBZROnU0OcfUj53ivqwNj45kOyJruwhH2X2rTJPr6m0FSKya7BmX3d34eUZK0vG2WW3cohbi+7cH1IyTXZ+cdxFZu4TXaVKJDCVIxWIHkE+a7cb6FSvewsRSSMl11Yb6+43L7D3CtsZbDLLmbpmimKRdz9C5UYqSFsxdi2bW6BNHMm1NdHytanlINAchsqqtC1K/z5z7nfk4rWkESkp4g8KCIvONuDReSS4metsolTQ6qtTW7cvLAVftwCyZrswhPFZLd1a/aKd7/94LjjoucNysupYft2WL3aTMiXyzpQ6RrSSOBFoLezPRv4YZHyUzXE6dTQpk1+93HvVVOTf82Yr5dY2D6kdu3MMi6BFBfWZOfhjqvJ1JK2bzfLKVOi5culHJwaWrUywtlfFrkas1u3wgMPwPz5yX6mbAR5Tbqp6pPATgBV3Y6dMTYycWpIYWzxYc1G+d4rSh9STY012ZUDYVvquQTSunXR8+SnHEx2nTsbE6XbsBTJXXds2waXXWbWk6z1ZSNIdjeISFdMhG9EZBiwtqi5qgLiHBgbRiCFFX7t28OGDc0f578PhPOy22WX4gskr/VsTXZhidKQgsbv7to8ap9t2+CWW5p+/8tBIO26qzHVuc/RlEDypyf5mbIRpHr7MTAa2FtE3gQeBr5X1FxVAXEOjI1TILVr57mfBr0PhLtXHAIpbuEQ19ibOAn7LrVta5aZ767fmWHsWPj449zX+Otf4Zpr4Le/bTp/kOzKu0sX816sWWO2m9OQXJL8TNlodvoJVX1XRI7Hm8J8lqpW2CcTP3HGsmvdOqxAyr82DqshhdH8dtklv3uFIW6TXVyuznFS6D4kv4Z0wgnmuE2bsl/DPXf16qbzB8k2b+26q1m6Eb1rary649FH4aKLPEHkr1Pc/rZyIYiX3VeBtqo6DTgDeEJEDi12xiqduJ0akqohRelQrkSTXdu2uSvXciVqH5K/PO6+G1Kp9OM2b4Yf/QhGj/bSNm2Cn//ce++b0jrLwakhUyD5NaSWLb36BNIFUrm9S0Em6PuVqj4lIscApwC/B+4FjixqziqcTJPd9u3Qopl/I6qXXT7nh61E2rdv2oSSSTFMdtu2wbJl0KdP/tdUNc9eW5uev7ho29a46Ad5H8qFQvUhLVwI3/1u9mP/9Cfzc/+vRx+FW2+Fjh3NdqamcNddsO++cOKJ5WOyg+wCqVUrYwVxrQWvveadV24CKYiS6nrUfRG4V1X/DbRq4nhLAPwCaeZM08r55z+bPieK6cMdwxCUsCa7du3icWqA3ALpyithjz3CmfPOOgv23rtx/uI02UHxK5IJE/Ifm5aLnTvhkktg8uTs+wslkJr7PsD0sVx0kWmQgOeR59eQVqyA730PTjrJyx8kWyBlM9m5z9SqVbqG5KcSBdInInIfcA7wvIi0DniepQn8AumNN8z6f/7T9DmFdp8FePNNWL++cXpYzaB9+3BODWEq/Hbtsgukv/3NLD/6KD190qTmHQZGjTLnnXkmXHut1wqN02QHxa1I3n0XjjwSfv3rwlxv2TLjPHDssdn3h21IZTo1TJzY/DnjxsHIkfCrX6Wn+xtjo0aZZYcOXv6gPATSHXeYZaaGVE0C6RzMwNhTVbUe6AL8rJiZqgZatPA6Jl2B0KGZyT2iODVAY4HU0ADHHw/33FO4ewVxavCPsylGH5Lb8v/wQy9t9mw47DDjceWSTej26GGWo0bBzTfD+PFmu3//IntPOGRrPKRSsGBB4e7htrInTCjM9dz/O1dDpFANqbVroVu3ps+ZNSt7ur8h8sEHZtmrl1mWg1ODa7JzqVqBpKobVfWfwFoR6Qu0BGZGuamIfFVEponIThE5LGPfcBGZKyKzROQUX/pQEZni7LtDxLziItJaRJ5w0t8WkX6+cy4UkTnO78IoeS4G7ujrYgukXBrSihWm8p47N/u9wkRqcJ0acmlYkyaZ/pnXX/fuA4UTSH5hd//9UFdnWsdLl5q0t982yzVrTAX05z+nn59pxrr8ctN4GDKkwKMxc5CpIW3dCp/9bOHC5IDXNxXFA+vf//bMYX5BNGaMMZk9/LCXFvW9PftsE3Wgvh6GDPEaWNlwrQ2Z+J915UqzXL7cLMvBqSGzbsjWh5SNihNIInKaiMwBPgRec5YvRLzvVOBM4PWMew0GzgX2B04F7hERp3uZe4HLgH2c36lO+iXAGlUdAPwRuMW5VhfgeozzxRHA9SKya8R8F5RWrYyzgX9sgcvWreYj9FNogeR+mJmmLQgfLaB9e3Puli1w4YWN8ztunFk+8ohZFlogLV7srY8ebTp4lyzxvBldZwX3ma+7zmiJ//d/RkhmBuz85BPjWty2bTzBSTIF0qRJZpmPo0hzuO9B2D6k1atbccYZcIrTXPQLpJNPNiazX/4Sfvc7+Na34B//iPbeAtx7r9GQOnc2/+fPf+7te/118z+CGZeUDb+GtGqVWdbXm++sHEx2IvDWW952TY3XuPJrSPvvn35esb1QC00QJfUmYBgwW1X7AycCb0a5qarOUNVsyvXpwOOqukVVPwTmAkeISC+go6qOV1XFDM49w3fOQ87608DnHO3pFGCMqq5W1TXAGDwhlghcDck1ofg/7PPPN53r7gv15z+byjVMq9b9sDNdzJsSSFHcvsE8i9tK9mtLbiXodjpHFUiZ5kH3un6WLvXGobRoYVrGd91ltlesMBXar35lBJO/kr7uOnjiCXjqqfzzFpbMxoMrwAcPDn/NjRvhggs8oeZq5Jnv0mOPNd+PCbB6dUvAVJA7d2Y31W3dCldfDQ85X+acOfnn2y+QRo40/1unTqY/5aCDvH1HHQU//alZz9YfCumagvvegxH42RqEScSvJW3dCjfcYNZ3283Tli64wGsoQAVqSMA2VV0F1IhIjaqOBQ4uUn52B/xtwUVO2u7OemZ62jlOnL21QNcmrpUYmhJIzzxjlq5N/Be/MEu3dZcPuTQk91oLF6YLjYYGI7zC9iG513BZs8ZU9I8/bu4FMG+eWUYdGNvQAAMGeH097jP5P97Fi730V1+Fnj3hwQebv/6RR8I553iuw3Hgakhjx8J998F775ntli2NAFGFqVPNf5PZB7RtmzFTZmpTzz1nNNKfOT2/bqWdqSF94xtw2mnN53Ht2pafri9d6v3XJ5zgP6b56zSHWxZghMiyZUYggdfwAdPI6NDBc/PP9i65z7xwoXn3Onc220cfbTQ5SL5A8r+H7rd8333Qu7dpWAHsvnu6+a7cBFKQkQ71ItIeY157TESWA82200XkZWC3LLuudVzHs56WJU2bSA97TvpNRS7DmAPp3r07qcyRd0Vi584jWbhwLbNndwLaMn/+clKp6Sxd2ho4CoBnnpnO2rXL2bHjM0BLli7dSir1v7zuM2vWrsBBvP76ZMaPVwYOXE/r1jt5660+wAA2b4ZRo96kSxdj1/jqV48CWrNt29a8y+Kjj7oD+zN27ASMpRT+858JzJvXnptu8pr5c+fuIJUax9//3hfYi2nTptKt28qs18zFpk29gEHMmwcjRizmpz+dzRtv9AAGs/fea5g82VhoU6nZrFvXEuif57NMIpUyNVlDQ0Ms78X06R2AoZ82QAYMWA90YPr0nfTtu4WtW2s49NA1wG7cfvtHfPvbnufGSy/15De/2Y927bbz5z9PYurUTpx66lLef9+UyZw5azjllC20abMD2J2FCzey777b+eEP5zBgQANwPACpVIoNG2qZPbsDhxxS3yiPy5d70v7llycwfXpHYF/atFkCGE+BbB6d+Zbfjh3yaZ7atdvOhg0tWLNmAanUAtata0vHjody+OGrSaVmALB69TFACw46aA3vvZdunV+2bANjx77DCSfUAXDAAfXU13dOO2bcuNdo0SK/ftO43gtzr1og3ZWxtvYdUqkNrFhxPCCsWDGZtWt7A8Y7Z9MmJZV6rdG1EouqNvkD2gG1GOF1IfB9oGtz5wX5ASngMN/2cGC4b/tFTM3cC5jpSz8PuM9/jLPeAliJEUafHuPsuw84r7k8DRw4UOPikENUhw1zp91S/eIXTfrbb3tpv/qVSeve3WyL5H+f11835/boYZZ3323Sr73Wu8/bb3vHu2nnn78g73u98II5d+xY7zpjx6o+/ri37f42bPDWn3km/+eaOtU7f7fdVBcuVD36aLP90596+y6/XHXPPb3ts87y1mtrVU8+WfX66720K680yzVrvHuNHTs2/wyGYPLk9DJq3bpxufXpY5YjRqSfe+yxjY+tr1f9/e8bp/t/Rx6pOmdO+jlnn23WFy9unMfvf3/2p8dOmKB6551m/de/bnztu+/21sPgnrvPPmb5hz/kPnbECNVOnVRffrnp53XL7p57VLt08dK2bcs/f3G9F6qq27enP0NtrermzWafmzZnjur556cfFxfARI0oE4J42W1Q1R2qul1VH1LVO9SY8IrBaOBcx3OuP8Z5YYKqLgHWi8gwp3/oAuDfvnMudNbPBl51CudF4GQR2dVxZjjZSUsMxx6b3lHpmhX85o4ZM4z5zDVDaH4NOMAz2bleRa567zf/ZetHCsOwYca8dPfdXtpnP2s8rzLx9/eEMZfst5+3vnQp9O0L/3OUx0N9wa3uuy/9+YYO9dbr682Ay65dvbSLLjLl7Jp14sRvpgLz3+/uGJrd5SLHeN3QYMxz7jsxdWpj82Lnzs33C02ZYsajuXTp4jlTzJ7d+Hi/yW7dOs9k169f42OPjBjP5eqrjdu7Ow7HNdll4xe/MH2Fu2Wzy2TQpo2Z5O7LX/bSkm6ycx1yXPr3b+xdl2myKzeCeNmd6bhNrxWRdSKyXkQi+cCKyFdEZBFG+3lORF4EUBMv70lgOvBf4CpVdS3dVwB/wTg6zMPz9HsQ6CoiczGRya9xrrUa45DxjvP7tZOWGD77WW994EBTMSxb5nl69e8PTz9tPp5cnbVB8HcOg+cIsHKlNxZjyhTTQe13g/ZXPEHp3Nl0qj79dHq635Z99dVm6Xc3D1MZ1NQYD66nnmr8se6zT+7zevf21tu3N/0R/vEtpRBELpn/FRghDybUjT+c0MiRRgjX1Jh9a9bAIYc0Pv+1Ziw2GzcabziXnTu9MVwPPGAqbb+XWn29916cdBIMH27+v92z9NAefHDT926O3/7WOJu4Aqm5oRE1Nc0f48f/vyddIGXSvXvjtLZt4fTTve2fldmI0SBdyb8DTlPVTqraUVU7qGqkbl5VHaWqfVS1tar2VNVTfPtGqOreqjpIVV/wpU9U1SHOvu86WhCqullVv6qqA1T1CFWd7zvnr076AFX9W5Q8F4NTTjEVyB57GK+hNWtgr708gXTUUd6xUdw3Myu5tWvNh/7885630k03mQCVV1zhHbdmTbgIUX7tKJN16+BLXzLrM32j2cIOSjz3XDNO5fDD09MPOMB4HH31q43P6dXLCEO/W71fQwrSwi4WmRoSeJV6jx7ewF3wnGHAc37xe59lw+2bcnnhBTjjDLPeubNxf/fz2GPw7LPps7OuXduSlo5McrUz1eyDVjMbCmFxB4YGCRLclBPKhRcaF/KrrjLb5SyQdvV1k40cacIhgRFIGzaY/8R12CgXglQDy1R1RtFzUoW0bWvCuCxY4I372bjRq2jclnFU/AKpZ0/jiTV8uLmXvyJ3w5K4+FvC+dC3r9dK22WXdLPNLrt4lYB/VH3UyuDAA9O3W7c2LscXX2y2XVMiGIGz995GA3XxV0yup2ApyBRI7dt7FU+fPs2PHfILpFdeMSbhL37RVEyrVsHXv+7tf+opOPVU+MxnzHb//iZc0oknNr7ue+8ZYXD22ZBK9WDAgMbHuOY0978sZAV/zjlmOWRI88c29f+NHAnf+Y5n1vJrGeUmkPya/IUXpn+/u+wSe3YKQk6B5JjqzgQmOpEQznPTnHRLgaipSa+cr7/epEUZe+LHb1POVPMPPdSE1MlGfX34GLo33wyDBhlN5NJLvfTaWk8bKaRAylVWJ51ktMF//Qu+8hWT1rNn4+PcSj8zREvcZGqzgwaZyua73zXCIts4Kz/+gZEnnGAaA88+a0w3XboYDdzl7LO9e4D3nhx9tFkOG+YJq0svNeXoDkfI1LTACMxzzjHREs45x4vGUQjOOMNo1/6+wVzkipKeTVtrLhRRkvG7vlcKTWlIX3Z+HYGNGKcAN+1Lxc9adeFW0q55ZudOYzv/1a9gxAjvuNtvD3ft0083ncOZrcejjzbpv/+9l+ZWymEcKFwGDzYmuV69GptQdt3VCCC/QIo6kZhfyLzoc12prTV9Vu7YozffzC6Q+vY1Eatj8uDNSWZlOmiQ+c/uvNNoIO6I/CuvzH6+v38sG9n6qI491vRB3Xab2XaFWo8eRricdZbZvvFGs7zppqlpmpZLba0ZSHz00WZ5zDEmfeDAwrTY8+kbAmO2dXnlFZg+vfExViAljKhuepX2i9Pt28+SJarPPaf67LON3TU3blS98ELVuXOj3+fEE821v/Wt9PR169Lv+6c/qT700FvRb6iq//1v42fyu9uC6siR0e7R0KB6+umqs2dHu04u4nTvdcvkb39Tff/99H0TJqjecYfqjh3pbvPub/Nm1cceUx03Lvf1X3lF9d13c+9vaFD9/OeNC7qqudeQIeb6gwZ5ZeHe8+abVW+7Lff1tm83vzhZtSq9fHKxenU09+g43wtV1TFjVAcONPm99tpYb90sFMDtu9mBsSKyF3A7JnyQAuOBH6oJ7WMpELvtBl/4ghfBwE/btsb2XQjcVlWmaapDB+My7brw/uAHkEoVZph3tk7m3r3Tp5WOOrK/XTtjlqsEhg83Di1+l2SXww/3+v38Wscjj8DLLxuz2/nnN319f0SFbLRrZxxeXGpqjOPN1KneHEKZ+W2KQjk25ENQ06vfMaAcOPFEY+249dbK1JCCRGr4O3A34FjgORd4HDtjbFHINpajkLgmn2wfot+rr5BkGzviVnAumUFNq5mbbw5+7Je+ZPqIvv51E/qnWLj9S2efHc2UWwqac4R4803jbVguuMM2qlUgiao+4tt+VERyTCRsiYrbmtxjj+Jc3x1PEmfLMJdAAm9CP7e/wZIfTz1lOvuL7SF2++2mwXLssYV1Vig2S5Y07zV59NGeI0c5UO0CaayIXIPRihT4GmYwaxf4dACqpYAsX557wq2olEIgZTPZuQLpnHPMuJBiPW+l06ZNdkeFQtO3b/qUD2AikYedpiQuSjmmrFgcfbQZ0tDcmLNyJIhA+pqzvDwj/WKMgNoLS0HJNgK7ULgCKc5oBNlaqG4l2ratFUblitVqS8O3v23Gj/XtW+qcFJ5mBZKaOZAsFYIrkOKMd+Wak/wutm5fWdTQMhZLtSFSmcIIgmlIiMjRQD//8ar6cM4TLIkn7gCMb72V/hGddZYZ81PIqbktFkt5E8Tt+xFgb2Ay4AYuUcysrZYy48EHjctoocISBSUz6rOIGfhrsVgsLkE0pMOAwc7AJ0uZ078/3HNPqXNhsVgsjQkSXHUq2Wd+tVgsFoulYATRkLoB00VkArDFTVTV04qWK4vFYrFUHUEE0g3FzoTFYrFYLEHcvpuZb9JisVgslujkFEgish7jTddoFyY0bqRZYy0Wi8Vi8ZNTIKlqnrOPWCwWi8USniBedhaLxWKxFB0rkCwWi8WSCKxAslgsFksisALJYrFYLInACiSLxWKxJAIrkCwWi8WSCKxAslgsFksisALJYrFYLInACiSLxWKxJIKSCCQR+aqITBORnSJymC+9n4hsEpHJzu/Pvn1DRWSKiMwVkTtEzMTYItJaRJ5w0t8WkX6+cy4UkTnO78JYH9JisVgseVEqDWkqcCbwepZ981T1YOf3HV/6vcBlwD7O71Qn/RJgjaoOAP4I3AIgIl2A64EjgSOA60Vk12I8jMVisViiUxKBpKozVHVW0ONFpBfQUVXHOzPXPgyc4ew+HXjIWX8a+JyjPZ0CjFHV1aq6BhiDJ8QsFovFkjCCzIcUN/1F5D1gHfBLVR0H7A4s8h2zyEnDWX4MoKrbRWQt0NWfnuWcNETkMoz2BbBFRKYW6FnKnW7AylJnIiHYsvCwZeFhy8JjUNQLFE0gicjLZJ/6/FpV/XeO05YAfVV1lYgMBf4lIvtjprzIxJ0aI9e+ps5JT1S9H7jfyfdEVT0s23HVhi0LD1sWHrYsPGxZeIjIxKjXKJpAUtUTQ5yzBWeadFWdJCLzgIEY7aaP79A+wGJnfRGwB7BIRFoAnYDVTnpdxjmpfPNksVgslnhIlNu3iHQXkVpnfS+M88J8VV0CrBeRYU7/0AWAq2WNBlwPurOBV51+pheBk0VkV8eZ4WQnzWKxWCwJpCR9SCLyFeBOoDvwnIhMVtVTgOOAX4vIdmAH8B1VXe2cdgUwEmgLvOD8AB4EHhGRuRjN6FwAVV0tIjcB7zjH/dp3raa4P+rzVRC2LDxsWXjYsvCwZeERuSzEKBMWi8VisZSWRJnsLBaLxVK9WIFksVgslkRgBZIPETlVRGY5YYiuKXV+io2I/FVElvvHXYlIFxEZ44RbGuOPbiEiw52ymSUip5Qm18VBRPYQkbEiMsMJa/UDJ73qykNE2ojIBBF53ymLG530qisLABGpFZH3RORZZ7sqywFARBY4Idwmu27eBS0PVbU/049WC8wD9gJaAe8Dg0udryI/83HAocBUX9rvgGuc9WuAW5z1wU6ZtAb6O2VVW+pnKGBZ9AIOddY7ALOdZ6668sCM4WvvrLcE3gaGVWNZOM/3Y+DvwLPOdlWWg/OMC4BuGWkFKw+rIXkcAcxV1fmquhV4HBOWqGJR1dcxnol+/KGYHiI9RNPjqrpFVT8E5mLKrCJQ1SWq+q6zvh6YgYnsUXXloYYGZ7Ol81OqsCxEpA/wReAvvuSqK4dmKFh5WIHkETjUUIXTU824L5xlDye9asrHiRh/CEYzqMrycMxUk4HlmJiQ1VoWfwJ+Duz0pVVjObgo8JKITHJCrkEByyOJsexKReBQQ1VKVZSPiLQHngF+qKrrnFlOsh6aJa1iykNVdwAHi0hnYJSIDGni8IosCxH5ErBcTdSYuiCnZEkr+3LI4DOqulhEegBjRGRmE8fmXR5WQ/JwQxC5+MMTVRPLnOjqbpT15U56xZePiLTECKPHVPWfTnLVlgeAqtZjQm6dSvWVxWeA00RkAcaEf4KIPEr1lcOnqOpiZ7kcGIUxwRWsPKxA8ngH2EdE+otIK0zEh9ElzlMp8IdiupD0EE3nipkQsT8mrNOEEuSvKDghqR4EZqjqbb5dVVceTgivzs56W+BEYCZVVhaqOlxV+6hqP0x98KqqfoMqKwcXEWknIh3cdUw4tqkUsjxK7bWRpB/wBYx31TxMVPKS56nIz/sPTIT1bZjWzCWYqTteAeY4yy6+4691ymYW8PlS57/AZXEMxpzwATDZ+X2hGssDOBB4zymLqcB1TnrVlYXv+erwvOyqshwwHsjvO79pbh1ZyPKwoYMsFovFkgisyc5isVgsicAKJIvFYrEkAiuQLBaLxZIIrECyWCwWSyKwAslisVgsicAKJIulQIhIVycK8mQRWSoinzjrDSJyT5Hu+UMRuaAA13lcRPYpRJ4slrBYt2+LpQiIyA1Ag6r+voj3aAG8i4lSvj3itY4HvqGq3y5I5iyWEFgNyWIpMiJS55tL5wYReUhEXnLmljlTRH7nzDHzXyd8ESIyVERec4JYvuiGZsngBOBdVxiJSEpE/igir4uZ1+lwEfmnM0/N/znHtBOR58TMdTRVRL7mXGsccKIj5CyWkmAFksUSP3tjpjQ4HXgUGKuqBwCbgC86QulO4GxVHQr8FRiR5TqfASZlpG1V1eOAP2NCuFwFDAG+JSJdMTHpFqvqQao6BPgvgKruxEwPcFBBn9RiyQMrkCyW+HlBVbcBUzATQ/7XSZ8C9AMGYYTIGGcKiF9iAlNm0gtYkZHmxl+cAkxTM8/TFmA+JtDlFIwmdIuIHKuqa33nLgd6R3w2iyU0Vj23WOJnCxitRES2qdeRuxPzTQpGmBzVzHU2AW2yXdu51hZf+k6gharOFpGhmDh9vxGRl1T1184xbZxrWiwlwWpIFkvymAV0F5GjwEyLISL7ZzluBjAgnwuLSG9go6o+CvweM4W9y0BM0EyLpSRYDcliSRiqulVEzgbuEJFOmO/0TzQWFi8Aj+R5+QOAW0VkJybK+xUAItIT2KTOzJ8WSymwbt8WSxkjIqOAn6vqnIjX+RGwTlUfLEzOLJb8sSY7i6W8uQbj3BCVeuChAlzHYgmN1ZAsFovFkgishmSxWCyWRGAFksVisVgSgRVIFovFYkkEViBZLBaLJRFYgWSxWCyWRPD/SZYN5mruOEUAAAAASUVORK5CYII=;imageBorder=default;" vertex="1" parent="1">
          <mxGeometry x="-90" y="260" width="420" height="278" as="geometry" />
        </mxCell>
        <mxCell id="_TGiCRJFAITHIr49HdVO-3" value="" style="shape=image;verticalLabelPosition=bottom;labelBackgroundColor=default;verticalAlign=top;aspect=fixed;imageAspect=0;image=data:image/png,iVBORw0KGgoAAAANSUhEUgAAAaQAAAEWCAYAAAApTuNLAAAAOXRFWHRTb2Z0d2FyZQBNYXRwbG90bGliIHZlcnNpb24zLjUuMSwgaHR0cHM6Ly9tYXRwbG90bGliLm9yZy/YYfK9AAAACXBIWXMAAAsTAAALEwEAmpwYAABeNklEQVR4nO2dd7gU1dnAfy+9gxRRRAQLKGBBFDW2a8ckllgSNZYYjbEkRmOKxkRN1BhTTD5jNGo09pZEozE2DKwVBVQUESkiShOkcykXLrzfH2eOM7t3d+/M7O5suef3PPvM7tkpZ8/OnPe85bxHVBWHw+FwOMpNq3JXwOFwOBwOcALJ4XA4HBWCE0gOh8PhqAicQHI4HA5HReAEksPhcDgqAieQHA6Hw1EROIHkqClE5Jsi8kKJzj1AROpFpHUpzl/piMhUEakrdz0ctYsTSI7EEZE5IrJIRDoHys4VkVSh51bVB1X1yELPA1/U8/DAuT9V1S6quqkY58+4lorIGk/gLRWR/4nINyIcXyci8wq4/kCvDvXea5GI3Coibe0+qjpMVVPe/teIyAMxr3WNiGz0rrNCRF4Xkf28774lIpu871aJyLsi8tUs9fxvxjkfEJFrvPdDRWSSiCz3Xi+KyNA4dXUkixNIjnLRBvhBuStRYeyuql2AIcA9wC0icnXCdejh1WFXYD/gohJd51HvOn2AV4HHRUS878Z73/UAbgUeEZEeGcfvKyL75zj3AuAkoCfQG3gKeKS41XeUAieQHOXid8CPsnQ0AIjI/4nIXG+U/JaIHOiV9xORdSLSM7DvCBFZIiJtvRH2q4HvjhSR6SKy0hvxvyQi53rf7SAiYz2NZImIPGjrIyL3AwOA/3ij9Z8ERudtAnV5SkSWicgsEflO4LrXiMhjInKfiKz2zF17hWkYVV2iqvcDFwBXiEgv75xni8g073yzReS7Xnln4FmgX0DD6Scio0RkvKeFLBSRW0SkXcg6LAbGAF9oFlZjFJHRwM+Ab3jXetf7/ltevVaLyMci8s0Q19kI3AtsBfTK+G4zcD/QGdgp49DfAtflOOcKVZ2jJg2NAJuAHcP8bkd5cQLJUS4mASngRzm+nwjsgRnlPgT8Q0Q6qOoCYDxwYmDf04B/ep3bF4hIb+CfwBWYzm468KXgLsANQD9gF2Bb4BoAVT0D+BQ4xjPT/TZLHR8G5nnHnwT8WkQOC3x/LGZk3gMzSr8lx2/NxZMYTXKU93kx8FWgG3A28EcR2VNV1wBHAwu8unbx2mkTcClGS9gPOAy4MMyFRaQfcBTwRuZ3qvoc8Gs8LUdVd/eE4s3A0araFdPOk0Ncpz3wLWCeqi7J+K619zs3Ap9kHPoXYLAETKpZzr0CWA/82auvo8JxAslRTq4Cvi8ifTK/UNUHVHWpqjaq6h+A9hhTFhgBdSqAZ+Y5xSvL5MvAVFV9XFUbMR3mZ4FrzFLVMaraoKqfAzcBB4epuIhsCxwA/FRV16vqZOBvwBmB3V5V1Wc8n9P9wO5hzh2o30ZgCUYoo6r/VdWP1PAS8AJwYJ7j31LVN7w2nAPcHuL3LfE68vnAGoxAD8tmYLiIdFTVhao6Nc++X/euMxcYCRwf+G7fgDD5PXC6p7EFWQ9cTw4tCUBVewDdge8B70T4HY4y4QSSo2yo6vvA08Dlmd+JyGWeeWql1zl1x4z0wXSS+3mj+IMABV7Jcol+mA7PXk8xGo29xpYi8oiIzBeRVcADgWs0Rz9gmaquDpR9AmwT+PxZ4P1aoIM194VBTEBBH2CZ9/loEXnDMxGuwAjcnPUVkcEi8rSIfOb9vl/n29+jt9eRdwJeA54LU1dPS/sGcD6wUET+KyI75znkMVXtoapbquqhqvpW4Ls3vDpsgdEscwndO4G+InJMM/X6K3CfiGwZ5rc4yocTSI5yczXwHQIduecv+inwdWALr3NaiTGxoaorMNrB1zHmuoc1e9r6hUD/wHkl+BljrlNgN1XtBpxur+GRLxX+AqCniHQNlA3AaBbF4jigEZjgmbb+hdEY+npt8kygvtnqehvwIbCT9/t+Rvrvy4mqrsMEVuznmT6b7JLlmOdV9Qhga++6d4a5Vp461GNMjGeIyIgs328EfglcS/7f1QojYLfJs4+jAnACyVFWVHUW8ChwcaC4K6Yj/hxoIyJXYfwmQR4CzsT4krKZ6wD+C+wqIsd7mslFGOd58Dr1wAoR2Qb4ccbxi4Dtc9R7LvA6cIOIdBCR3YBzgAfz/NxQiEhPLyDgL8CNqroUaIcxW34ONIrI0UAwvH0R0EtEumf8vlVAvaetXBChDu0x5sfPgKVZdlkEDBSRVt7+fUXkWM+X1IBp14LD473f/jeMeTcb92PaZXSg7keICXRpLSLdMKbY5cC0QuvjKC1OIDkqgV9hIqksz2OixmZgzGDrCZjePJ7CRF4tUtV3s53Uc5KfjInIWoqJGJuE6TDBjK73xGhf/wUezzjFDcDPvSi1bMEXpwIDMdrSE8DVqjqmmd+aj3dFpB6YBZwLXKqqV3m/ZTVGaD+G6VxPw7SB/a0fYoIsZnv17YcJGDkNWI3RVh4NUYcVXh0WYQIhjs2hff7D2y4VkbcxfcllmLZYhvFVhQqgCMGfgC97Qj8Nzz93NZ6fzaMHpi1WAh9hIuxGq+r6ItXHUSLELdDnaCl4o/l5wDdVdVy56+NwONJxGpKjphGRo0Skh2eCsj6UJqHMDoej/JRVIInI3SKyWETeD5Rd40U9TfZeXw58d4U3AXG6iBwVKB8pIlO87272nNeISHsRedQrf1NEBib6Ax2VwH4Ys80S4BjgeM9h73A4KoyymuxE5CCM8/M+VR3ulV0D1Kvq7zP2HYqxC4/ChNy+CAxW1U0iMgGThuYNTOTRzar6rIhciImgOl9ETgG+pqqh84M5HA6HIznKqiGp6st4cyxCcBzwiDeJ8WOM43eUiGwNdFPV8Z7z9T78SXbHYdKSgJm7cpjVnhwOh8NRWYSepJcw3xORMzERUZep6nLMHIKg7X+eV7aRwGTHQDnedi6AqjaKyEpMCpnMFCXnAecBdOjQYeSAAQOK/oOqkc2bN9OqlXMzgmuLIK4tfFxb+MyYMWOJqjbJuhKFShRIt2Emuqm3/QPwbbJPfNM85TTznV+gegdwB8CQIUN0+vTp0Wtdg6RSKerq6spdjYrAtYWPawsf1xY+IpKZbzAyFSfaVXWRqm7yMv3eiZ9Ych4m+aWlP2bOwzzSZ9/b8rRjvImR3QlvInQ4HA5HglScQPJ8QpavATYC7yngFC9ybhBmUuQEVV0IrBaRfT3/0JmYLMn2mLO89ycBY3NM8nM4HA5HmSmryU5EHgbqgN5iVru8GqgTkT0wprU5wHcBVHWqiDwGfIBJK3NRYOXOCzB5tzpiZvg/65XfBdwvIrMwmtEpJf9RDofD4YhFWQWSqp6apfiuPPtfj0k5n1k+CRiepXw9JnWMw+FwOCqcijPZORwOh6Nl4gSSw+FwOCoCJ5AcDofDURE4geRwOByOisAJJIfD4XBUBE4gORwOh6MicAKpili5EnbYAd58szTn37wZ9toLHs9cN9XhcDgSwAmkKmLcOJg9G667rjTnX7oU3noLTjutNOd3OByOfDiBVEV8/rnZ9ikon27z58+2QMfLL8OSJU3LHY5aYfFiSKXKXYuWjRNIVUQxBdJtt8Hcuf7ndetg0aLs+27aBAcfDEccUfh1HY5K5ZBDzGvz5nLXpOXSrEASkcEi8j+7zLiI7CYiPy991VoG9fXwwQfh9i2WQFq6FC68EI4+2nxuaIBOneDss83nTA1p9WqznTy5sOs6DCJw0UXlroUjE/scrnML3JeNMBrSncAVmIXwUNX3cElKi8Yxx8CwYeFGZYsXm23r1oVd0wqYTz7J/jmTVasKu57Dx+aav/XW8tbDYVi40AQLBamvL975v/ENOOmk4p2v1gkjkDqp6oSMssZSVKbS+NOfjJM/G5MmwT33mPebNvkdTVSszTrzociG1ZAaC2x9K2AaGsw28wHMFI5BgfTnPxd27ZbO+vX5v29Ji6PMmAETJ5a3DkcdBZdfnl5mB2jF4LHH4F//in7cokXw6afFq0e1EEYgLRGRHfBWWhWRk4CFJa1VBfDZZ3DppeaGzcbee/smrjZt4OtfL+x6K1Y0Ldu0ybzAdFSzZ5v3xRJIGzeabaZAamiAtWub7g9w8cVmO26caaNgXR9/vGV1qFF59dXcWujEifDd70KrVuXvpJNiyBAYNar5/UqFKsyc2bTjz3we7HNSTNavN6bBhgbYZpumQmurrWC77Yp/3UonjEC6CLgd2FlE5gOXYNYfqmlefNFsm+v8rTbxz38Wdr3ly9Pf19dD375w0EGm7IUX4KOPwtWpOcKYKKx5EJqa7DZsgEMPhdGj4Y47YOpU+MMf4MQT3RymXKjCgQfCLrtk/37UKNOWULuRXqtWGf9lJkkFETzxBHznO+n1Wb8ennkGfvADvzz4PMyYAe3axdNygtiBpaVfP+jd25x/wQL4/vcLO3+t0KxAUtXZqno40AfYWVUPUNU5Ja9ZmXnlFbNt2zZ39Blkf8DiEBRIPXvCyJHm3K+/bsrGjIEOHcz7QgTSxo3w3HPpZdlMFMsCC71nCrD33jPb9983o/oDD4RZs0xZUJA5fPKZ6jK1yrZtS1uXcjFwoOmEMwlq2mBM0x9/XNi1Vqww8+ns87lpE5xwAvztb76pemHAznPzzf77oECy/UDUgZYq/PGP/uelS81zazXk5cuNFWLmTPO5Vv/zqOQUSCLyw+ALs3LrdwKfaxrrr1myxKjPwRDpILlMMGEIRvNYk92GDWY7Y4b/3ebNMG2aMXG0bl2YQDrvPLjllvRzBx/Avn3NNiiQMjUka1Kyo7516/w6tSnrko+VSz6/xLx56Z9rtQ2Dg64gmc/QttvC9tsXdq1bb4WHH4abbjKf337b/27+fLPNFISW3/zGfyZsP9CjR/o+f/0rPPpo7uu/9hr8MNBLfvYZ/Pa3RihbSwfA9Olmu3mzib68++58v6r2yachdfVee2FMdNt4r/OBoaWvWnnJ7IStM3/16vQHqBCBFByhLV9uNJFevZrut2ABfPgh7Lyz6awy1f8o2EAMy7Jl6QJpyBC/PpZcAsnSp48vkFzIbHbyCaSpU9M/l8JnUclccYXpkG+80ZiurAZTCJlmwOCkbju4XJjDE/7SS8Z//IMf+BpSfX36OS+4AE7JE2v84YfpnxctMoFQ9vwWK5DsoOTKK3OfsyWQcyymqr8EEJEXgD1VdbX3+RrgH4nUroysWgXDhxuH46uv+jfxpZfCXYFF1gsRSMFO6pVXTERONn/OlCnGhHHGGUYgxdWQsp37qafSzUk772yyMtxzD5xzjrEjZAok+2BZevf2NbugZuXwySeQMk2ixYzyqkTWrzfm565dzW996SVj/s2Mdlu3ztxX3bvHv9ayZeY8waCh3/wG9tsvt4YExrQX5L77jNB4+OFwg66ghQPMtQYMMO+ffdYvz7S8tGnTsgODwgQ1DAA2BD5vAAaWpDYVxKpVZn7Qc8/BHnuYEY6qERpBbIRO+/bRrxG88e67z/iJsnHzzWbf4cMLE0iZkXzDh8Pf/55dQ3rmGfjud/cCmgqkKVPSP3fv7guiXGaZlk4UgVTr876yDVqyaSsjRjQ1lUXlr3+F/fdPv/efe84EIeXSkHIxdqwxaQ8c6Jc1NLSisdGc65prjDUDfD+rZelS/x4ICqTM/75Nm5ZtZQhjrb4fmCAiT2BCv78G3FfSWlUAK1dCt27m/VZbmVncH3zQtGOxGlLHjtGvkWskdMst8L3vmfeHHuoHIRxySGECKbOj2203eOONdIFkR3EAS5a0z5rXLpNgVJjTkLKTSyBt3tz0f2kJAmnrrWHNGhOp+dxzTQd64Juz4hDU+t95p+lAafPm/BpSWEaPPogTT/Sj8MaNMxrfnDnp+61Z4z8ba9b45cuWmYg7K8jatk0XUo2NtetTzEaYKLvrgbOB5cAK4GxV/XWJ61V2Vq3yTQV9+xoNyYaC//KX/n6lEEiDB5ttv37wk5+Y9336GP9SIUENmR1dz57mgQh2lltumf8chxyS/3unITVl2rTs0Yfjx5v/84UX0str1WRnO9alS42faPNmYxKH4jvzMzWPN980VgzrC66vj64h9eyZvTwYEm6FqBUwlp//HP7976bHfvYZ7Lij/7lVq/Q5jc1NpK41wuSyGwAsAZ7wXku9spqlsdGEZFoNqW9f03E/8wzstBNcdZVxRLdu7QukTp2iXyfX/IsttjDbI480E3PHjvXNeXE1pPp6ePBB8/7oo+FnPzMCbsWK9Ie3X7/sx7drZ7Z//auxex9zTPb9Pv3UJacMogpDh/qTqIPcfrvZjhlj/CmWWtWQ7H29bBm8+655H7zfgh1zoWQKpHHjjPnP/g9Llxqf0NZbN3+uH//YbDdsyL8fmIHH6tXhBxXr1qX/7uXLjc86WO+gia/WCeND+i/wtPf6HzAbqOkmsh1C0GQHZiR75JHm/dCh5gGzanghGpLViMCMFEeONMLD5js75BDYfXfzPm6U3SWX+OHeN94I11/vj/jmzTN28eeey90p/OQnpr6DB0P//k1/7/HHG+E5ZYpxGjsM+SLGrMYNRhv/2tfM+1oXSAsWwL77mvdWQ4L056BQMv2lq1cbgdSpk9FCfv5zEwl3/PHNz3kaNQrOPz9cjjvV3FNEchHMyJCpSR97LHz5y9HOl4sNG0z/UslRnGFMdruq6m7eaydgFPBqc8dVM7ZDsCY7K5AgfUZ38GGKM7HNCiR7Q553nhnBiZhJfdmEXFwNKXijW0FrBdK0aUYLtGmSrDYUZNCg9M92kq6lTx9/9JlpP2/J5OvE5s83UY1g/tfHH4fjjqtdk52936x/FNIj6HbYoXjXypYbskcP82wFtdGttkoPUrj5ZhNlGqR3b+jSJfy1o2baCBO4ceyx6fWMw5NPwjnnwC9+4Zc991z653ITeT0kVX0b2LsEdakYMjWkQw81I6qnnzYmO8u22/rv4wgJK5CGDm16vlzEFUhB31CmQJo3z+Tms3zyicmb97OfTftC6A4fnn6+TGHZo4fJbNy7d8tywjZHc6Pq7343fb9u3WpXQ8pm1u7c2X9fTIEU1JDsvWs7/mwRsfbaAwY0nZTbq1dTgTRihBk03nnnRA4/PP27qGmGwoS1/+c/hU0xAX8QedNNJovEhg3GfH/ddZUTjNRs15GRlaEVsCfweclqVAHY0ZXtuLt0gWuvbbpfMCItjhpsfS2jRxvtJPPGzkYxBJIdIQYn4R5wgP/eaoRHHLGI667bhQ8/bJqDLVMg2c9t21a2SSBp8gmk/v1h113Ne6sVdelS3OUPKonNm41GGJw0GkYgbdoUfcmVoIZ06KFmnpMtC5pRrSn8jTfg+edNB50ZWZpNQ+rUyZjVU6k1jBmTfszYseYZWr/eCMZWrfxnfbfdmoaE237GImLC0k88MdJPbhbbb2zcaLJIBDWuV181Wli5CaMhdQ282mN8SscV4+IicreILLaL/3llPUVkjIjM9LZbBL67QkRmich0ETkqUD5SRKZ4390sYm4PEWkvIo965W+KyMAw9bKzurfYIv9+QY0mTidsNSQR8yCEMfvFjbILLupnNZhg1NCBB2Y/TiR7QtBMk50ddTqBlE4+4TJ4sG/2tZ1khw7FyVRQiag2jeIMmodzZbeOcz8F5/JcdRXsuaefWcG27623GhMpGKHzzW+a+mQ+hz17NhVIuQTk2WfDXnsZs53VCO2zcd115pVJt24wYYJZlRnMsxo0KxaLzKCMYJbz114r/vXiEEYgfaCqv/Re16vqg0COGKvI3AOMzii7HPif56/6n/cZERmKWRhwmHfMrSJib4vbgPOAnbyXPec5wHJV3RH4I3BjmEq9/bYZ1eTKzGxpFWi9QgVSWOJqSNmEXVAg5Yquy0VmyLoTSNmxAumpp0wH8MADvja5007pfkgwAqlWQ31Vm97rwWcol+kqTHRbJps3m8wmc+YYS8Bbb/n+XyuQMs3QQUaMMAEPY8aYeztTILXK6Dn32ccMKu++26TWsnknwRe6/ftn9xd1725M5nYF55494020b47MdgzmUMy2/E05CGPtv4KmqYKylUVGVV/OorUcB9R57+8FUsBPvfJHVLUB+FhEZgGjRGQO0E1VxwOIyH3A8ZhIwOOAa7xz/RO4RURENX9yjkmTTJaG5kK5DzvMbIcOjTf/Jq5AihNll+0X9+xpoudOPTX6+TKFohNI2bECadttzeub3zRTCs47zywtYkfCJ5xgth06mI5j8+amnV61o2p+0wsvmICO9u1NCp+zzzadeC6tIO5gr2vX7FqXfRaCVoNMgslYoXkN6Y03mp7D7mP/x+7dm5rnwC+ziVwPO6ypBaIY2HZ87DEz1yk4QbeQ/JjFJKdAEpGjgS8D24hIIDk73SjtirF9VXUhgKouFBGr5G8DBP/2eV7ZRu99Zrk9Zq53rkYRWQn0wsyrysmkSbnn2QQZOdJ0HBddBP+IIZ6tXTlKxxNXQ8o2N0jEhIDHwdbhxz82KfTPOMN8dgIpHSuQgh3at79t7PfWZ7h8ue9LsR1RQ0O8qQSVzObN5v444oj0cjspNtd9HUdDyqaNZZJPIGWSKZDC+Fu22spoaFYAduvm/89BX6HVko891gQcXHZZcSMtH3rIaHy2He19lSmQrrrKTA15443ihuBHIZ+GtACYBBwLBBfyXg1cWspK5SDb7aV5yvMdk35ikfMwJj969+7LkiXQrt1HpFLhJhQsWrQj69ZtRSoVLRp+8uTuwAjefXcyrVuvCHXMmjV7sH69kkq9G+laM2f2B3bkN795j1QqXEhNfX09qRwxrHPm7ARsw/r1M/nBD+bzzjumfP36kXz22QZSqSlZj6tW8rVFPt5+ux8wmPfee5158/yetW3b9KzPlrlztwF24sUXX6Vr11KO++ITty1WrBhB+/ab8967Z5wxkP32W8qFF46kU6dG1q5tw8svj6dv32iOtY0b92fBgkWkUrOafCdyMKrCu++mQg8GP/igG7Angwev5je/eY8ePTaSSuVvix/9qB0vv9ybp5/ux4oVXZg5cxKrVjUA+3PwwQvo2XMDBxywhIkTfUfj2LEmmu7TTzsC+zQ5Z5x2/+Y36wD4/vdnAjsxffpkYA8+/vhzzDJ3MH/+Z9xzj4lmevjhqRx8cJni1lQ17wto09w+hbwwiVrfD3yeDmztvd8amO69vwK4IrDf88B+3j4fBspPBW4P7mN/B0Yzknz12W67nRVUH3tMQ3PZZaqdOoXf3zJunCqojh0b/phDDlE98MDo17rpJnOt5cvDHzNu3Lic3513njnfrbeml48apXrUUdHrV+nka4t8/O53pp1WrQq3/+23m/0XLIh1uUSI2xb77ad6+OHh97/vPtMWM2dGv1b37qoXX5z9u7ffVv2//4t2PvusHntsZvm4Zo8dNswc+9575vO0aaoNDfmPmTPHHJP5amyMVm9V/9jf/95sX3vNbI86ymzbtlU97TR/v7/+Nfo1zHWYpAXKg3wL9Nl0h++IyHuZr2IJxCw8BZzlvT8LeDJQfooXOTcIE7wwQY15b7WI7OtF152ZcYw910nAWK/hcrJxo2mSKJPQ4pqp4viQ4kbZxblWPmxARGYkojPZpWPNMmFTS1mTXS0GNoQxowWxwQBxn61c1xoxAi6+ONr5DjwQfvpTuPPO6HWxkXx28cudd84++TxILh9SHPNl5rH2XrQmu06d/AUCoXirYMchn8nO5iT4aqkuLiIPYwIYeovIPOBq4DfAYyJyDvApcDKAqk71hOQHGB/WRapqXXEXYCL2OmKCGWxqo7uA+70AiGWYKL28FCKQoj5wVkhE9SEVEtRQLEf5VVcZ23cwESQ4gZRJfb154MPOo6l1gRTl/rORoaXyIUWhdev4KbF+9Suz8GBziYuD5IqyK8S3aJ/LTB9S586mTxEx7VaRAkn9wIIC5wfnRlVzxXcdlmP/64Hrs5RPApoEcarqejyBFpbGRqFTJzMvISz2wdm0KVqWAhtokETYd5xr5aNjx/QUMJa2bWuzM41LfX20tDO1LJCCo/AwlEpDSprWrdPTj4Uhl9ApRENassQMCGy7BjUkG9kJFSqQRGQ16QEAgh9EoKqaJYCx+lm3rjXDhkW7ma1A2rgxmkBKch5SsU12uXAaUjr19enZCJrDjoxrUSBFFRKFakjVHDafS0MqRCB99JERRlZbtwKpY8f0icQVKZBUtQRzhSuf9etbR06hERRIUdRpJ5Bqn8bGaIl3a1lDStKHFFUbqxYKEUiLF5t70Q6a16wxgi9zldqKFEhBRGRP4ACMhvSqqr5T0lqVGbsMQFjsHxxVUMT1IRUikEo9anQCKZ2oI/VaF0jV6kMqB336+JNlLYUIpLVrjZAPCqSOHY3GVCkCKcwCfVdhMib0AnoD94jIz0tdsXKx/fZr8qYUyUZQQ4pCHL9O3Ci7YvuQcuEEUjpRR+q1LJBaqg8pLplppaCwPIfr1qWb7DZuNPdbUCC1aVPhAgkzr2dvVb1aVa8G9gW+WdpqlY82bTZHvpHjCqRypA4q9UMaV4OrVZyG5JO0D6naBdLllzctK1RDCprswJjsWrf277du3cqb3DfMozIHCEbFtwc+KkltqpSkBZLzIVUPTkPySdqHVM1BDWDWF7vttvSyqAIpOOvSmuyCUxAyNaTOncs7oAzjQ2oAporIGIwP6QjgVZvfTlUjTjGrPQoVSEn6kJxAShanIfk4H1J0MqN2o7ZFMIdlLg2pVStfIHXqVPkC6QnvZUmVpirVS5I+JBfUUF04DcnH+ZCiU6hACmpImzalBzVAUw3JCqRytV+zAklV702iItVMNZjsXFBDeXAako/zIUUnUyBF9e9kZvnPNNll+pBsWqHNm6Ov0lsMwkTZfVVE3hGRZSKySkRWi8iqJCpXLSQpkColl10unEBKJ65W4ARS/OfKXqvafUhQXA0JTJuK+G1jNSSLFUjlMtuFMdn9CTgBmNJcYtKWStI+pGIt0FcKnEBKJ2rHKFK7q8ZGbQsrnON2wrWgIWVqKYUKJNumbdqYc7Vvn95OQYFUilVrmyPM7TEXszyEE0Y5qBYfUhIPaNu25ndlWxCwJRInY0D79ukTFWuFqG2RpOWhUilmUAP4bWoFXS4NqVyDyjAa0k+AZ0TkJUzEHQCqelPJalVlFJqpIY5AipNZPAkTRrATKccIq9KI0+6tW9emQI8b9t2SNaRCfUj5NCQwz2hwn2ow2V0P1GPmIjWzikfLxHY4UXXIuAIJojsdk8rtFRTOTiDF00ztMgC1RtS2sPeS05B8SqEhBdvXJgKuZIHUU1WPLHlNqhh740cd1cbxIdkbqbExmkBK0mQHzo9kiTMQaNWqdgVSVH9a27bxO2EX1BBOQ1q71v++3BpSmL/sRRFxAikPtsOJ2onE9SFBPPOgE0jJE8dkJ1KbJrs4wrl16+hBPE5D8mlOIGX6kMqtIYV5VC4CnhORdS7sOztJmuzsteJoY04gJU+cTtiZ7HzitIUTSD5hTHbBAVO5NaQwE2Nb5LpIUSjUZBflwSlEG0s6qMERX0NyAsngBFL657htYclmsqukeUiRHhUR2UFErhSR90tVoWokrpCI40Mq5FpOQ0oe50PyiSOc47RFUmmykqBQgRQ37LtiBZKIbC0il4rIBGAqRqs6teQ1qyKS9CEVYh50Ail5nA/JJ675MmpbJJUmKwmCAilOW9SMhiQi3xGRscBLmMX5zgUWquovVXVKUhWsBgrx60A8k53zIVUHzofk40x20QkKpDjaYmY/0bFj+nmDGpKIP1WjEn1IfwHGA6ep6iQAEanBx6RwCjXZJeFDSnpirFukz+B8SD5xBFIhJrtaEEhB7aUYGpJN3mvPG9SQ2rUr/4Ayn0DqB5wM3CQifYHHgLaJ1KrKqAYfUtITY52GZHA+JJ+4GlISlodKJVNDKlQgWQ0om4YUXJqi4kx2qrpEVW9T1YOAw4CVwGIRmSYiv06shlVAXL9OLfqQ7M0dJwFsLeJ8SD5xIj0LMdnVWlBDMUx2zWlIFSuQgqjqPFX9vaqOBI4nkNPOUZ6w70r1IcXV4GoV50PyScqH5IIafHKZ7HJpSOU2uYdJHZSGqk4HflmCulQt1eJDSuIBjavB1SrOh+TjfEjRKZWGFIyys/dn+/Z++SefRK9rMagBpbb8FJqpIal5SEmYMOJqcLWK8yH5OB9SdIqtIVkfUrZ5SEGT3Xe+A48/Hr2+heIEUhGI2wnHMS1UelCDM9ml43xIPklpi86H5NOcyS6XDwlg0qRo1yoGof4yEdlGRL4kIgfZV6krJiJzRGSKiEwWERt23lNExojITG+7RWD/K0RklohMF5GjAuUjvfPMEpGbRYrfLSdpsqv0oAYnkNJxy0/4JKUtOh+ST3NBDbk0JCjP8jHN+pBE5EbgG8AHgI2dUuDlEtbLcoiqLgl8vhz4n6r+RkQu9z7/VESGAqcAwzDh6i+KyGBV3QTcBpwHvAE8A4wGni1mJZNMrlrpQQ3Oh5ROUpFl1YAz2UWn2BpSZth3Pg2pIgUSJqpuiKpWQmTdcUCd9/5eIAX81Ct/xKvjxyIyCxglInOAbqo6HkBE7sP8nqIKpCTXQ6r0oAbnQ0onKUd+NeAyNUTHCouOHYurITU3Dym4b5KEEUizMRNikxZICrzgZYe4XVXvAPqq6kIAVV0oIlt6+26D0YAs87yyjd77zPI0ROQ8jBZFnz59SKVSkSo6b15HYB8++GAaqdSi0MdNn74NsBOvv/4aPXqEm0k6ffpWwM68/vp4Zs8O/5csWDCYxsZepFLjQx9TX18fuS3ee687MILJk9+ldevlkY6tZOK0BcDq1XuzdOlaUqmpoY9Zu3ZvFi2KdkySxG2LxsYDWLBgIanUR6GP2bBhXxYsWE4qNT30MUuWtAO+xIwZ00mlFkauZxTitkVYVOH00wdx8MGL+dGPdmfu3M9JpWaGPn7uXNM3WaZMmci6dWtYvnwY0IdJk17jk0+2AnZgzZplTJw4HdgPgE8/nUEqtaCov6c5wgiktcBkEfkfAaGkqheXrFaG/VV1gSd0xojIh3n2zTYW0jzl6QVG2N0BMGTIEK2rq4tU0Y+852vnnXehrm6X0MdN8TICHnDA/vTuHe6YOXPMdt9992PgwNCX4v77jQoe5belUqlI+4M/wtptt92JeGhFE6ctwCSr3HLLzpGO7dIFeveOdkySxG0LEdh2222pq9s29DEdO8JWW21NXd3WoY+ZP99sd9llCHV1Q6JWMxJx2yIKhxwCsB1XXgn9+m1DXV2TMXVOpmfI8QMP3JshQ2Crrcznww7bn9mzzfu+fXty4IH7fbHvrrsOpq5ucGGVj0gYgfSU90oUVV3gbReLyBPAKGCRiGztaUdbA4u93ecBwbu8P7DAK++fpbyouImxPnETzdYqbmKsT1I+pFoKaghSDJNdZth3Ph9SOUx2zXovVPVe4GHgLe/1kFdWMkSks4h0te+BI4H3MYLxLG+3s4AnvfdPAaeISHsRGQTsBEzwzHurRWRfL7ruzMAxRayv2Vb6PCQXZZc8bmKsj/MhFUapwr7t/RnM1GA/J02YKLs6TADBHIwJbFsROUtVSxll1xd4wovQboMRgs+JyETgMRE5B/gUk/wVVZ0qIo9hIgEbgYu8CDuAC4B7gI6YYIaiBjRAsushVcvE2FrsUOMQN9S5FjXMpBfoqzWBVOyghnbtzDlzaUjleIbDmOz+ABzppQxCRAZjNKaRpaqUqs4Gds9SvhST6DXbMdcD12cpnwQML3Ydg5Qj7LtSJ8a6sO90nIbkk9QCfbU0MTZIMcO+W7duOiepEgRSmL+srRVGAKo6A7cMRRpJ+pAKWQzQhX0nj/Mh+bjkqoVRzNRB3btDz57mfdCfFBRI5XiGwwikSSJyl4jUea87Mb4kh4fzIfk4k106TkPycT6kwihGclV7L155JTz/vHlfSRpSGJPdBcBFwMUYH9LLwK2lrFS1keR6SE4gVRcuuaqP8yEVRjE0JEvPnk01pHbt0v+fcmhIzQokL/vBTd7LkYVyhH1XalCD8yGl45Kr+iTtQ6o1gRQn2CXM/kGBFKSiNCQReUxVvy4iU8g+mXS3ktasiqiG5KpJZ/uuxQ41Di65qk/SJjsX1ODvP3p07nlFuQRSpWlIP/C2X02iItVMOdZDqvSghlrsUOPgkqv6uKCGwigk7Pt734OvfCX7PpWkIeV8VGzOOOBCVf0k+AIuTKZ61UFcIVGLPiRnskvHJVc1xNVa4pipatlkVworTFUIpABHZCk7utgVqWaSNNlVukByJrt04mpItdZ+cYWEi7LzKdWcrGCmhiAVZbITkQswmtD2IvJe4KuuwGulrlg1keTE2EKu5TI1JI/zIRnKIZCcDymcFaaSNKR8PqSHMGl2bsAshGdZrarLSlqrKqPQKLskfEhuCfPy4HxIhrgCqaWvGBukVBpSpkB6/HE44YQK05BUdSWwEjgVwFsGogPQRUS6qOqnyVSx8qmWXHbOh5Q8zodkiKu1uLBvn6Q0pFGjzLYifUgicoyIzAQ+Bl7CJFkteoLSasb5kHycDykd50MyxNVanA/Jp1TCOVMglfMZDvOoXAfsC8xQ1UGY5KbOhxSgUB9SFKpFINXaCD8uzodkcEENhVNIxGEYk53Nc1dOK0cYgbTRy7LdSkRaqeo4YI/SVqu6KMSHFCcM1h4bhTgj9Tg4gZSO8yEZCvEhuWzfhqRMduXUkMLkslshIl0wOeweFJHFmDWHHB5JLglR6RNj3Yqx6TgfkiFJDckFNfiEEc7bbw/9+sGOO/rXCR6bJGEE0nHAeuBS4JtAd+BXpaxUtVGIyS6uQHImu+ogqfxtlY79PUloi7VssiuFcB4wAObPT78OVKhAUtU1gY/3lrAuVUuSWosTSNVF3OSqtdZ+SYZ916pASirisCJNdiKymvSkquJ9FkBVtVuJ61Y1JJmBu9Inxrqw73TcAn2GQkx2LuzbUIhwjvLsV6SGpKpdk6xINZNkBu5qmRhbayanuMQddDiB5O8f10xVa0ENhSRXrRYNKdRfJiIHiMjZ3vveIjKotNWqLpzJzseZ7NKJ+x/XmkAvZGKsM9kZWoKGFGZi7NXAT4ErvKJ2wAOlrFS1kaSQcAKpunBh34a4kW/Oh+RTyAJ9taQhfQ04FlgDoKoLMAlWHR5J+nUqXSC5sO903MRYg/MhFU5SbVHRGhKwQVUVL8BBRDqXtkrVR5J+nUoPanAaUjpxNCTnQ/Jx2b59Cgn7TiKBczEIU83HROR2oIeIfAd4EbiztNWqTpI02VV6UEOtdahxcT4kQ1wh4bJ9+7QEDSnvPCQREeBRYGdgFTAEuEpVxyRQt6oi7kiu1nxILuw7HTcPyVBIclVnsjMkFdRQkfOQwEw2EpF/q+pIwAmhPMTNuVVrPiQX9u2TpJmq0nHJVQsn6bDvSvUhvSEie5e8JlVO3PkSSfqQnMkuWeLOh3E+JB8nkHxc2LfhEGC8iHwkIu+JyJSMJc0rHhEZLSLTRWSWiFze/BFxrlHZPiQX1JA8SUaWVTrl8CHVWlBDS5gYG8aHdD7wSTLVKT4i0hr4C3AEMA+YKCJPqeoHxbxO3NFLUj6kpIIanA/JJ8mEopWO8yEVTlJzsio2qMHzIf3R8yFVK6OAWao6G0BEHsFkMC+qQIr74DgfUu3ifEg+zmRXOEmtDVWxGpLHGyKyt6pOLHltSsM2wNzA53nAPsEdROQ84DyAPn36kEqlIl9E9UA+/XQ+qdTs0MfMmzeYjRt7k0q9HvqYadO6AiN599336NRpWejjVq4cwcaNm0ilwltb6+vrI7dFfX1r4EBmzpxFKjUv0rGVTJy2aGhoBRzEnDkfkUrNbXZ/y+efD2XNmi6kUhOiVTIh4rTFokXtgf2YPv1DUqnPQh+3fPmurFrVjlTqrdDHTJ68BbA777zzNo2NqyLVMypx2iIuy5YNZ9Wq9pHa4v33twSGMnHiBBYtWhv6OJGD+fjjT0il5kSvaAGEEUiHAOeLyBxMtgab7Xu3UlasiGQbJ6WNuVT1DuAOgCFDhmhdXV3ki7RpA/37D6CubkDoYx56yCwbHOV6XbqY7fDhuxGlml27Qo8e0a6VSqUi7Q+werXZ7rDDjtTV7Rjp2EomTlus9Z7/HXbYgbq6HUIfd/vtZn2aOPdhEsRpi088o//QoTtTV7dz6ON694aGhmht0dBgtnvttSf77RehkjGI0xZx6dMH1q2L1hYLFpjtvvuOYvDg8NcSgQEDBlJXNzBSHQsljEA6uuS1KC3zgG0Dn/sDC4p9kbgmu1rzITmTnY8z2fkU4kNyE2MNSQU1QPkiPZu1LKrqJ0AP4Bjv1cMrqxYmAjuJyCARaQecAjxV7IvEtXXXqg+p1jrUOLigBh/nQyqcJBPNlivSM0y27x8ADwJbeq8HROT7pa5YsVDVRuB7wPPANOAxVZ1a7OvEDU+ttUwNTiD5OA3JJ25buGzfPoVEHFbLoCiMye4cYB+7lLmI3AiMB/5cyooVE1V9BnimlNdIymRX6RNjXdi3j5sY61NIx+jCvg1J5vWLE9FXDMLcHgJsCnzeRPZAgRaNmxhrcD4kn2ozl5SScviQ3MTY2tSQ/g68KSJPeJ+PB+4qWY2qlEr3Ibls38njfEg+zmRXOElrSBUpkFT1JhFJAQdgNKOzVfWdUles2oi7mqPzIdUuzofkk6S2WMsCKam2KJeWnlMgeQlVe6vqs6r6NvC2V36siLRS1fCzs1oASZnsqsWHVGsmpzg4H5JPkqajWhVISZrsKjHs+3eYqLRMPvC+cwSoBh+S05CSpdpGp6UkSR9S3E640knSZFeJYd+9VHVOZqGqzgJ6laxGVUpcW3eS85Bctu9kcT4knyR9SG5irE8taUgd83zXudgVqXbizqKu1UwNtdahxsH5kHycD6lwWrqG9KKIXO8tQfEFIvJLYGxpq1V9JG2yq1QfEtSmySkOzofk4zI1FE5L0JDyRdldBvwNmCUik72y3YFJwLklrlfVkdR6SJUe1AC1OcKPg/Mh+SRpvqxVgdQSNKScAsnLzHCqiGwPDPOKp9p1hRzpxB29xPUhVWpQAziBZHE+JJ9CfEhJaQWVTpLmy4qdGOsJICeEmiHujPIkTXZJPaDlSjtSaVRbZ1BKkmyLWg1qKGSScLWY7GpsDFE+3BLmPrXYocah2jqDUuJ8SIUTd/I9VI/JzgmkIuGSq/o4gWSots6glCQpnGtVIJUjqGHePHjhhWjHFkKY5SfuD1PW0nETY31qcYQfh2pLbFlKkhTOtepDKkdQw4gRcNRR0Y4thDB/2bDgBxFpDYwsTXWql7g3S61NjIXaHOHHIcnsBJWO8yEVTpJBDbY/W7Ik2nGFkrOLEpErRGQ1sJuIrBKR1d7nxcCTidWwSkjKZOd8SNVDktkJKh3nQyqcJIMaMvuzxsZox8clZzVV9QZV7Qr8TlW7qWpX79VLVa9IpnrVg5sY6+MEkqGQsO9a0zAL8WW4TA2GuNlg7LFRyBR+DQ3Rjo9LmPWQfiYiJ2CWn1DgFVX9d0lrVYW4bN8+tTjCj4ML+/YpR3LVWhNIrVrBypUwdSoMG9b8/lA8DamhATonkDAuTDX/ApwPTAHeB84Xkb+UtFZVSNI+pEoOaqjFEX4c3MRYn3KY7GotqMG23fDh4Y8ptYa0aBG8+GK0c+cjjIZ0MDBc1VRPRO7FCCdHgEr3ISUd1FBrHWocnA/Jx2X7Lpw4z2+x0ldt2JB9v4MOghkzine/hvmJ04EBgc/bAu8V5/K1Q6X7kFxQQ/I4H5JPsUxHUa7lBFLhUw/aeCpLLg1pxgyz3bQpet2yEUZD6gVME5EJ3ue9gfEi8hSAqh5bnKpUNy65qo9LHWRwPiQf50MqnDi/p1CTXZs2JsKuuaCGYkXhhRFIVxXnUrVN3AiYWvUh1VqHGgfnQ/JxPqTCKYfJrnVr87liBJKqvgQgIt2C+6vqsuJUoTaodJOdE0jJ43xIPs6HVDjl0pAgtw/JkphAEpHzgGuBdcBmQDDh39sXpwq1QaUnV00623etdahxSNJvUuk4H1LhxNWQ4rSDbffmfEiWJE12PwaGqWrCSSSqi0qPsks6qKHWOtQ4uNRBPs6HVDjB37Npk29Oy0cctwA01ZCSEkhhqvoRsLY4l6td4j44cWaug/MhVQOFaAW1RpImu1oVSMH7qDkTmqVQDSlpH1KYR+UK4HURuV1Ebrav4ly+KSJyjYjMF5HJ3uvLge+uEJFZIjJdRI4KlI8UkSnedzeLmL9ARNqLyKNe+ZsiMrBU9Y5r63Y+pNqlEK0AaqsNizUfJsq1ai2oIdh2UQRSMTWkOXPgX/9qun+SAul2YCzwBvBW4FVK/qiqe3ivZwBEZChwCib7+GjgVi/zOMBtwHnATt5rtFd+DrBcVXcE/gjcWKoKV7rJzoV9J08h+dugttqw0PkwUajVoIZg24XNLRfXVJ/pQ7IC8I474NRTm+6/cWP0a2QjjA+pUVV/WJzLFcRxwCOq2gB8LCKzgFEiMgfopqrjAUTkPuB44FnvmGu84/8J3CIiYrNOFJNKj7KLa0uOg9OQDE5D8nE+pMLJZrKbPNmk78m1ZlFcDSnXxNj1643w2bgR2rb1908yqGGcF2n3H+ALuVzisO/viciZwCTgMlVdDmyD0dIs87yyjd77zHK87Vyvvo0ishIz0TctQMP7fecB9OnTh1QqFbnCq1ePYNOmTaRS4ZNYrFgxgg4doh3T0NAKOIiPPvqIVGpu6OMaGw9g3ryFpFIfhT6mvr4+Vlts2LAvCxeuIJX6MPKxlUqctnjvve7ACN57bzJt2qwIfdycOdsBg0ilXqJNm8qTSnHa4t13ewK78fbbb7Fu3erQx82dO4jNm7cllXo59DEzZ/YHduTVV1+hS5cipRDIQdxnJA5z5gzABje/9NIbbLPNeg45pA6AceOa1uFf/9qG117rjWo3UqlXIl1rzZo9WbJkIw0NHYDOTJkyg1RqAXPm7Aj05/nnbdua648fPzHej8ogjEA6zdsGl5woKOxbRF4Etsry1ZUY89u13jWuBf4AfBsTbp6J5imnme/8AtU7gDsAhgwZonV1dfl/QBZ69ICOHSHKsV27mleUY9avN9uBA3egrm6H0Me1agUDBmxLXd22oY9JpVKR6mbp2BH69t2Kurpsf3F1Eqct7Ah9xIg9iHLoa6+Z7UEHHUy7dpEumQhx2qK+3mz32mske+8d/rgxY8xIPcr13vIcCgcffCBdu4a/VhziPiNxGD/ef7/nnvuyyy7+52x1OOQQs+3cOVr7AXTrBltsAevWmc/bbTeYurrBPPqo+Txy5IFsvbW//4gREf7UPISZGDuoKFdKP+fhYfYTkTuBp72P8zB59Cz9gQVeef8s5cFj5olIG6A7UBLNrtJNdi7bd/IU6kOqJZOd8yEVTpygBihOUIO9njXNrc2Iu04sqEFE2orIxSLyT+/1PRFp29xxcRGRgNzla5glLwCeAk7xIucGYYIXJqjqQmC1iOzrRdedib+i7VPAWd77k4CxpfAfmXpXvkByPqRkKdSHVEtCvVjLIIShJfiQoiyYV8yJsTZ4oVQCKYzJ7jagLXCr9/kMr+zc4lShCb8VkT0wprU5wHcBVHWqiDwGfAA0AhepqjUQXwDcA3TEBDM865XfBdzvBUAsw0TplYS4D05So2eX7Tt5Cgl1Dh5fC5Qjl12tCaQwGtKKFbBmDWnmtEI0JIsVSFbwWFOeJUmBtLeq7h74PFZE3i3O5Zuiqmfk+e564Pos5ZOAJstWqep64OSiVjAHcZOrJjV6dmHfyVNIclVwAim4f5T7tyUIpFwa0pAhsHhx+veFaEh2WYmkNKQwj8omEfnCey4i2wOlDV2pQqrBZOc0pGQpJDtB8PhaIEltsVYnxgbbIJeGtHix2QYFRJzn3mpImQIplw8pyXlIP8KEfs/GRK1tB5xdnMvXDq1aRR8lOIFU2xSqIdWSlhm3LeII51oNaggugpcpkDKf72BfFHceUlBDstcrqw/Jy4SwOyaAYAhGIH3oTU51BIibqSEpc44Lakge50PyKbQtgnnVSnWtSicokDJNdhs3kjZFoBgaUmNjeA0pEZOdFzRwrKo2qOp7qvquE0bZiRueGte+W8lBDc6HZCg0uaoTSIWZ7GpZIGVqSJkms2JrSPb8dlvOoIbXReQW4FFgjS1U1beLU4XaIKn1kCC5vHlxcRqSoZBQZ6itNkzSn1arAinY6WfTkHLtW8igtzmTnd0vSYH0JW/7q0CZAocWpwq1QZJCIm6H7wRSshSqIdWSlplkW8T1V1U6+TSkfBpTMYIakpoYG0YgnewW52ueuFF2hSQ+jHIde1wSuBVjDS65qk+SbdESNKTmTHY2xRiUxmSXuA9JRI4Rkc+B90Rknoh8Kde+jmT9OlE7/KTDYF3qIIPzIfmUw4dUazQX1BAkKDAKmRibS0MqlQ8pX1WvBw5U1X7AicANxblkbRLHkZ+UDynpMFhnsjPYh9n5kJL3IdWadgTRghqCAqltjERv5Qr7zieQGlX1QwBVfRMocd7c6iapibFxrpW0CcMJJIN9iDt0iHZcLfqQbEcWtXOM0xZJTnFIknwaUqaACmowcTLGZ2pI9v/L9CHZ/yeJibFbisgPc31W1ZuKU4XawAkkHxf2bbB2/Pbtox1XiyY724F16hTtuDhtkeQUhyQJaiGZAiCfhhRHIFXixNg7SdeKMj87AsRx5Dc2xlenK92HVEudaVzsKNYJpPgCyZnsfIIa0saN6W1SbJNdVA2p5AJJVX9ZnEu0DOI48jdsiK9OOx9S5WM1pKgmu1r0IdkOrGPHaMfFNdnVukDasCFdCGUKpEJNds1pSOUIanBEIE4nHFcgVYPJrpY607gUqiHVktlz3TrTDmHT/1jiRtnVukDauDFdCGX6kAo12dln2N6DFbNAnyMccTrhWhVILuzb4HxIPmvXRjfXQXwfUq0HNWzcmC6ESu1DyjUPqdgmuxr828pDkia7ahBItdSZxqWhwdjv3Twk04FFNdeB8yEFyZwYG9ZkV4ifurlMDbbPS3IJ874icpeIPOt9Hioi5xTn8rVDkia7apgYW0udaVzWr4/uP4La9SEVoiE5H1LzJrvg98Uy2eXTkDZvLoNAwiwN/jzQz/s8A7ikOJevHaIKic2bzZ9YiDod5Vr2uCRwYd+Ghobo5jqoTR9Skia7WhVIW23lv8+mIQVNeMUIasg2ETeYqSFTQBaDMAKpt6o+BmwGUNVG3IqxTYgqJOwf6Ex2tUtcDalWTXZJCqRa9CH95jdw//0wYkR2H1IugRQ37DtTA1NN15CCWlGSGtIaEemFyfCNiOwLrCzO5WuHqJ2wvXmSEEh2JONMdslSqIZUS224bl08gWTv2agWgVrUkDp2hNNPN31GNg0p+LkYQQ1WyLRta85t+xH7OZjANcls3z8EngJ2EJHXgD7AScW5fO0Q1WSXpECyo6U4HUIcnEAyVJoPac4ccw9suWVxzxuGtWuhe/foxzmTXVOsQMjUYIIaUjF8SPb8HTua97Yf6d4dliyB1av9/RMTSKr6togcjL+E+XRVLZLFsHaIarIrRCBF9dHYm7Nz5+jXikOmut9SqTQf0qBBZluOwYLzIRWPXBpSsX1IVsh06ACrVvn9SLdupRNIYaLsTgY6qupU4HjgURHZsziXrx0q2WQXN21LXJyGZFi/vjQmu7vugtdfj1+vchBXIMXRFhsboU0Y20+V0rZtNJNdoT4kG64fFEhghJQlSR/SL1R1tYgcABwF3AvcVpzL1w5OIPk4gWRoaChNUMO558L++xdWr6Q12CTDvtesSc4aUA7atYsW1FCohlRpAslG1H0FuE1VnwRi/MTappJ9SEkLJBf2bYirIZV6HlKHDrDrrqU5dy7iBjXEMdnVukDKpiHl8yHF0RYzTXYAn39uttYXGDTZJRn2PV9Ebge+DjwjIu1DHteiSNqHVMkCyWlIhkI1pGz3U7BdZ8zwO4moTJ8e77g4qMbP1OAEUlPatoWpU+GBB/yyjRvh73/3P0+d6r+Puyp1psnukEPMNpuGlJlsNS5hBMvXMRNjR6vqCqAn8OPiXL52iGuyK2Q1x7CsWWO2TiAlSyl8SMGR6BFHwFVXhTtnuf6Pe+6Bjz4y108q7LvWBZIdxN53n1+2bh38+c/Z948z3SPYx2QOqqxACmpI9fXRr5GNZquqqmtV9XFgpYgMANoCHxZyURE5WUSmishmEdkr47srRGSWiEwXkaMC5SNFZIr33c0i5rEVkfYi8qhX/qaIDAwcc5aIzPReZxVS5+aoBpNdUg+pE0iGUviQgiPRTz+FxYvDnTMzG3Qcjj0Wjj8+/P5LlsDZZ8NBB5nPW2wR/ZpOQ2pKcBC7446mXd9/P/f+cQRS8JhMzbZ3b7MN3nuJCSQROVZEZgIfAy9522cLvO77wAnAyxnXGgqcAgwDRgO3iohNWH8bcB6wk/ca7ZWfAyxX1R2BPwI3eufqCVwN7AOMAq4WkRiPRDiSNNk5H1J1UAoNKTPtf3CUmo9imFT+8x948snw+1tz4sKFZtuzZ/RrOoHUFNtnHHYYzJwJBxwAb7yRe/+4GpIll4Y0bZrZtm4d/j5sjjBVvRbYF5ihqoOAw4HXCrmoqk5T1WxW7OOAR1S1QVU/BmYBo0Rka6Cbqo5XVQXuw4Sg22Pu9d7/EzjM056OAsao6jJVXQ6MwRdiRSeMkPjkE7PfhAm1LZDy1e/vf4e33kqmHpY334TTTkvPvZUEcTWkfEENmYIlbEcQnFVvieuI/sUvhnH22fn3WbbMF0SWOBpS1ACPNWtg5craFkhWQ+rSxWyHDoWlS3PvH8eHFLzPMu/hlSuhf3/zXAFst12CGhKwUVWXAq1EpJWqjgP2KM7lm7ANMDfweZ5Xto33PrM87Rgvz95KoFeec5WEMCa7558329tvL8/E2DidYxxyCaTNm+Hb34a99mr6XVRWrgw/6j/uOHj4YRg7Fi65JH/bXXQRnFOkXParVxd/YmymhmQdy08/DSefnH7MunXmtyxYkF0gLV8evk6ffea/f/XVPtxzj//53/+GAQPghRdg0SLj1+rVy6S5CVKIhhT2fu/SxdShpQkky/nnwxVXpO8fR0MKBssETXYnnwyXXmpMhQsWmLJBg4onkMIEBK4QkS4Y89qDIrIYaDbqXEReBLbK8tWVXuh41sOylGme8rjHpF9U5DyMOZA+ffqQSqVyVC83CxbsRENDH1Kp9BmLGza0ol078zTNmLE1MIQFCxYyefIyYBjvvjuRVavWRLrW+vX78Nlnq0ilpoXaf/r07enQYRteeumVSNepr6+P1RbLlg1n9er2pFLpqtCSJe2ALwHEOm+QQw6pY+jQlfzlL++wcGEHJkzoyTHHLMj68DU27ge059hjN7F+fWt2220i229v2vyTT4za2L69UZ9uvXU/AM44I71+Udvin//sz6ZNO7Ju3UxSqfmRftv77/cCdmXixEmsWpX+pH/4YVdg5BeflyxZz5NPTuKSS0YwZ05nbrhhCvvvb4bLr73Wi7vv3pW774bttlsDpPfSzz33JgMGNC/VP/+8HV//+pealNv2+MUvRjB3bnceeeRjrrqqG2++2QtoqiFNn/4Gq1dnkYx5+OCDPsAw3nxzAi+91Jqrrx7Gaad9ypAhq7nggpHcc88EttsuKKXrAFi69BNSqY8jXSsOcZ+RQvjss0HAdqxcuYBUagbLlvXA6gg77/wOw4ev5IYb6r7Yf86cj0il5mY5U25mzx4JdAVg6dL52LH8+eeneO896Nx5MHYBiA4dFrBqVbauPgaqmveFuYtbY4TXWcDFQK/mjgvzAlLAXoHPVwBXBD4/D+wHbA18GCg/Fbg9uI/3vg2wBCOMvtjH++524NTm6jR48GCNw4UXqvbqlV721luqoPrf/5rPd95pPp99tuqDD5r306dHv9aOO6qeemq0uvXuHf0648aNi36Qqh53nOpuuzUtf+UV85sh1mm/YP789PNccol5f9VV2ffv399836FD+v+h6p8n85VJ1Lb48pdVt9lGtaEh0mGqqvrUU6YOEyc2/S6Vyl1nUD35ZH/f//43/76vvZb9+itXmvtl7Fjzefz47MevW2deo0aZz5deqrrPPrmvt3x59LZ49FFz7Pvvq55+unl/6KGqF19s3v/xj+a+2rzZvOy1rr02+rXiEPcZKYRf/MJvb1XTNvZ3v/OOKQu2+403Rr/GgAH+8RdcYLbBPuTGG02ZiOqvfmX3ZZIWKBPCRNmtUdVNqtqoqveq6s1qTHil4CngFC9ybhAmeGGCqi4EVovIvp5/6EzgycAxNoLuJGCs+UN4HjhSRLbwghmO9MpKQjYzmnU0PvVUerlq8XxIr71mnJv5oqjWrk3WhGHrN3s2BAePs2fHP+eYMXDNNfD73/vntBP+7G/PlU7Hak3WZDlzZvx6vP++8QGC8YXtsYcxm91+O/zpT/5+y5YZU0pckyz4//GmTfCPf6QnuMzFpEn++xUr8u+7//7w9a83LX/rLRMhd8015nO2e6tdO7M+T+/efp2WLct9LRHfGR6FYFtYE+OHHxr/HJh2OfBAY5K1ZVDbJjt731tTWjBZbrY2jmOyC0bQ9e8P++1nnkHLjjuaba9e8ZLm5qJZk52InICJXNsSo3kIZggZ4/b64pxfA/6MyRz+XxGZrKpHqepUEXkM+ABjFrxIVa0r+gLMYoEdMVF+NtLvLuB+EZkFLMNE6aGqy0TkWmCit9+vVDXPI1MY7dunPxDg23qt8zj4/axZZlvoxNhzzzUP6Icfwm67Nd132jQzF2S77aJfJy5WIO22m3Eyjx1rOsqg/yNqJuwzzjC+AYDLLjPbgQPN1nZUuXwi9oG0fpQZM8JfNxOb4WDjRvjhD+Hdd42QvPZaU37JJX5dBgyId41Mv8lzzxnBcdllfkcAftbnIB9/bK69xRb5BYTlH/8w98dnnxnB+uMfm0EO+PdmNsEWzAxg/9f58/05b5n06FFYtNfmzX49FiyAeZ5H2fq2xo+HI4/0j6tlgWQzKNj/J+ib69q16f5x2j3oc1RtOtiz92GfPr4vqxiE8SH9FjhGVcM5LEKgqk8AT+T47nrg+izlk4DhWcrXAyfnONfdwN0FVTYkXbqYB3PTJhMGCf6NYDsN6/ibMAE++MC8j6shrV0LU6b4cwIWLMgukG6/3Ww/+ST6deJitUXbOR16qNkefbS/z8KFfvbpfEyebB644APysecasO1pO96wAslqavnyb6nmj05KpfwIt2mBJ2PCBPO7li2L58SHpqHO1sH8hz+k7zdsmGmf4HGq8ItfwIknwve/H+56wYi5G27w37drB489Bt/4Rv7jrYb04ou594kTYQfpbbFihdEK1q0z937wvLfcYgZlLYFM64rtbyC7hhQnyu673/X7juD5LTvsYLbFFkhhZOeiYgqjWsX+KTYly+ef+x1WpkCywgjiC6T//McIIHuz2E46E6uFnHhi9OvEJVeU3bOB2Ws2QseyeDHsvbeZ1R9kxAgYPNiM3ocNM2X2t9oRsxVIYTSCbMdlI5dpzGqa//iHn57FarsA++xjTGHFEEhTp5pw3vk5YiIOPzz987HHwimnwF/+4g8CILug3nZbs7VaZjbatoUrr2xavs8+6Rb7zMi/IPb8duAUlaDJbsUKfxCzZInZBn9bUCAWK+qrErGWlmx9R7aozjga0l//avqtm282UXWZdO4M22xjzIWJCCQROcEz103yMiGcasu8ckcAqyoPG2Y6hi239DtgO6LJZs6IK5As1qyT6Z956y0jhObNM7b+f/wj+nXikm8ekjVjZeZge+QRY9b77W/9MhvS3NBgzmfNBFYgrV9vvrOd0sqVcNtt8K9/mc+NjUbQZXZOdqBgO7Vs2H0WL04XnrYzuOMO/3/NFKIzZxpNOa5Ash3Iueca+/0ttzTdZ9kyI6yDbLGFMb/165de3qNH0+N/9CMTEp5v/sqTT6YLW4CHHoJjjkkfTeTza33JC8476qjc++TD3usjRhjBbO8fKwQzI/ks2Ub1tYK978JOKRgyJN512rQxWnau69x7rwnxT8pkd0zg/VpMUIBFgceLV43qJ/in/Oc/ZjvR817ZDjPbqC3uWiUWa0OfODF9HZjTTzcmjO7dzag+yQXLbKbgbIJp991NyptMgWTrPXu2EeqrVhlndZCddjLboE9j5Upf01GFCy8075ctg5tuguuua1q/MAKpvt4MKvr2NWYQm6Fg5crc58ukUA0JjNANzgGydOzY9H7q2tV0Hnvu2VQDzaRtW/O7os6w79QJunRJt3Vm+k4t8+eb/3nuXLj44mjXsWTet1azs2QThgcfbObj1CrZAqI6dEg3a48YAe+8Y0y6u+9emnocdpjZvvNO8c6ZUyCpajNzsR1Bso0SrCCyHV82gRRnJBd8SK1z96WXjKno7383C7jZTmzlyuSXrG7VynRE2bSk3Xc3Avvzz832ggtg1Chf2ATNLg8/nH6s3SfIpZca4TNggBF0lp49c5ujPv3UCDsrvLKxerUfVWQ1tQ0bcmsDO+5otInjjzcTRaFwv0k+2rf3c8QdfbTRxu29FAx8yEWbNvGi3jp1gs6dwy1+07mz0dZefrn5fXORGfgSJlDkV7+KNyG5Wshmsvvkk/Ts2+PHm/s1W5BDsenTJ/2+L4Qwuey2F5H/iMjnIrJYRJ70QrIdAfL98dYsEhRI3/52/oSI+Qh2WOvWwejRJuJrwgST1+qmm9K1iD594l0nLiK+JmFNNtYJ2qOHEd5XXmlMm/PnwxNPpGcubtUq+wJ0Awc2tYc/9JD/XSZz5uSu46uv+tFk2aiv9x3nAJ9+2pHx49P3ueceY0cHYxb9+GNjerTtnc1UFobttmua0DLTtCsCO+9shP4RR5gya77N1CKyYTWkIGEi04yG1DQHU7ZBTzEi3Wz7Wvr3b7rPXnulD16SSpFVLuz9FfTLbbll+kCkfftkhBGY/+SJrCFq0Qnj7noIeAwzObUf8A/gkeJcvnbIZ0f97DNjUguaRw46yHfSRyVzBN21q98pBZ281sdQDoFkueEGeOUVP+LLCiSL7TyDZqmuXbOPhHv2NPMeoKmfJJ8vbvTopuY/yJ9Tb/HidLPiWWftQ12deb/11ma7885+fbbYwgjF9u3h8svT94vKTjsZf6M1+d57r/8e/BBzS+YSDbZ9hw1LjwAMkk0g7btv86Pczp2he/emSfCuvbapr6sYy4hnClcjENPLevRIv19qXSBddx3cfTd85SvlrknxCSOQRFXv9ybGNqrqA+RIwdOSyXxI7IPUqZPpKEaNSp8kmumQjkKmQOrWzYzQM7HhvEkLpKAWs9VWRmu76CKjUXzrW+naWzCvnZ3j06VL9jr36GF8OtB05GwncWbyjW8Yc5aNSAu23RtvmFFmNl/PiScaTTMbN99s8hLus0+6QLL88IfGbxLXmWzrudde5t4588z0c/385+n7ZgqkU0810XbPP2+EJpgR7MEH+8dkE0hg8v5lhuPvsYevsXXqBB07NtWQunSBkSObFBdMZh3XrWs68u/RI13417pA6tjRPNtJ+oWTIoxAGicil4vIQBHZTkR+gpnM2tNb4sFB04fEaj/ByXpBdtkl/rUyzVZdu2YfjX/zm0YTy6YdlJLgg2IFZZs2cNZZxs8RdL7usovv+zjkEBMh9/TT2U1APXr4JpvgiPjXvzamwb/9zcyfCGJ9CZkalaVfv9wCO1c27C239P9Xa4rMzCSezbQUB9uW+XwiVjjbkPSuXY0JKyi0jz/eTFC25BJIYAJL9tjD/9ytm99GubSeTp3i+8zCcu65ZoJwZhDFFluk3/9xVqZ1VAZhBNI3gO8C4zC55y4Avg28BUzKfVjLIqghzZ/vm+cGDvTTtIPJODB/frzoOks2DalPn6YBEj17mmCH4Mg4CWz9OnRo3o6t6mso/fvDCSeYztB2gMF27d7d72SDPqPu3c01zzmnaUYKa8K0nWVmoEW/fvnnyAQ7ZkuwI7dZI5IIHPnDH+B//2ta/rWvGVObrUsuggOZfAIJ0gcNnTub/wX8NDGZFoGOHUsvkO6801wnc/5Y797pwQ+1riHVMmFy2Q3K89o+iUpWA8EHtF8/k6a9fXv42c+Muc46eIcNyz1aD0s2H1KrVpUzMrT122qr7GaFe+6B4cONdnHuub7ZK6hVWIFt26pVK1Nm9w0GDAQ7VisA7blOOil9/8z6bL11Uw3p/vvh//7PvO/e3Zi+HntsPH//uykL+jV23tkEP2T6dUrBD3+YPuHVImJMbVEiNtu2zb9citVCTjvNaJ6/+50ZSNn2H52xsljHjkYojxsXvg5hufrqppOAg2SabyvlOXBEJ9QcXhH5koicJiJn2lepK1ZtZGo8P/iBmbxnOzsbLhwmJLc5MkeAdtRqo/huvz09Qixp7Ejc+nsyOessU79Zs2D77X0NJSiQ7Ij3K18xvhw7AdIKluB8oGByRyuQBg0ybX7GGebzgQcaX8y995LGypVNBdLee/u+l1WrjHmuT58GvvUt46exnbJl+PDqy53Wtq35nWef7aeICWLnrvzpT2ZQ0KZN+kDqvvvgz3/2P9t7sq7O+M9yZQ6JwzXXpCf2zCRTIBUjmMJRHsIkV70f2AGYDFhLuWJWbXXkIWgisQ7nYgiknXdOn9th56M8/bSZe/C1rxV+jUKwEW9h57lk05BOPtnMsbrwwvTO3gqkYGBENoHUunW6GaddOyOMbO63du1MW40c2TSDRqdOuZPR1oojuW1b0wZ33+139sGO/L77TOLYXP61jh3hmGP86MmgVlIs/1lYMgWSo3oJM5bYCxjqLengyMOddzYfym2d4IWQKdRsBFalhIGefroZdYddkTRbKHebNibzdCY29PqYY4wpCdIFnzWd5hIcdt9vfcuEZ2+7bVMNoW9fc/3LLjPzxWqRoEZfVwfnnWfMy5auXU10ZD6CPqMkzWQffmgmgtp0RFYAvvZa/lB+R+UTRiC9j1n5NUfWKIfl3HNzf/fKK/DMM8XJ+2Qd+jvtZM5ZaRxwgEnwaSfFNsfhhxuNJ8zs+l12MWmJgv6SbOux5Eoouf32Zhb7iBH+9c46y2hEl15qhKDV8H7/+3D1r0aCAqlt2+xmu+bo1s2Elz/ySFMzZikZMiQ9DN4GlHzpS+HvOUdlEkYg9QY+EJEJwBcBl6p6bMlqVYMccEDzI86wHHGEEUr33FMcE2ApyJeWJ5NTTzWvsGQ674MCyZqd8i0atu++6Z+7dIGvftW8WgqFRHkGeeghMyG2mIu0hcUKw1pOpNrSCCOQril1JRzR6NGjuE7jamX//Y2ZJhhafvDBZj2g732vfPWqBoolkESS1Y6CPPwwPPhgea7tKA3NCiRVfSmJijgcUXn6abP6a7Bzbd3aJNd05KdYAqncxFnrx1G55BRIIrKa7CmCCl7C3OEoBj16mDlejujUikBy1Bb5lp9IKFesw+FIGieQHJWIU3gdjhaImzzqqEScQHI4WiBOQ3JUIk4gORwtECeQHJWIE0gORwvECSRHJeIEksPRgjjTS4vsBJKjEnECyeFoQdx1Fyxd6ubvOCoTd1s6HC2INm2yL9nucFQCTiA5HA6HoyJwAsnhcDgcFUFZBJKInCwiU0Vks4jsFSgfKCLrRGSy9/pr4LuRIjJFRGaJyM0iZsUbEWkvIo965W+KyMDAMWeJyEzvdVaiP9LhcDgckSiXhvQ+cALwcpbvPlLVPbzX+YHy24DzgJ2812iv/BxguaruCPwRuBFARHoCVwP7AKOAq0UksKSYw+FwOCqJsggkVZ2mqtPD7i8iWwPdVHW8t3LtfcDx3tfHAfd67/8JHOZpT0cBY1R1maouB8bgCzGHw+FwVBiVmNFqkIi8A6wCfq6qrwDbAPMC+8zzyvC2cwFUtVFEVgK9guVZjklDRM7DaF8ADSLyfpF+S7XTG1hS7kpUCK4tfFxb+Li28BnS/C75KZlAEpEXMUufZ3Klqj6Z47CFwABVXSoiI4F/i8gwzJIXmdilMXJ9l++Y9ELVO4A7vHpPUtW9su3X0nBt4ePawse1hY9rCx8RmVToOUomkFT18BjHNOAtk66qb4nIR8BgjHbTP7Brf2CB934esC0wT0TaAN2BZV55XcYxqah1cjgcDkcyVFTYt4j0EZHW3vvtMcELs1V1IbBaRPb1/ENnAlbLegqwEXQnAWM9P9PzwJEisoUXzHCkV+ZwOByOCqQsPiQR+RrwZ6AP8F8RmayqRwEHAb8SkUZgE3C+qi7zDrsAuAfoCDzrvQDuAu4XkVkYzegUAFVdJiLXAhO9/X4VOFc+7ij099UQri18XFv4uLbwcW3hU3BbiFEmHA6Hw+EoLxVlsnM4HA5Hy8UJJIfD4XBUBE4gBRCR0SIy3UtDdHm561NqRORuEVkcnHclIj1FZIyXbmlMMLuFiFzhtc10ETmqPLUuDSKyrYiME5FpXlqrH3jlLa49RKSDiEwQkXe9tvilV97i2gJARFqLyDsi8rT3uUW2A4CIzPFSuE22Yd5FbQ9VdS/jR2sNfARsD7QD3gWGlrteJf7NBwF7Au8Hyn4LXO69vxy40Xs/1GuT9sAgr61al/s3FLEttgb29N53BWZ4v7nFtQdmDl8X731b4E1g35bYFt7v+yHwEPC097lFtoP3G+cAvTPKitYeTkPyGQXMUtXZqroBeASTlqhmUdWXMZGJQYKpmO4lPUXTI6raoKofA7MwbVYTqOpCVX3be78amIbJ7NHi2kMN9d7Htt5LaYFtISL9ga8AfwsUt7h2aIaitYcTSD6hUw3VOH3VzPvC227plbeY9vEyxo/AaAYtsj08M9VkYDEmJ2RLbYs/AT8BNgfKWmI7WBR4QUTe8lKuQRHboxJz2ZWL0KmGWigton1EpAvwL+ASVV3lrXKSddcsZTXTHqq6CdhDRHoAT4jI8Dy712RbiMhXgcVqssbUhTkkS1nVt0MG+6vqAhHZEhgjIh/m2TdyezgNycemILIE0xO1JBZ52dVtlvXFXnnNt4+ItMUIowdV9XGvuMW2B4CqrsCk3BpNy2uL/YFjRWQOxoR/qIg8QMtrhy9Q1QXedjHwBMYEV7T2cALJZyKwk4gMEpF2mIwPT5W5TuUgmIrpLNJTNJ0iZkHEQZi0ThPKUL+S4KWkuguYpqo3Bb5qce3hpfDq4b3vCBwOfEgLawtVvUJV+6vqQEx/MFZVT6eFtYNFRDqLSFf7HpOO7X2K2R7ljtqopBfwZUx01UeYrORlr1OJf+/DmAzrGzGjmXMwS3f8D5jpbXsG9r/Sa5vpwNHlrn+R2+IAjDnhPWCy9/pyS2wPYDfgHa8t3geu8spbXFsEfl8dfpRdi2wHTATyu95rqu0ji9keLnWQw+FwOCoCZ7JzOBwOR0XgBJLD4XA4KgInkBwOh8NRETiB5HA4HI6KwAkkh8PhcFQETiA5HEVCRHp5WZAni8hnIjLfe18vIreW6JqXiMiZRTjPIyKyUzHq5HDExYV9OxwlQESuAepV9fclvEYb4G1MlvLGAs91MHC6qn6nKJVzOGLgNCSHo8SISF1gLZ1rROReEXnBW1vmBBH5rbfGzHNe+iJEZKSIvOQlsXzepmbJ4FDgbSuMRCQlIn8UkZfFrOu0t4g87q1Tc523T2cR+a+YtY7eF5FveOd6BTjcE3IOR1lwAsnhSJ4dMEsaHAc8AIxT1V2BdcBXPKH0Z+AkVR0J3A1cn+U8+wNvZZRtUNWDgL9iUrhcBAwHviUivTA56Rao6u6qOhx4DkBVN2OWB9i9qL/U4YiAE0gOR/I8q6obgSmYhSGf88qnAAOBIRghMsZbAuLnmMSUmWwNfJ5RZvMvTgGmqlnnqQGYjUl0OQWjCd0oIgeq6srAsYuBfgX+NocjNk49dziSpwGMViIiG9V35G7GPJOCESb7NXOedUCHbOf2ztUQKN8MtFHVGSIyEpOn7wYReUFVf+Xt08E7p8NRFpyG5HBUHtOBPiKyH5hlMURkWJb9pgE7RjmxiPQD1qrqA8DvMUvYWwZjkmY6HGXBaUgOR4WhqhtE5CTgZhHpjnlO/0RTYfEscH/E0+8K/E5ENmOyvF8AICJ9gXXqrfzpcJQDF/btcFQxIvIE8BNVnVngeS4FVqnqXcWpmcMRHWeycziqm8sxwQ2FsgK4twjncThi4zQkh8PhcFQETkNyOBwOR0XgBJLD4XA4KgInkBwOh8NRETiB5HA4HI6KwAkkh8PhcFQE/w9l23y+d6PlwAAAAABJRU5ErkJggg==;imageBorder=default;" vertex="1" parent="1">
          <mxGeometry x="-90" y="538" width="420" height="278" as="geometry" />
        </mxCell>
        <mxCell id="_TGiCRJFAITHIr49HdVO-4" value="" style="shape=image;verticalLabelPosition=bottom;labelBackgroundColor=default;verticalAlign=top;aspect=fixed;imageAspect=0;image=data:image/png,iVBORw0KGgoAAAANSUhEUgAAAaQAAAEWCAYAAAApTuNLAAAAOXRFWHRTb2Z0d2FyZQBNYXRwbG90bGliIHZlcnNpb24zLjUuMSwgaHR0cHM6Ly9tYXRwbG90bGliLm9yZy/YYfK9AAAACXBIWXMAAAsTAAALEwEAmpwYAABd4UlEQVR4nO2dd7xcRdn4v0967yGQhJDQAkmogdDhqkixUBQUUEEEkWrjFQH9SRFUENEXBV5AlN5EEJSucCkKhBACJCGV9ATSK7lJbu7z+2POeM7u3b33bDlnZ/fO9/PZz9mdPWV2zp555inzjKgqHo/H4/FUmnaVroDH4/F4POAFksfj8XgcwQskj8fj8TiBF0gej8fjcQIvkDwej8fjBF4geTwej8cJvEDy1BQi8jUReT6hcw8TkfUi0j6J87uOiEwRkbpK18NTu3iB5EkdEZkrIh+LSPdI2dkiUl/quVX1flU9qtTzwH/reWTk3PNVtYeqbi3H+bOupSKyIRB4K0TkXyLy1QKOrxORhSVcf3hQh/XB62MRuUVEOtp9VHW0qtYH+18pIvcVea0rRWRLcJ3VIvIfETko+O6bIrI1+G6tiLwrIl/IUc+nss55n4hcGbw/UEReEJGVIrJMRP4iItsVU1dPuniB5KkUHYDvVboSjrGXqvYARgJ3AX8QkStSrkOfoA57AAcBFyR0nYeD6wwEXgMeExEJvns9+K4PcAvwkIj0yTr+QBE5JM+5+wK3A8OBHYB1wJ/LWntPIniB5KkUvwb+J0dHA4CI/K+ILAhGyW+LyGFB+WAR2Sgi/SL77iMiy0WkYzDCfi3y3VEiMl1E1gQj/pdF5Ozgu51E5MVAI1kuIvfb+ojIvcAw4O/BaP2SyOi8Q6QuTwYj8Vki8u3Ida8UkUdE5B4RWReYu/aL0zCqulxV7wXOAy4Tkf7BOc8UkQ+C830oIt8JyrsDzwCDIxrOYBEZJyKvB1rIEhH5g4h0ilmHpcALwKjIb5orIkeKyDHA5cBXg2u9G3z/zaBe60Rkjoh8LcZ1tgB3A9sC/bO+awLuBboDu2Qdej1wTZ5zPqOqf1HVtar6CfAHIJ/w8jiEF0ieSjEBqAf+J8/3bwF7A/2AB4C/iEgXVV0MvA58ObLvacCjQef2X0RkAPAocBmms5sOHBzdBfglMBjYHdgeuBJAVb8BzAe+GJjprs9RxweBhcHxJwG/EJHPRL4/DngIM9J/EtMxFsITGE1yXPB5KfAFoBdwJvBbEdlXVTcAxwKLg7r2CNppK/ADYABG2/kMcH6cC4vIYOBo4I3s71T1WeAXBFqOqu4VCMWbgGNVtSemnSfFuE5n4JvAQlVdnvVd++B3bgHmZR16M7CrREyqLXA4MCXGfp4K4wWSp5L8DLhIRAZmf6Gq96nqClVtVNXfAJ0xpiwwAupUgMDMc0pQls3ngCmq+piqNmI6zI8i15ilqi+o6iZVXQbcCBwRp+Iisj1wKPBjVW1Q1UnAH4FvRHZ7TVWfDnxO9wJ7xTl3pH5bgOUYoYyqPqWqs9XwMvA8cFgLx7+tqm8EbTgXuC3G71suIquBRcAGjECPSxMwRkS6quoSVW1JCHwluM4CYCxwQuS7A4PvGoAbgK8HGluUBuBa8mhJFhHZE/M/+1EBv8NTIbxA8lQMVZ0M/AO4NPs7Ebk4ME+tCTqn3piRPphO8qBgFH84oMCrOS4xGNPh2espRqOx19hGRB4SkUUisha4L3KN1hgMrFTVdZGyecCQyOePIu8/AbpYc18cxAQUDARWBp+PFZE3AhPhaozAzVtfEdlVRP4hIh8Fv+8XLe0fMEBV+wDdgH8Dz8apa6ClfRU4F1giIk+JyG4tHPKIqvZR1W1U9dOq+nbkuzeCOvTFaJb5hO4dwCAR+WKuL0VkZ4wp83uqmuv/4XEML5A8leYK4NtEOvLAX/Rj4CtA36BzWoMxsaGqqzHawVcw5roHNXfa+iXA0Mh5JfoZY65TYE9V7QV83V4joKVU+IuBfiLSM1I2DKNZlIvjgUZgfGDa+itGYxgUtMnTkfrmquutwDRgl+D3XU7m78uLqm7EBFYcFJg+m+2S45jnVPWzwHbBde+Ic60W6rAeY2L8hojsk+P7LcBVwM/J+l0isgPwT+DngT/OUwV4geSpKKo6C3gY+G6kuCemI14GdBCRn2H8JlEeAE7H+JJymesAngL2EJETAs3kAozzPHqd9cBqERlCc7POx8COeeq9APgP8EsR6RKYhs4C7m/h58ZCRPoFAQE3A9ep6gqgE8ZsuQxoFJFjgWh4+8dAfxHpnfX71gLrA23lvALq0BljfvwIWJFjl4+B4SLSLth/kIgcF/iSNmHateTw+OC3/xFjdsvFvZh2OSZS9yHAi8DNqvp/pdbBkx5eIHlc4GpMJJXlOYypZQbGDNZAxPQW8CQm8upjVX0310kDJ/nJmIisFZiIsQmYDhPM6HpfjPb1FPBY1il+Cfw0iFLLFXxxKia0eDHwOHCFqr7Qym9tiXdFZD0wCzgb+IGq/iz4LeswQvsRYBVGM3wy8lunYYIsPgzqOxgTMHIaJuz5Dozgb43VQR0+xgRCHJdH+/xLsF0hIhMxfcnFmLZYifFVxQqgiMHvgM8FQj+DwD93BYGfLeBszEDiikjU4foy1cWTIOIX6PO0FYLR/ELga6r6UqXr4/F4MvEakqemEZGjRaRPYIKyPpRmocwej6fyVFQgicifRGSpiEyOlF0ZRD1NCl6fi3x3WTABcbqIHB0pHysi7wff3RQ4rxGRziLycFD+pogMT/UHelzgIGA2Jnz6i8AJgcPe4/E4RkVNdiJyOMb5eY+qjgnKrgTWq+oNWfuOwtjIx2FCbv8J7KqqW0VkPCYNzRuYyKObVPUZETkfE0F1roicApyoqrHzg3k8Ho8nPSqqIanqKwRzLGJwPPBQMIlxDsbxO05M0sReqvp64Hy9h3CS3fGYtCRg5q58xmpPHo/H43GL2JP0UuZCETkdExF1saquwsxTidr+FwZlW4hMdoyUE2wXAKhqo4iswaSQyU5Rcg5wDkCXLl3GDhs2rOw/qBppamqiXTvvZgTfFlF8W4T4tgiZMWPGclVtlnWlEFwUSLdiJrppsP0N8C1yT+jTFspp5buwQPV2THZgRo4cqdOnTy+81jVIfX09dXV1la6GE/i2CPFtEeLbIkREsvMNFoxzol1VP1bVrUGm3zsIE0suxCS/tAzFzHlYSObse1uecUwwMbI38U2EHo/H40kR5wSSZC6kdSJgI/CeBE4JIudGYCZFjlfVJcA6MYtyCWb2/hORY84I3p8EvJhnkp/H4/F4KkxFTXYi8iBQBwwQs9rlFUCdiOyNMa3NBb4DoKpTROQRYComrcwFkZU7z8Pk3eqKmeH/TFB+J3CviMzCaEanJP6jPB6Px1MUFRVIqnpqjuI7W9j/WkzK+ezyCcCYHOUNmNQxTqIKDz8MJ54InTtXujYej8dTWZwz2bUlJk+GU0+Fv/+90jXxeGqLd9+Fjz+udC08heIFUgVZGYRXLM1eeswDQGMjrF1b6Vp4qpG994Y99qh0LTyF4gVSBVkXLO220sf95eTrX4fevVvfz+OJYsOWli2rbD08heMFUgWxo/8VuVab8fBwsFjC1pJX1fG0JRoakjlvrvjc5cs7eQtHGfECqYJYDckLpJbZsAE+/BBE4D//qXRtPK6zZk35z9mvHxx8cPPyk08+mEGDyn+9tooXSBXEakjeZNcy69fD44+b9w/HWWLO06ZJQiCtWgVv+EVLEscLpAriTXbx2LABFi0y7wcPrmxdPO6ThEBqjUMPhc9/Pv3r1hpeIFWQQoIafvELY7LatKn1fWuBqN9o/XpYHCSD8vO1PK1RCYH073/D00+bZ3rDhvSvXyt4gVRBCtGQ/vd/zbYtmPemTs2MkNqwIRRIbfVhf+YZ+PGPK12L6sAKpPbty3/upqaWv+/VC776VXjwQXj00fJfv9bxAikFfv5zeOIJM6/m1782I/6mpnD+0apVrf/RO3Uy29Wri6vDX/4Cy5e3vl+l+cMfYPRouPvusCyqIa1fX5l6VZrPfQ6uv77StagOrEDq0qX85161qvV9nn8eTjsNTj4ZXnih/HWoZVoVSCKyq4j8yy4zLiJ7ishPk69adTJtGjzySPj5qafgZz+DE04wKv0ll8CPfgSXX26+AyOMcpkZ5s6Fjz4y761AivNAZDNrFnzlK3D22YUfmzY/+pHZvvdeWLZhQ6gZ1bKGtHmzEciNjfn3sSbbrVtho1+IPSf2WUrCvDtgQOvTEEaPDt8fdZSJEPXEI46GdAdwGWYhPFT1PXyS0ryMGWNUdstf/hK+f+kls33vPbjuuszjoma7piZz3IgRsF2Q+9w+XKtWwSefwBFHwDvvxKvTnDnhsVE2boQ+fYw2Yv1ZlaShIZxDMmtWWL5+fdsQSDffDBddBLfckn8f29lec01lMxH89a/NtfWGBvPfrCR/+hP861/mfceOyVzD3oN8A4fsNrDPn6d14gikbqo6PqushTFc28aOnuzodfJkOOQQ6NkTfvc7UzZlSvPjnnzSjJB/9ztj+/7KVzK/j2pIb7wBr7wCP/xhvDrNnm222RFq48ebh+ub34QvfjHeuZJk5szw/bRp4ftvfjMUmLUskKz2s3BhZnl0Quatt8Lppxv/xJw5uSdrJs3SpZ056SQ4JWtYusMOlc+scdZZxhIB5nkqhQULTPtmt7EVxPkCjLJN49HBladl4gik5SKyE8FKqyJyErAk0VrVACtXGuE0dSqMG5cpYOwI65RT4Fe/Mu8vvtiYA37wg9zniwokK+y6dm29HvX1cN555n2vXpnfvfpq+P7NNyuXEWHaNPjb3zKFUL4cdrXsQ7L3J1tbjZpzr7wS7r3XDHSamiqjkTQ2moWYJ03KLF+6tGVzY9qUEpH63nswbJjRWrdsyfxu5Upzj7IzQnz2s8Y0nx14NGNG8fVoa8QRSBcAtwG7icgi4PuY9Yc8LbBihRnBbtxoTCtjxzbf59JL4UtfCj/bjmh8lj66ZUtofrAmO4Bu3VqvxxNPhO+ztYvoRL+GhsrYupcvh913N0twWIE0fLjZZgtQqG0Nyf7ebGFs52DlohKm1s2bTbexdm1mcI5rNDSYAVkxGoq1KvzlL6FGZK0Iv/yluVfZJvPbboORI5ufq1ICqV8/+H//rzLXLpZWBZKqfqiqRwIDgd1U9VBVnZt4zaqclSth+nTzfrfdYMcdm++z3XbmT5NN1CkKJo2+NT+sWhVqCXEEUtRvtH69Cae2EX3ZpqFcpsSkiWpFM2caLXHYMPN54MDm+9fXGw2hFunZ02wfeMAEd1x4ofn85z/nP6YSAmnTJtNtbNwI990HgwbBiy+G37uSe7CpCT71Kdhll8IjTK1F4pVXYOedzftttjHbxx4z28svzzxm4MDcz+Rbb1XGtLpqlfE1VhN5BZKI/DD6wqzc+u3IZ08LrFgRjox22SW3QBowwAQVZJP9p160KNQMVq0KhUwcgTRnjplFfsghsGSJeahsJNuSLMPr5MnNj0+a6IM6Y4Zpk/79zecBA3Ifc/rp7nR65aRDZLnMG24w5qLGRhN0ctBB4Xd9+4bBLmkKJFW46ipYuDD84735ptledVW4XzGRoEnz7LOF7R+9F7aNs3PW2QHdvfeawVSPHtC9e/Nzffyxj7SLS0saUs/gtR/GRDckeJ0LjEq+atXNRReZoIPu3U0Hu8MOzfdp1y7/5L12kTszd25oplu+PLRRx4kimjPHROv16BGaGG68EX760+amlkoLpOnTjcZoBVEu7dHyyivJ1qsS5BpFL1hgOvj99gvLpk415iFId72o6dOND+uaa8LH305gjpqlli83/61f/ar1+XVJkT1Ye/fdwo7P5X+yGpLFPoe9eoVaVC6BBD4pcFzyCiRVvUpVrwIGAPuq6sWqejEwFhiaVgWrFat9bNhgUv5YE8DQFlruuedgwgTz3gqqjh3hN78JR2nvvx8+CPmctk1NJjjirbeMdmUFUtQ5e23WQvCdO1fGZBfthFevNsJ7r73M5x13hHnzch9Xi6uBRjtvOxqfPNlog9EIyW23NS9IV0PKNa/HjvztfDkwAumb34TLLoO3306las3IFkjReW1xyDXHK3uAZJ+/6ATc7OvuvrsRWP/+d2HXLyeqpUccpkWcoIZhQPTnbAaGJ1KbKieXgIia5BYtyq2FvP22caIedVQY/PDAA2bVyzvuMIJl5Uoj2ObPhw8+MPvkmxg5Z44JHx83znRyu+9uBFIurOZ26KGmbgcfbLSztLI6ZGsF/fvDBRcYrfD660N/UjbV8oAVQrQtbrzRbK1Wm23azReRlyR2UBUll8BZsSL8n9sMG2lz5JHh+2HDTACP9enGIdezFRXIBxwQvo8KpGwNqUMHY26tpEB69FFTd2tedZk4AuleYLyIXCkiVwBvAvckW63q5IgjmpdFVfXBg808jUsugbvuCsv33be5j+mkk0xn9I1vhEEOdXVmW19vtvkWIps/P/PzYYeFDvPBgzOzEt91l8kY8f3vm8+vv246Riv0kiaXQAIjKLNHm7/7nUmhA7UvkMaNM52Z7fB79zYBBFaDtvczbR9SLrIHO9/9bmjKS3tSaLdu8LWvZUav/upXpu52ioVl/PiwbPhwMw1j82bjD8v2r0KmQI4GHrWkIe24oxnkTZlSuSkLtq+x87PAmHrzWR8qSYfWdlDVa0XkGeCwoOhMVY2ZI6Bt8NvfGm0mewRy4olGO8kmO0tDS7RrZ/wHU6YYwfLaa6HpbeNGk8Tx6183foUnnjABCwsWZJ5jyJCw0xg5Ev7+d3joIZNva8yY0Gfzox+ZXHtgRlRpzHHJJ5By8bnPwamnGnNWrQuk7beHAw80E6bBCCQrjMENgTRpEkycaDq2aFBDdECUtjNf1QR8RLWZI44w//Ps58JqOT/+sfkN8+bB4YcbP1muKQedOhkrRs+emZpQLg2pSxeTNeLYY81aXqpGc8xnqUgS64+O/lfGjTMaYyWi/1oiTi67YcBy4PHgtSIo8wRceaWZm5BNS075Qth1V7NduzbsiMBoSJdfbsxyu+1mHqwFC8IH769/DfPlWZ/Uvvsa09+pp5o/YzSSLeo4TytPWrbTuyWB1K1bOEqtdYHUuTOcc074OTsDgu340hRI2fdq+HA480zjo7TY/5ulEgKpXbtMITFggBFSUa0nOt0gammwFo1c5slOnYyf99FHMzWhXBpSz57mGevTJxRCN92UmcU+Lew8qpUrzYD25pubmy+XLHHDpNeqhgQ8RZClAegKjACmA6PzHtGG2LrVCIpo1oPDDjOfyyWQ9tnHbEWMs/jGG82Iz+bsivLRR2aEOnBgptnCPoB77pn/OjZSCIxASiJbcjbZI7RcI1NL9+61LZBsh28znUdDvbMFUrt2pqOrpIZkM4VE/Vt77x2+32GH5lpJ0jQ1meck+j/q1MmYql980UQD9u2bOak1akqzAinXMi9RIZVPINk2iV7fDiJvvNH41p57rrDfVCpWEM+da/qmKFu3msHqnnsav3GlNaY4E2P3UNU9g9cuwDjgteSrVh3YtC52lPW3vxmbMWRqM6VwzDHGDnzllcbmPW9emM0gm8WLTYDE9ttnlp9+utkefXT+62QLpDSwD8DDD5uktLn8cJZaF0i2Lfbd12yjAR25csT17p2ujybaWbVrF047iAokG/0HxiyU9pInqkYgjRtnsixYDW3wYKMpjBwJ+++f6SONhs7b9swVrh5HIFnz2C67hGXRfiCt9cyi98oKpFzaqp3f6MrSNAWvh6SqE4H9E6hLVZKd8XjgwNB+Xa5OUwTOOMOMujp2NB1VPu3lmWfMSDBb8Bx3nPmTZk/ui9Krl1HnIX2BNHSo8WvZCZ9RrKbXsaMZzYnUtkASkyouowPMJZC+8Q0zACo0pLlYop10165hPaN1i86f23HH9EfdViC1a2cCg6w5MRo2P29epkDK7ozzmY3jCKTddjNzxO6/PyyL+o3yzVMqN9E2t77gaGi+JTvQotITzuP4kKIZG/5HRB4AKmAJdZPsWekDBoR/0HxRcOUg31ovt99uOotLLinuvDYCL22BZDu3XDz4YGh7t3O62oJAipLLGW6XOUnLTxPt5KKdsBVI2aHpAwaY+5S2WbFdjl4te6DzwQehhhedIL7DDuEE2CFDMnNB5hNIUSEjYnx/UXN9VEOKk12lHOTS8LKTxIKJ4pw4MfxcSkLachBHQ+oZeXXG+JSOL8fFReRPIrLULv4XlPUTkRdEZGaw7Rv57jIRmSUi00Xk6Ej5WBF5P/juJhHzSItIZxF5OCh/U0SGl6PeUXJpSHZEf9pp5b5aSC5hZx+ME07InZIoDtYGnqQwjRJHIHXqlBl80ZYEkn2fq5O19yrtwUP02hBqFDar/EcfmbQ6NhdhmuYg60PKJhqwAyZq1ZpGo5OsR4wIn51u3TKfo3wCqbWl0qMCqRIaEuTX+o47LjPxc6UXfYwjkKbarA2qeq2q3g+Ua/Wcu4BjssouBf4V+Kv+FXxGREZhFgYcHRxzi4jYv8KtwDnALsHLnvMsYJWq7gz8Figg4DoeViANGWL+mL17Gzu1ahiMkATZo84bbgj/hBddVPx5K9XJtSSQsql1gRQVPrNn518G2xWB1KtXZiLPQYPM82AHEWkKJGuyy6ZfP+OnjGqaNsAnqiFdf30ohLp0ydw/KpDiLP1iiZ4jLQ0pWyDttFO846pBIF0Ws6xgVPUVINvNdzwQxBlxN3BCpPwhVd2kqnOAWcA4EdkO6KWqr6uqYibtnpDjXI8Cn7HaU7mwJrtzzjHp6XONZJMgavs96yyzntKzzxr/0YEHFn/etDs5a1rwAil3W4wYkZl1IIrt3NJaEynbhxSlT5/m/30rkNIOdc73X/rKVzKjYbMF0pNPmoAHK5C6ds3MX5dLQ+revfUFoFrK5JAU2Sa7fBlPsqm0QMob9i0ixwKfA4aIyE2Rr3qR7Iqxg1R1CYCqLhER+5cYAkRW8GFhULYleJ9dbo9ZEJyrUUTWAP0x86rKgtWQfvCD8kXVxcFqSNdcE2ZZyA7pLIYOHcwr7VF3IYK8VgVSodpiJTWkOHVM22QXp/2iy75nCyQrZKICaciQcP/8Aqnl2TPR+nSIM9GmDGRrSNlRt/lwViABi4EJwHFANGPVOiDPuqaJkutvpi2Ut3RM5olFzsGY/Bg4cCD1NjdPDCZNGkG7dsOYMOHlgkb5pbJ8+QFAV4YPf4O33iqvw6dTp0OZOXMJBx+8vqC2KIb33usP7MHbb09gfczcKlu3jmPBgnXU16eU3whYvz75tpg6dRCwO+PHv8miRa33DGYUXMfUqXOor08+D8zcud0wsz6gd+9l1Ne3nI13w4b2wGG8+eYsdthhYYv7lgPbHvPmtdYedQCsWvUacCjTp68C+jJ9+kTat1/LunUjgB1YtmwNL7/8zn/3Hz/+Vbp1M2Fo06f3APaja9fN1Ne/0fwSea45b94i6utnFv7jCqShoR1w+H8/r137IZ067cDmzS07vF577W1WrqzAIlsWVW3xBXRobZ9SXphErZMjn6cD2wXvtwOmB+8vAy6L7PcccFCwz7RI+anAbdF97O/AaEbSUn123XVXLYQLL1Tt27egQ8rCa6+pHnOM6pYt5T/3wIGq3/mO6ksvvVT+k2fxt7+pgurbb8c/ZvRo1S9/Obk65SKNtrj7btMWs2bFP6ZTJ9Uf/zi5OkWZPNnU7+yzZ8f6323ZYvb/+c+Tr1v0eldf3fJ+U6eq3nWXamOj2X/PPc323XfN9++8Yz536mQ+G31DtaEhPMdbb5myww5bGqtu9hxnnVX47yqG9evDa4LqddepDhqUWZbrVcrfHJigJcqDlhboeyR4+46IvJf9KpdAzMGTwBnB+zOAJyLlpwSRcyMwwQvj1Zj31onIgYF/6PSsY+y5TgJeDBqubNiZzmlzyCFmzlESJoCuXd2Kssum1k12hZgvu3VL3983dOjGWP+7Dh3Mb0krlDjuf2n33c28vvbtTftlm+z23ttkVXj0UfPZLgMeXX9s7Fi45Ra45JJIDqIY5Aq9ToJsH1LHjvH8Vy6b7L4XbL+Q1MVF5EGMLjtARBYCVwC/Ah4RkbOA+cDJAKo6JRCSUzE+rAtU1U7jOg8TsdcVeCZ4AdwJ3CsiszDBE6eU+zc0NaUXyJAWXbv6KLtKUEyAR9eu6QU1hEO5+GO6zp3dE0hRevRoLpDA+IQtV19tXlFETJh7fX28maTf/KbJtpKWQMoednfsGC/Cz1mBpGFgQWLGaVU9Nc9Xn8mz/7XAtTnKJwBjcpQ3EAi0pMgXZlrNeIFUGYppC9fvlesCqWfP3AKp3Pz5zyZ5aSUFUhwNKS3LSD5aMtmtE5G1kde66DbNSrpMvpnh1UyanZwP+w4ppkNN02RXjEmxEgKpkPpFJ1wnPUcozf9tHIH0zDM0w2UNKcUg5uol38zwaqYSo+5Cw77X1uCQqFgNKf15SG6a7IoZ3NjQ9A4dci85UU46dqysDylb4B5zjJkwO3t2WFZpgRSrGxCRfUXkuyJykYgkmH+g+qhFk12XLm6bgWpdQypEOHuTXUgx9bMTX3Ml9S03aQqkXBpSrvyX48dnLlPjvEASkZ9hsh30BwYAd4nIT5OuWLVQiya7zp3TNy14gVTcCL8SJrtaEkhWQ4o7cbQUKi2QckUD9+sHo0aFnystkOIEDZ8K7BMECCAivwImAtckWbFqoRZNdiLpLRngBVKI6ya7sH5umuyK0TCthpRreY9y07FjZbJq2GvnC9WPtlelBVKcWzcXiK6+0xmYnXvXtkctmuy8QKoMrkfZFaPBue5DskENaayOXGkfUr75ki4JpDga0iZgioi8gPFmfhZ4zea3U9XvJlg/56lFk12aAslH2YW4LpBq0WRnybe+WDmpdJRdPg0puvp0Wtp2PuIIpMeDl6U+mapUJ95kVxrFRtnVskAqNFND+ia7+Md07tx8VdKkKKZ+u+9uttkrLCdBpX1I+QTS6acbX9LFF1c+erVVgaSqd7e2T1vGm+xKw5vsQlzXFsP6ue1DKqT99t8fFiyAoUOTqVMUVwWSiFk655prYM2a5OvWEnGi7L4gIu+IyEo/MbY5tWiya9fOC6RKUExbuH6vXA9qgHSEEVTeh9Ra/sHevZuvgJ02cUx2vwO+BLxf7sSktUCtmuyy/9BJUUwn16FDeg92mhTTFq7fK9eDGtLEVQ3J0qeP0RYrSZyxxALM8hBeGOXAm+xKo1itIHpsrVCsQEr/XtWOyS5NKi2QoqvfjmmW+dNoSJU22cXRkC4BnhaRlzERdwCo6o2J1aqKqEWTnesCye5ba4MB1wWS62HfrgukTp0qa7K7+GLo1csEcESFk6VPn+ow2V0LrMfMRUo421P1UasmO5c7uahAqiWK8YG4PnjwAimkY8fKhn137Ajnn5//mN69zRSCzZuTz+uXjzgCqZ+qHpV4TaqUWhulg/th37UqkIoVzmnfK1eTqxYb1JAWlTbZtUafPma7Zk2YUilt4ty6f4qIF0h5qMUF+tq1c9tRXqsCyXWTXbHLTzQ2pvN/8kENIcUIJJs+qZJmuzh/rQuAZ0Vkow/7bo7XkEqjlKCGtIRmWrgukIr1IUE6WlI1mOxUYWu8RWZLIpcPqTWiGlKliDMx1q+L1AI+qKE0vIYUUi3zkAo12YERSF27lr1KGVSDQAKjJeXLK1cuitGQevUy20oKpIK6UhHZSUR+IiKTk6pQteGDGkrDC6QQ1/1pxQY1gNeQIFMgJU0xAsnOU0pDg8tHnEwN24nID0RkPDAFo1WdmnjNqgRvsisNL5BCXI84LNaHBOkKJFctFjZyLY1Iu2IEkgvz+/LeOhH5toi8CLyMWZzvbGCJql6lqu+nVUHXqUWTXZpmoGI6YRcenCRwXTgXs4R5mlpBNQQ1QLptYYljIrTtVknfbEs+pJuB14HTVHUCgBQyRbuNUKsmu7Sj7IoxU/mgBvdNdq7XL00q0RaF4ILloSWBNBg4GbhRRAYBjwAxFL+2hTfZlYbrnVyauN4WtVi/NPECqXXyjktVdbmq3qqqhwOfAdYAS0XkAxH5RWo1dJxaNNl5gVQZqieoIf7FXPdxpUmapuZiruGCKTzWrVPVhap6g6qOBU4gktOurVOrJjsvkNLHdX9aLdYvTdI0NRdzDRdM4XFSB2WgqtOBqxKoS1XiTXal4bN9h5QinNPoRGqxfmniTXatU7BA8mRSiyY71xd9c2EklwSudyLVYrLzAim8xvnnw847xzvGC6QaoFZNdml19q7PvUmTYrTtSoR9u3qvvEAKsdc4+mg47rh4x7iQkivW2F5EhojIwSJyuH0lXTERmSsi74vIJBGxYef9ROQFEZkZbPtG9r9MRGaJyHQROTpSPjY4zywRuUmkvH9Xb7IrDdcd+WlSjLbteodfCUe+qxYL1/1pLjxXrWpIInId8FVgKmCTSijwSoL1snxKVZdHPl8K/EtVfyUilwaffywio4BTgNGYcPV/isiuqroVuBU4B3gDeBo4BnimXBWsRZOd6z4kFx6cJChG23ZdIFXCke/qANF1f5oLz1Uck90JwEhVdSGy7nigLnh/N1AP/Dgofyio4xwRmQWME5G5QC9VfR1ARO7B/J6yCaSmpuQTJaaN6wKploMaqkMgeR9SMbjeFi48V3EE0oeYCbFpCyQFng+yQ9ymqrcDg1R1CYCqLhERuxDvEIwGZFkYlG0J3meXZyAi52C0KAYOHEh9fX3sSq5evQ8dOzZRX/9u7GNcZ+HCnWhs3I7169cX1BbFMHv29sBOvPrqK3TpEm/oOHPmYGBXXnvtP/Tvn84SnGm0xbx5OwJDqa+Pb3yYPXsosDOvvPIqPXokmxVz8uRtgFFs3PhJ7LaYMmUAMIa33prAqlXrk6wes2d3B/ZnypTJDBiwvNX9y0Eh/4tp0wYBu/PGG2+ycOHGROs1dWovYF8mT36P7t1Xxjpm7txuwDjef38KAwcuS7R++YgjkD4BJonIv4gIJVX9bmK1MhyiqosDofOCiExrYd9c4wBtoTyzwAi72wFGjhypdXV1sSvZqxd06waFHOM6//iHGVn16NEj8d/1RjCMOOKIw2MvTzB9utkedNDBDB6cTL2yqa+vT7wtnnnGjFILuc6kSWZ7yCGH0bdvi7uWzJIlZtu9ezfq6sbFOsYuZTB27H7ss09CFQuwv3+PPcaQ1uNYyP9i0SKzHTfuAHbdNbk6QZjUdq+99ozdFh98YLajRo1Orf2yiSOQngxeqaKqi4PtUhF5HBgHfCwi2wXa0XbA0mD3hcD2kcOHAouD8qE5ystGrUbZuWyyc8HWnQTVYrIrJLlqJfwmrvp004xiq9bnqtVbp6p3Aw8CbwevB4KyxBCR7iLS074HjgImYwTjGcFuZwBPBO+fBE4Rkc4iMgLYBRgfmPfWiciBQXTd6ZFjyoKPsisN+3D6KLvqibJz9V5VS1CDq/eqKnxIIlKHCSCYizGBbS8iZ6hqklF2g4DHgwjtDhgh+KyIvAU8IiJnAfMxyV9R1Ski8ggmErARuCCIsAM4D7gL6IoJZihbQAOYh8DVEVmxuK4hufDgJIHrUXauhxL7oIaQUu6V66mDfgMcFaQMQkR2xWhMY5OqlKp+COyVo3wFJtFrrmOuBa7NUT4BGFPuOobnd/cBKBbXBZILD04S1KLJrhLzkFx9Hl0Xzi5YHuKM7TtaYQSgqjPwy1D8l1qch1QtqYNqTUOqFoHk6uChWnxIrt4rFywPcTSkCSJyJ3Bv8PlrGF+Sh9oNakh7gT4vkKpHIHkfUnG4LpxdsDzEEUjnARcA38X4kF4BbkmyUtWEN9mVhhdIIcVo25VIR1NMlJ2rWkGauC6cXXiuWhVIQfaDG4OXJ4taNNm5LpBcSAKZBKUENbgaSuy6mSpNXBfOTgskEXlEVb8iIu+TezLpnonWrEqoVZNdmmHfLpup0qRaTHau+5BcfR5dv1eu+5C+F2y/kEZFqpVaNdmlheudcJq43hbVksvOVYuF65nPXfAh5a2uzRkHnK+q86Iv4Px0quc+tWiyS/vBcbkTThPX28J1v4QPaghx/V7lI05X+tkcZceWuyLVSq2a7CA9M0uh7eeCaSEJqiVTg6tmIG+yC3H9XuWjJR/SeRhNaEcReS/yVU/g30lXrFqobZNd8j+sFK3ABzVUj8nO+5DcF0guPFct+ZAewKTZ+SVmITzLOlWNl8+8DVCLJru0HxyXO+E0cb0tXDcDeYEU4vqcsXzkFUiqugZYA5wKECwD0QXoISI9VHV+OlV0m1o22XmBlC6umy9dDyX2QQ0hrg8e8tHqrRORL4rITGAO8DImyWpZE5RWM7Voskv7wXHZb5ImrpsvXfdL+KCGENfvVd46xNjnGuBAYIaqjsAkN/U+pIDaNtm56UNy4cFJAte1Re9DKg3XzZcu+JDidKVbgizb7USknaq+BOydbLWqB2+yKw3XtYI0cV1bdN0M5AVSSLWuMxYnl91qEemByWF3v4gsxaw55KE2TXbVIpC8huR+h+96/dLE9bZw4bmKIz+PBzYCPwCeBWYDX0yyUtVErS7QF7xL/Fqud8Jp4npbhNeIfzHXsxOkiesBKC6YwuMkV90Q+Xh3gnWpSryGVBqud8Jp4npbuJ6Oxgc1hLh+r/LR0sTYdWQOhST4LICqaq+E61YV1GJQQ9qRUT6oweB6gIf3IZWG9/e1TkvzkHqmWZFqpbaDGtIx2RXryK+1oAbX26IYk50XSCGut4ULA71Yf38ROVREzgzeDxCREclWq3rwJrvScN1MlSbVkzoo/jHehxTi+r1yYaAXZ2LsFcCPgcuCok7AfUlWqpqoRZOdF0iVwfW2cN0v4boPyXXh7MJzFae6JwLHARsAVHUxJsGqh1o32SV/Ldc74TRxvS38Eual4bpwduG5iiOQNquqEvwLRaR7slWqLmrZZOdq2LcLtu4kcF0guT63pVoEkqtt4cJzFUcgPSIitwF9ROTbwD+BO5KtVvVQiyY7+3tcXQ/JBVt3EpQS1OA7OS+QolSrD6nFeUgiIsDDwG7AWmAk8DNVfSGFulUF3mRXGq478tPE9baollx2rg4Qq8Xf52TYN5jJRiLyN1UdC3ghlANvsisN17WCNHHdfOm6X8IHNYQU0xbVYrJ7Q0T2T7wmVUotmux8UENlcN186X1IpVEt98rpsG/gU8DrIjJbRN4TkfezljR3HhE5RkSmi8gsEbm09SPi4012peG6VpAmrgtn70MqDdfvlQsDvTg+pHOBeelUp/yISHvgZuCzwELgLRF5UlWnluP8tWiyS7sTcVkrSBPXzZel+Lhc1QrSxHUfUvaxlSCOD+m3gQ+pWhkHzFLVDwFE5CFMBvOyCaTaNdm5GfbtwkguCaohqMH1+oG7z2M1+NPatXNYIAW8ISL7q+pbidcmGYYACyKfFwIHRHcQkXOAcwAGDhxIfX197JM3Nh7GwoWLqa+fXXpNHWH69G2B3Vi/fkNBbVEMS5bsxubNfaivfyP2Me+91xvYh0mT3qV9+1XJVS7C+vXrE2+L5cvHsGFDZ+rr3459zPvv9wP25O23J7Jx49rkKgfMnTsCGFZQWyxa1BU4gKlTP6C+/uMkq8fkydsAoxg//k0++mhjoteyFNIWs2b1APbj/fcn07v38kTrNW3adsBI3njjdWbP3lTAkUcwZ8586uvnJFW1FokjkD4FnCsiczHZGgSjPO2ZZMXKSK4xQsYYQFVvB24HGDlypNbV1cU/ucCwYdtTV7d9KXV0ig8/NNtu3bpTV3dQotf605+ga1copM07BP/aPffciwIOK4n6+vqC6lgM/frBpk2FtUVDg9nus8++HJTsreL556F9e+jRo0fsOtr/0m677U5d3e7JVQ5YtMhsDzzwAHbdNdFL/ZdC/hd9+5rtqFFjEv/fzphhtgcffBBDhsQ/rl07GDZsB+rqdkimYq0QRyAdm3gtkmUhEJUWQ4HF5Tp5LZvsXM/UUIs+JJcDPLwPqTQqYbIrxifpdNi3qs4D+mBWif0i0CcoqxbeAnYRkREi0gk4BXiyXCf3UXal4bpfIk1cD/Bw/V55H1JIscK50j6kONm+vwfcD2wTvO4TkYuSrli5UNVG4ELgOeAD4BFVnVK+89eeQKqWKLtaFEguR9m5fq9cnxhbDQJJxOHUQQFnAQfYpcxF5DrgdeD3SVasnKjq08DTSZy7qcndEVmx+Ci7ylANUXaF/tf9PKQQ15efgCow2WEcCVsjn7eShnOhSqhFDcn1UbefGBvi5yGFuC6Q0myLWg77/jPwpog8Hnw+AbgzsRpVGbUc1OCqQKrlibEuC6RqqF/0mq5RDW3hvMlOVW8UkXrgUIxmdKaqvpN0xaoFryGVRjEmz1o12VVDh+96/cDdAWK1CCQnNaQgoeoAVX1GVScCE4Py40SknarGn71Xo7g+IiuW8IH2PqQ0qYagBpd9SD6oIaQWfUi/xkSlZTM1+K7N4/qIrFh8KHFlKMZH4+chhbg+QExz/ly1+pBa6kr7q+rc7EJVnQX0T6xGVYTrI7Jicd0M5IMaQvzgIcR1gVQNbVFpH1JLAqlrC991L3dFqhHXH4BicT1Tgw9qCHF98FANnXBaVENbuGyy+6eIXBssQfFfROQq4MVkq1Ud1LrJzndy6eJ6WxQTgFINc2/Sohp8SJU22bUUZXcx8EdglohMCsr2AiYAZydcr6rAm+xKx/VOOE2qIajBZW3W9eexGgI8Km2yyyuQgswMp4rIjsDooHiKXVfI476JoFjSfnBc7oTTpBoyNbhev+g1XaMaAjwqbbKLMw/pQ8ALoRy4biIoFtdTB/mghhDXw769QAqphraotECqsa40XVw3ERRLtYy6fVBD9aQOcrkTTgvvQ4px/cpduvpx/QEolmoRSF5DSnduSzXUL3pN10h78BC9Zlwq7UOKs/zEvXHK2iKuPwDFUi1h37UokFw3ibl8r1y3WFRD5vNqMNmNjn4QkfbA2GSqU124/gAUi+/kKkM1mMRcF5jRa7qGD2ponbx/LxG5TETWAXuKyFoRWRd8Xgo8kVoNHcb1B6BYXF+gzwc1hHgfUojrz2MltMWa8SGp6i9VtSfwa1Xtpao9g1d/Vb0sxTo6S62b7NKIsisl7NsHNbivzXofUkg1COdK+5DirId0uYh8CbP8hAKvqurfEq1VleBNdqXjeiecJq63hev1c/15rIRAKhRnTXYRbgbOBd4HJgPnisjNidaqSnB9RFYsvpOrDK63hfchlUbapvBi+qVKm+ziaEhHAGNUTTVF5G6McGrzuD4iKxYvkCpDMZ1ItSw/4QVS+mmUimmHSpvs4vz9pwPDIp+3B95LpjrVhesPQLG4vkBfmn6JNKmG9YZcvleuP4+uD/Sg8ia7OBpSf+ADERkffN4feF1EngRQ1eOSqpzr1LrJztVOrpY1JJfbohrqB+4+j67fK6gOgfSzxGtRpXiTXem47pdIk2ro8F2+V64/j67fK6gCH5KqvgwgIr2i+6vqygTrVRW4biIoljQzNTQ1Qfv2hR3jBVKIn4cU4vrz6Lq/D6rAhyQi54jIxxi/0QTg7WDb5nHdRFAsrpsWanlirMsaiOtmINcFUlKm8FdegWXLMsuSvFcrVsCGDYWfOw5xTHY/Akar6vJkqlC9uG4iKBbXO7lanRhbDRqIy6PuahFI5b5XRxwBI0fCtGlhWbH3Ko7JbsAA2GEHmDu38PO3ev0Y+8wGPin/pd1k1qweTJoUb1/XH4BicT11kDfZhaRtsivGGuA1JEMS98oK+unTM8uL9SHFHTzMm1f4ueMQp8qXAf8RkdtE5Cb7SqY6ICJXisgiEZkUvD4X+e4yEZklItNF5OhI+VgReT/47iYRc+tFpLOIPByUvykiw1u7flOTsHlzvLrWvsnOzbBvL5BCXF9+AtITSK5bLJL4327Zkru8FB+S00ENwG3Ai5jJsGkZSX6rqjdEC0RkFHAKJvv4YOCfIrKrqm4FbgXOAd4AngaOAZ4BzgJWqerOInIKcB3w1dYuvnVrvEq6/gAUi+tmIC+QQly/V5Be5Fax9UuLJCwP+QSS64OHfMQRSI2q+sPEa9I6xwMPqeomYI6IzALGichcoJeqvg4gIvcAJ2AE0vHAlcHxjwJ/EBGxWSfyEVcguW4iKBbXw1N9UEOI6/cK0vUhufwsJuH7LLdAcj7sG3hJRM4B/g5ssoUJh31fKCKnY6L5LlbVVcAQjAZkWRiUbQneZ5cTbBcE9W0UkTWYib4ZARrB7zvHfBrLhAmTaGxc3WolFy7sChzAtGlTqa9fWtgvdJgpU3oB+7JxYwP19fWJXmvNmn1R3UJ9ffxsVOvWdQAOZcaMWdTXL2x1/3Kwfv36xNvik08OYOnSNdTXT2t954CPPuoCHMgHH0yjvv6j5CoHLFs2hg0bOhfcFqqHMW/eIurrP0yucsDcuSOAYdTXv5zodaIU0haNjQIcwYcfzqG+vjxOmFWrOgKHAGTUY8GCnWlqGkR9/b8LOt+GDWNZtmwT9fWTW9irrtn1ykUcgXRasI0uOaHAjsVeVET+CWyb46ufYMxvPw+u8XPgN8C3yD0pRlsop5XvwgLV24HbTd320z322Ju6upZ/A4SOxNGjR1FXN6r1A6qELl3stit1dQckeq0ePaB/f6iL0+ABq1eb7U477Uxd3c6J1Cub+vr6gupYDJ07w7bbdqWuLtejkRvrXB45cjfq6nZLqGaGfv1g0ybo0aNHQW3Rvj1sv/0w6uqGtb5zCTz3nLlW0vcpSiH/i8ZGsx0+fAR1dSPKcv1Fi8L30Xo8+ih07Fh4W/TsCf369Yx1XBLtHGdibHlaLvOcR8bZT0TuAP4RfFyIyaNnGQosDsqH5iiPHrNQRDoAvYFWNbu2brJz3VHufUgh3ocUUi0mO+9Dyk+cibEdReS7IvJo8LpQRDomVSER2S7y8UTMkhcATwKnBJFzI4BdgPGqugRYJyIHBtF1pxOuaPskcEbw/iTgxdb8RxCOZFqj1qPsXE2u6gVSiPchhbgukJIOarCWA3uNYgcPLd2ruIP1YoljsrsV6AjcEnz+RlB2dkJ1ul5E9saY1uYC3wFQ1Ski8ggwFWgELggi7ADOA+4CumKCGZ4Jyu8E7g0CIFZiovRaxUfZma2ro1of1BBSLeloXP0vpUnSQQ19+4btnNScsbiD9WKJI5D2V9W9Ip9fFJF3k6qQqn6jhe+uBa7NUT4BGJOjvAE4udA6tHWTnesCyWdqCEmzLVw3AxWrwaVNNZvs8l2vXMS5fVtFZCf7QUR2BBJW3CpL3FGA7QSq4SEoBNdn/3uTXYjrgwdIz4dUrAaXJuUWzvkm8Sd1r5IWSHE0pP/BhH5/iHEq7ACcmWitKkxb15BcX6DPC6QQ70MKcd1kB+UXSC1pSEncq4oKJBFpD+yFCSAYiemhpgWTU2uWQgVSrWpIrnYiXiCFpK3Num6yc10glVtbzBYQW7ea0Pek7lVFTXZB0MBxqrpJVd9T1XdrXRhB4SY71x+CQnHdDFTLQQ0uC6Rq8CG5/iyWW1vMFhAbN5pttfqQ4pjs/iMifwAeBv67CoaqTkysVhWmrZvsqiXsu9aCGqohdZDLPqRqCGpI2mS3caOZbJ7UvXIhyu7gYHt1pEyBT5e/Om7gTXZm62onV6smu2pYD8llH1JbDGrIFkifBAsFlaIhOetDCji5rS3O5012ZusFUrq4br4sZrl58Ca7KGloSGAEU9euhZ+vEIFk/VXlJO94R0S+KCLLgPdEZKGIHJxv31qjrZvs0u7kXDZTpYnr5stqWKDP9WextUwIhZJPQ1q7Fnr3Lvx8hYR925DzefPgqKMKv1bO67fw3bXAYao6GPgy8MvyXNJ9fOogs3V9gb5a9CG5rC1u3gydOhV+XFo+pMZG6BDH5lNB0tKQ1qwpTiAVoiFt2QITJsBFF8ELLxR+rVy0dPsaVXUagKq+KSI9y3NJ9/Gpg8zW1VGt15BC0hZInTsXflxaPqSNG4szU6VJWj6kNWtgyJDm+7dGIVF2mzfD/vsXfo2WaEkgbSMiP8z3WVVvLG9V3KGtm+xcF0hQ+azESdDYaJYMKIQ079WmTcVpSGndKy+QSjfZFZLLLl+WiFJoSSDdAfRs4XPN4k12/32X+LW8QAoppsOvBpOdF0ghSU+MLdVkV4gPKYmIu7wCSVWvKv/lqoO2brJLM6jBCySDqnnAXRdIxZjs0vIhbdwYLi7pKklPjP3kE9N/rV8PvXoVfj4RWLDAmPvq62GXXfJfLwkNqcbG9uXBm+zMNq3UQcVomOWOVqo09kEvtMNPc/BQismulHvV1BTv+GrQkNIIali3zrwv1mS3eLF53XJL8++T1pC8QMpBXJOdFVzljsWvNGma7FzPj5YWdrRZrIaUhnAuJaihlHt1zDHxnjEvkODtt+FvfzPvi9WQcnHbbbDnnslrSI4HSVaGuBqSvTmFOqJdxwc1pM+mIEOkyya7SgU1xA0p9gIJ/vxn84LifUiWaD3PPbf59SqiIYnIIBG5U0SeCT6PEpGzyl8VNxDxAskLpPQpVUNyOaghTR+S6wIp6aCGKMWa7Cy2ngMHhmU2aAIq50O6C3gOGBx8ngF8v/xVcYe4JjsvkErH9YSdaWEf7kJNYmndq61bjVnQz0MqjXK1xfTp8PrrLQukUk12tp7LI4njrH8KKieQBqjqI0ATgKo2UsMrxopom9eQXF+gD9Lr5NLCdQ2pWJMi+LDvKIW2xde+Bgcc0Lx8t93g4IPLryHlM9lZ1q4N36ca9h1hg4j0x2T4RkQOBNaUvyruEFcgWU2q1gRSmo7yYhM01prJznUfUrEaHJTvXrWWS6+hofYE0gMPtPx9Gia7KElrSHEE0g+BJ4GdROTfwEDgpPJXxQ1EvMkuTZNdQ0Nxc0dqTSDVsoZULvPq5s35/yuNjeZVawKpNZI02bWmIW1KYKnWVgWSqk4UkSMIlzCfrqoJr4pRWQo12bme0LFQ0gz73rSpsqNuVyhWA0lrHlKxAhNKM69GO71Nm/ILpMmTzdZ1gVRu32dLWkq3boWfL1sgZdc1qiElIZDiRNmdDHRV1SnACcDDIrJv+aviBj7KLr1Rt2rLnUxL1GpQg6vzkCplslsTcQ601AHus4/Zui6QyuH7nDMnfB+Nest1rULJ9iFlW4uiAqmhofxJAeIENfw/VV0nIocCRwN3A7eWtxpu4U12Zpt0h79li7mGy5FbaVGKSQzcNtmlIZAs1SCQSrlXTU2w447h5xUrSq9TlGwNKVsDyxZI5SaOQLL6wueBW1X1CaDIx8Z9fJRdemYg28F4H1LpJjGXgxpK0WbjCKTouWtZIL36avMAoIULS69TlKhA2rq1uUCK+pAqJZAWichtwFeAp0Wkc8zjqpa2LpDSWqDP/qG9D8mNKLaWKFVDKlabzedE/+QT+MUvzDbaabr+LBZ7r7Zuhf/93+blCxaUXqcoUZPdpk3NBwGrVoVtfPHF5f/fxREsX8FMjD1GVVcD/YAflbca7uCj7NKP3PIaUvVoSGnXL1+Y8QMPwE9+AlddlelHWbasuOukRbt2JteciOnc87F1K/ToEX7etCn39IgNG8pbv6iGtGlTcw1p2TLo1y+5JXdaPa2qfqKqjwFrRGQY0BGYVspFReRkEZkiIk0isl/Wd5eJyCwRmS4iR0fKx4rI+8F3N4mYphORziLycFD+pogMjxxzhojMDF5nxK1fofOQajW5atKdXCkaUtpBDU1N8OMfh9Fc5cbliadbt8JPf2rep63BRc1C0dG69Z38/e+ZAmnvvYu7TlqIhFrfO+/k32/9+kxhk08gRenXrzz1i14zWyBt2AA9eya3zEecKLvjRGQmMAd4Odg+U+J1JwNfAl7JutYo4BRgNHAMcIuI2NtwK3AOsEvwOiYoPwtYpao7A78FrgvO1Q+4AjgAGAdcISJ9W6tYoVF2HTvW7vITSYd92w7GtaCGOXOaz++YPbsH118PZ5+dzDVL0UBaEs4ffxw/OWkuVOHxx+GVV5KpX2vkE0izZ5vt4sXhPrfcAgcdVNx10iLaV6xcmX+/bP9MQ0N+gfT//h/cdx+ccELJ1WsmkHL57SoqkICfAwcCM1R1BHAk8O9SLqqqH6jq9BxfHQ88pKqbVHUOMAsYJyLbAb1U9XVVVeAeTAi6Pebu4P2jwGcC7elo4AVVXamqq4AXCIVYixRisqs1cx2kF9RgHzqXTHbr1sHuu5sHfM4cYyfftAkmTeoDFDe3Iw6l+pCiwvkPf4CnnjLvzz0XjjoKPvywuHrdcw+cfHL4udj6bd5szGs331zYsdnzkCyzZpnt2rXhst3l0BCSJq5Ayg7nbklD2nZbk2Jo3LiwzGbnLpSoKa6hIfc8p549k5t7GUcgbVHVFUA7EWmnqi8BeydTHYYAUTfdwqBsSPA+uzzjmCDP3hqgfwvnapFCo+xqUSCl7UNyyZG/bJmp1+LFcO21cOONcP/98NZbprdTNQ/q3/9e3uuW00dz0UXwhS+Y91ZQ3XVXcfX6178yPxdbvxdegCuvNHUrhHwakhVIqqHfyPUIO8gUSEuX5t8vl0DK57fpG9h9zjnHmJSbmnIvrldo/XKZ7MAIpGzrxAUXFHe9bOLIudUi0gNjXrtfRJYCreoQIvJPYNscX/0kCB3PeViOMm2hvNhjMi8qcg7GHEiHDmNYvnwl9fXv5aliyNy5u6C6DfX1JSmMzvHJJ+2Bw2ho2Ex9fT2PPTaEFSs68e1vz2n12EKYOLEPsDcffPAOnTsXlh5xy5aDWLx4JfX1uRTt4pk5swewH1OnzuOjj7oAgzj33Ca2bDECacaMjZx22goef3wot976Nrvttq7F88Xlgw+2B3bijTdeoUuXwmyRqocxf/4innhiPp06NQGHA1BfX8/GjbsB2/LSS8uor59SRL32ZPvtu7BggVEN33nnTXr3Xk99fX3sc6xbty9g8tj07r2Z+vr/ZHzf2Chs3Sp07tz8d0+ZYtoFYOLEKfTsuYzNm9uxcOFhDBy4iWXLunDDDYuBwUyf/i719S1ECiTA+vWFtUVDwzjAtOVbby2ivn5mzv1mzDD/Q8urr77F0qVDCBddCFmwIPN3v/xy7Oo04+OPRwLbAbBixTrefHMWsE/GPhs3fsymTf0w4QRwyinzOemkDwvWfnOiqi2+gO5Ae4zwOgP4LtC/tePivIB6YL/I58uAyyKfnwMOClpoWqT8VOC26D7B+w7Acoww+u8+wXe3Aae2VqeuXffWujqNxbe/rbrttvH2rSbWrTNJQ77znVmqahOIlP86Tz9tzvv664UfO3So6plnlr9OL71k6vTd76ruvXf420H1q19V7dRJ9dOfNp+ffba0a23cqNrUZN5ffbU555YthZ+nWzfViy9W3Xdf1QsvDOu7cqXqcceZ95/9bHF1HD5c9dRTw3POn6/60ksvFXSOAw8Mj+/fv/n3Bx2U//911VXhsffdp/qf/4Sfjz8+8/688krBP69kCm2L3XbLrH8+Xn0187e9+abq2WeHnydMyPyuXJx5ZnjeUaNUX3ghsx5g6tGrl3m/556qa9eaY4EJWqJMiBNlt0FVt6pqo6rerao3qTHhJcGTwClB5NwITPDCeFVdAqwTkQMD/9DpwBORY2wE3UnAi0HjPAccJSJ9g2CGo4KyVvEmO7O15qlyM2EC3Hmnm2HfdiLm2rUwbZrxIf3lL3D33eM57DBjwrCmlrjZjmfOhCOPzJzkCTByJOy3XzgBsV274mzzti3mzcv0FU2ZEkZ0WT9LITQ0mHPuuiv06WPKiq2fZf365t+//rrZ5nrusk123/te+Hns2Mx9q81kt2RJ/v2yTXaPPQZ//GP4Obpo3pgx5akbxPch2Xt15ZXmc9mu39oOIvKlIGx6jYisFZF1IrK2teNaOeeJIrIQo/08JSLPAajJl/cIMBV4FrhAVe3f9Dzgj5hAh9mEkX53Av1FZBYmM/mlwblWYgIy3gpeVwdlrdTN+5DsQ7NmTUfef7/8599/fxOt5uLEWCs0Zsww9dt1VzjpJBg27BO2DQzQH39sti05paNcdJHxxUQtO42NMH8+TJwIb71V/GqsELbFunWZqWQWLgwFUtz5Ki++aO7Pv/8N775rzjt6NPz61+b7Upc02LQpf9BQrkmeUYH03numvSzZAimpyK9yksuH9NhjzVMAZQuk667L/Ny/v9keeWR5A23i+pBsH9m9e/muDfF8SNcDX1TVD8p1UVV9HHg8z3fXAtfmKJ8ANBsLqGoDcHJ2efDdn4A/FVo/H2Vntg8/PIyddw7Ly/F7o+HUdtReTg1p3ToTjVToQ/rLX5pjtzPmc6YFM+2GDQv3sZ2AXUEzbh4xG6IcHUlGMxCsWmUe/lIEkh3NLl4clq9eXbhA+uc/jQb7ox/BcceZsiOOgG22KT7kPXtaxIYNuQXbjBkwfHhmmY0us5kKevYMJ8tGc7pB9WlIS5ea/9KXv2zmT0XnJbWUNBXMb12yBAYMSK5+cYIayi2Q4kTZfVxOYeQ6hcxDamysTYEU/VP+J+J/zmVuiUtjo/kTT5oUltnoqHJqSL16Ga2mUC6/3AilCRPMZ6v9bL99uI99+O1142pINiIs2slEzXdr15qOqViB1K5deL6oGShbIJ14ohE0q1cb7eLdd813r78evrfC9v33TSTh6NFGGJWCfZ6shpktHO35Z8xofmxDQ6bwOv98oyk98URzoVYNAilqEvvkk/A3R58LaF0gtWtn2rPc4dfR+i1fDl/9qnk/c2Y4QOnRIzkNKa9ACkx1XwImBJkQTrVlQXnN4k124XurKUBmGpdC6dsXTjstMxmkNVkUm6kh38TYRYualzU2mtDUaOr+XDzySObnXALJUmim5agfJyqQxo83oeU2fLdQRMLzRbX7NWvC8g0bjDnuscdMCPbEiSb1DpilsG2GAztIWL/eDEbOOae4OkWxQnGHHcJzR7GCZf785sdmC6TzzoM99jCdY7ZAqjaTHWQKonnzwvfF+PzKQb5J/p06wS67mPfLl1dAIAFfDF69gE8wQQG27AvlrYY7FJrLrtYFUnTEXaxAamgwndDDD+cWSKWa7BoaWp/4+cYbZm7GWWeZzytXmnPceac5j/3NUZ9Fr16Zq25mT7xcsQI++MAIlHxEz5dPINlMCnfc0fJvyEdUIEX5+OMwcGTNGiMYPvwQpk41ZdkTLd97z9wTa+7cd9/yzC+xAmlIMAswqiHdfLMZfUNuAd/QkGl+tUINmmtE1aAhtSSQrHYOrWtISZFPIHXuHGpIo0aF5an5kFT1zPJeqnrI1pAaGsyDc9FFZqTwySdwzTWmg651gRSlUJPdj35kzD5PPx2WPflk+N4GB5RqsvvWt+DBB1t+iLOjBe1o9KabjFkil/kvqh2BufdRH8bKleHD2dQE3/8+nHoqHHhgeExUUDzwANTVmbpEBbPNjxedaV8I0fxoUWyQwDbbZE7CvDvIa9LQkHncJZcYDemYY4zw/d73ypOn0V5jcDCFxv6PliyBCy8M94sKpM9+1mQf2LgxHLAcf3zmeUVgt91CLb6aNKSBA01bRwXS3/4Gf/0rHHpo5QXSjjtmDvI6dYLDDzc+Smt6hcwEsOUgTpTdjiLydxFZJiJLReSJICS7JskVZfd//wf/8z/h7Odf/9r4G/7979oUSO3bZ+YEs3bqQjWkG26A6dMzO99o1N7SpeZapYQ6AzwXBPNPj8yRnT8fnn0Wvvtds5/VTrKFX3SmfzYjcvzLo0EZUdNgQ4MRbtm51KIC6fnnYa+9TCf69a9n1mHAgOJH+Pk0JGsCs4EaFmu2/PDD8DeMGmXaceZMo8nccUf5wonzaUhvvZW5n/VfrV1rgivOPBOeecYImvXrTWedzQcR73Y15JS0dbTBMhMnmnu/994mXdWDD8LVV4cC6be/zTy+e/fWzc7lwJrnLNa/ud12me1ciaCGBzCh2Nthpgn/BXiovNVwi+zEmtaEZ//89sGB5HI6VRIR4z84+GDzQ23HnC2QXn4Z/pQnhvG++8L30QfIakVgOsRitCPITNhpfQnvRZJr7LADHHss/P73xolvR9/2wbIPfEsCKfuhhFDTOvXUTP9avgCHbEGR/dmO6rO1sULIJ5CsFhgVSNGowblzzQvgSxGvcKlBDPnI1pCyTZ32HmUvOteli+n4aiGrvg0aGDEChg411pjBg80gxaJq/p89esB3vpN5fO/ezSMRy8mLL5ptdMAEzQNufv978z8p9z2JI5BEVe8NJsY2qup95EnBUwu0b6//Xafkl7+EPfcMO575842Kfeed4f61qCFZ9tvPNIQVRNkCqa7O+GTGjDGdujURLVgA3/hGuF/2XCbbKa5bl/kgFkI0oWgugRRl3bpwEGEFYNSPkU8gZYcVQ9i5Zzv7o+YNEWPSBSMMW8IKolIFUrbJbpttQv+RFQSDBoVmwfPPNwMtOyn1M58Jj41OuiwnVkM6+WQj2LMjy+w9KnQV1OzO02WsdtGzp5lw/bnPmaSz0fu/Zo3R6Lt2bW6GjLOMeykce6zZRhPqQvOB94UXZg4uy0UcgfSSiFwqIsNFZAcRuQQzmbVfsMRDTdGhg7J6tTEnXX656UytD2TSJNhnn0z7bi0LpE9/2vzj6urM53w+pClTjJlh2DD41a8yZ5SDacNevcyIEGCnncLvHn64uLrZuSkQmg3yCaS1azP9E01NoQBRDR8sm43AYjvyKJMmGYE7blzmvbdzjSxXXmm2uTQXS5cuYaBEKQIpV8Rh1M5vheiOOxqz8/PPm8m+YExiHTpk+r0OPbT4urREtD0POSTMSA6m7ZcvN74jO7CxgrGlNgS4997qWazRCqQuXUybP/WUWTYiev83bTIad7duZv+odpJE5pQoN9xgBmudO2dOVE7LHBrH4BREopOlPPItjKaUYxxZvbRvb/7Z0YfFRpp99FHz/WtZIPXu3cj8+cZ08NBDoYZko9KsYxbg0UfN9rLLmmclnjnT7Nunjxn9Rh++6MTbQujXLxQydoBg59JkE9WQ1q0zzvvf/MZ83rrVmB+GDDEC8803w+NGjmx+rqg5a+xYE70HzQWSHdm21Jl27Rqa1Q44IP9+rWE7i6hfbdttQwFtBdKIEeY+fPazoX9pwgQT9h0diY8eXXxdWiIqkKIZF+x3q1cb39Ghh5rfctttxpTYmpZZTUQFUpTsAcmiRaFPsXv3cILqEUckW7927cKoxqFDjQnP+mjTIE4uuxEtvGpKGIHRkCAzGgzyp36vZYEE5kHp08c8QFYwH3+86fCWL4crrjACKyqsm5pMwMdee5nPc+aYc1hT6D6ZyYOLYtttw2vaDivbhGAdwlEN6dlnQ2EEJmpo0iQTEWjnAV16qVmQrrWOOapJ5BJIqi0LpO23D3/Dpz7V8rVawnZyAwaEWp41j0GoLUVNkNHvrQY8Z07uOVzlonfv/IvIRQOJFi40gt920q1pSNVEPoFkrQeW//wn/D9aAfGznzWfJ5c0n/qUsXqkRayV0UXkYBE5TUROt6+kK1YprEB6+mljgrI+h6iNPUqtCyQwD9G++4bzJP7+d9P5q5oHKZevZa+9Mh+ePn3C4JBTToFXX82cCFgo225r6nDPPfnnIO2xh9muW5c7TxpkRoBZ09+gQXDYYa3X4ctfDufF5HLQ9+oFv/tdfnPHPfeYyanbb9+8QyoEe/6ddgpNgNHzWeETvU/t24epkE45xWyHD89tpiwn11+fu/zii8P38+aZegwaZD7XkoZkNdjsYJ5c99+GxNv/5X77lT+qzTXihH3fC9wAHArsH7z2a/GgKqZDB2OM37zZdGh25Gadfdm0BYEExmcycWJmhCGYB8l2ytEw4e7dMzMP9OkD//iHyUiw7bZGu4hGfBXKoEGmo7LBBXZBOjAazk9+EvqqHnoI3n675fP16RM+7HETiB54oIlSO+mk5hoSGJ/bggW5syGvWWOE9jXX5M5QUAitCaRx44xWaP1GltdeM/W2gjsNsv101gS6/fZmpVsw6XS22Sb8LjvqtZqxprdsDWnbbc3gJRrabgML7P8yqdWKXSKOD2k/YFSwpEPN0769/tcWP2pU6EvaZx/Tgc6fD5//fFjeVgTSwQebBya7Uxs61EQJHXWU6dis+QcyO58+fcz35er8rBnKRh0ddJCZyLliRZh/y4Zi//Wv5t6NHm2c+Lno0yec5FdoRutvfCP0oeWid+/mUXDlTNlvO+wddwwHDFGB1K4d/PCHzY8rNsKxUH7zm9AUGG3bBx80WuIzzxjt2f5f5s0zvpLOnU29v/jFdOqZBja6M5dw+d73wjB8CPsWu28tTjHJJo7JbjK5V36tWezIPerUHjPGdLpgOiCrDZSzY3GZE080Dubs1SiHDjXC+sILm5vuOnYM26fYPG352DbrHzl/vknFb4URZN6bs8/Onc3AUoyGZIl2/pdd1vz7XL+9nFFLNgtDPg2p0vzwh6HfLhoxdsAB4efNmzMHMNZc95vfZA5yqh1rpo6mQIpi7180EtX+LyuV3y5N4gikAcBUEXlORJ60r6QrVkl++lOz3WefMOnkgAHm4bj8cpPTyY50kpyk5hIdOpjw2tNOMymUwDwo0c7bdiJRbIRXtqmmVKxA+ta3jAZweg6vZlR7PfzwMLAhmubf0rdv8RpS1O/y85+b7BBRovN6rrgiv/m3WM4800T8fepTxi8k0jw7g4v07Rv6ScaNyxTcSU3OrTTWZBcVOFF69TKTyl99NSy77TYz0Col8KVaiKMEXpl0JVzj7LPNhLXBg41GYMOde/WCa4OVmmy4c1sRSGBMB/ffb4IbbKh0dKTfqRN8+9uZ/pyBA41PoNwCae+9zb34zncyJyrnY/fdjaA4//zcoea9e4cj0WhC1ThEO8/27UNh0LGjMacNHGg6lXffDecnlZNotoxjjjGmyuxEsC7Sq5fRaq0zIKrB5hrc1BK50lJZvva1zM/Dhxs/aFugVYGkqi+3tk8tYke92RmfLXaSaEt/rFrFRmflMgvdfnvmZ6sdlNu02b690VbjMnCgWbrgvPNyf9+hg1lHqXfvwrWL7CkBF19stOsHHjA+kgEDyrOMQxw+/3nzqgay2y2Xya5WaQsBCsXQ0npI64Ily7NfJS9hXkvkswXXMnZdoDh+CiuQSllLqRxk+2xyCZ0vfMEEBZQqPDt2hKOPDjWupFLxxKFcCVLTICqQavW5qoYlMipJS8tPtBF3fXEcdZRJwVLr8wJy0aOHGcHG6ey+/nWTOfrgg5OvVy7+9a/cncDChSZCLzpSFSk+kik6UddipwxUyny2dq2bUaCXX5577ljXrsYUe8QRubNk1AJLllRPmqNK0AYCCZPhyScrt2ZJpRExmc/jrIVy+OEmc0Ollgb49Kdzl7drV97R6qxZzRd2tJ+LXZq8VFyNALV+2GxEcgec1BKFBsy0NbxAKpLOnYtfOqEWKCSM2+V1aiZOLE/9cmnKViC5qKV4PC4SK3WQx1OrREP7y41d8nn//ZM5v8dTa3gNyeNJiC9/OVzXxuPxtI7XkDyeBPHCyOOJjxdIHo/H43ECL5A8Ho/H4wReIHk8Ho/HCbxA8ng8Ho8TVEQgicjJIjJFRJpEZL9I+XAR2Sgik4LX/0W+Gysi74vILBG5ScTMHhGRziLycFD+pogMjxxzhojMDF5npPojPR6Px1MQldKQJgNfAl7J8d1sVd07eJ0bKb8VOAfYJXgdE5SfBaxS1Z2B3wLXAYhIP+AK4ABgHHCFiJR5VR6Px+PxlIuKCCRV/UBVp8fdX0S2A3qp6uvByrX3ACcEXx8P3B28fxT4TKA9HQ28oKorVXUV8AKhEPN4PB6PY7g4MXaEiLwDrAV+qqqvAkOAhZF9FgZlBNsFAKraKCJrgP7R8hzHZCAi52C0L4BNIjK5TL+l2hkALK90JRzBt0WIb4sQ3xYhJafETUwgicg/yb30+U9U9Yk8hy0BhqnqChEZC/xNREYDubKN2Zy5+b5r6ZjMQtXbgduDek9Q1f1y7dfW8G0R4tsixLdFiG+LEBGZUOo5EhNIqnpkEcdsAjYF798WkdnArhjtJrr6zlBgcfB+IbA9sFBEOgC9gZVBeV3WMfWF1snj8Xg86eBU2LeIDBSR9sH7HTHBCx+q6hJgnYgcGPiHTgeslvUkYCPoTgJeDPxMzwFHiUjfIJjhqKDM4/F4PA5SER+SiJwI/B4YCDwlIpNU9WjgcOBqEWkEtgLnqurK4LDzgLuArsAzwQvgTuBeEZmF0YxOAVDVlSLyc+CtYL+rI+dqidtb36XN4NsixLdFiG+LEN8WISW3hahfvtDj8Xg8DuCUyc7j8Xg8bRcvkDwej8fjBF4gRRCRY0RkepCG6NJK1ydpRORPIrI0Ou9KRPqJyAtBuqUXotktROSyoG2mi8jRlal1MojI9iLykoh8EKS1+l5Q3ubaQ0S6iMh4EXk3aIurgvI21xYAItJeRN4RkX8En9tkOwCIyNwghdskG+Zd1vZQVf8yfrT2wGxgR6AT8C4wqtL1Svg3Hw7sC0yOlF0PXBq8vxS4Lng/KmiTzsCIoK3aV/o3lLEttgP2Dd73BGYEv7nNtQdmDl+P4H1H4E3gwLbYFsHv+yHwAPCP4HObbIfgN84FBmSVla09vIYUMg6Ypaofqupm4CFMWqKaRVVfwUQmRommYrqbzBRND6nqJlWdA8zCtFlNoKpLVHVi8H4d8AEms0ebaw81rA8+dgxeShtsCxEZCnwe+GOkuM21QyuUrT28QAqJnWqoxhmkZt4XwXaboLzNtE+QMX4fjGbQJtsjMFNNApZickK21bb4HXAJ0BQpa4vtYFHgeRF5O0i5BmVsDxdz2VWK2KmG2ihton1EpAfwV+D7qro2WOUk5645ymqmPVR1K7C3iPQBHheRMS3sXpNtISJfAJaqyRpTF+eQHGVV3w5ZHKKqi0VkG+AFEZnWwr4Ft4fXkEJsCiJLND1RW+LjILu6zbK+NCiv+fYRkY4YYXS/qj4WFLfZ9gBQ1dWYlFvH0Pba4hDgOBGZizHhf1pE7qPttcN/UdXFwXYp8DjGBFe29vACKeQtYBcRGSEinTAZH56scJ0qQTQV0xlkpmg6RcyCiCMwaZ3GV6B+iRCkpLoT+EBVb4x81ebaI0jh1Sd43xU4EphGG2sLVb1MVYeq6nBMf/Ciqn6dNtYOFhHpLiI97XtMOrbJlLM9Kh214dIL+Bwmumo2Jit5xeuU8O99EJNhfQtmNHMWZumOfwEzg22/yP4/CdpmOnBspetf5rY4FGNOeA+YFLw+1xbbA9gTeCdoi8nAz4LyNtcWkd9XRxhl1ybbAROB/G7wmmL7yHK2h08d5PF4PB4n8CY7j8fj8TiBF0gej8fjcQIvkDwej8fjBF4geTwej8cJvEDyeDwejxN4geTxlAkR6R9kQZ4kIh+JyKLg/XoRuSWha35fRE4vw3keEpFdylEnj6dYfNi3x5MAInIlsF5Vb0jwGh2AiZgs5Y0lnusI4Ouq+u2yVM7jKQKvIXk8CSMidZG1dK4UkbtF5PlgbZkvicj1wRozzwbpixCRsSLycpDE8jmbmiWLTwMTrTASkXoR+a2IvCJmXaf9ReSxYJ2aa4J9uovIU2LWOposIl8NzvUqcGQg5DyeiuAFkseTPjthljQ4HrgPeElV9wA2Ap8PhNLvgZNUdSzwJ+DaHOc5BHg7q2yzqh4O/B8mhcsFwBjgmyLSH5OTbrGq7qWqY4BnAVS1CbM8wF5l/aUeTwF4geTxpM8zqroFeB+zMOSzQfn7wHBgJEaIvBAsAfFTTGLKbLYDlmWV2fyL7wNT1KzztAn4EJPo8n2MJnSdiBymqmsixy4FBpf42zyeovHquceTPpvAaCUiskVDR24T5pkUjDA5qJXzbAS65Dp3cK5NkfImoIOqzhCRsZg8fb8UkedV9epgny7BOT2eiuA1JI/HPaYDA0XkIDDLYojI6Bz7fQDsXMiJRWQw8Imq3gfcgFnC3rIrJmmmx1MRvIbk8TiGqm4WkZOAm0SkN+Y5/R3NhcUzwL0Fnn4P4Nci0oTJ8n4egIgMAjZqsPKnx1MJfNi3x1PFiMjjwCWqOrPE8/wAWKuqd5anZh5P4XiTncdT3VyKCW4oldXA3WU4j8dTNF5D8ng8Ho8TeA3J4/F4PE7gBZLH4/F4nMALJI/H4/E4gRdIHo/H43ECL5A8Ho/H4wT/H/pC5SJ5K06bAAAAAElFTkSuQmCC;imageBorder=default;" vertex="1" parent="1">
          <mxGeometry x="330" y="260" width="420" height="278" as="geometry" />
        </mxCell>
        <mxCell id="_TGiCRJFAITHIr49HdVO-5" value="" style="shape=image;verticalLabelPosition=bottom;labelBackgroundColor=default;verticalAlign=top;aspect=fixed;imageAspect=0;image=data:image/png,iVBORw0KGgoAAAANSUhEUgAAAaQAAAEWCAYAAAApTuNLAAAAOXRFWHRTb2Z0d2FyZQBNYXRwbG90bGliIHZlcnNpb24zLjUuMSwgaHR0cHM6Ly9tYXRwbG90bGliLm9yZy/YYfK9AAAACXBIWXMAAAsTAAALEwEAmpwYAABkgUlEQVR4nO2deZhcRdW43zNZZjKZ7AkhCyEhhLAkBAiEHQZFEdkFFEQWUVHgA1HkJ7iBIq4oigsf8qFsyiICIgiyZUBlCQFCwpJASAKE7Hsmy2QmOb8/6ha3+s7tntt790y9z9PP7a671a2uW6fOqVOnRFXxeDwej6fc1JQ7Ax6Px+PxgBdIHo/H46kQvEDyeDweT0XgBZLH4/F4KgIvkDwej8dTEXiB5PF4PJ6KwAskT6dCRM4QkceKdO1RItIsIt2Kcf1KR0ReF5HGcufD03nxAslTckRkgYgsFZHeTtoXRaQp32ur6p9V9eP5Xgc+zOeRzrXfU9UGVd1aiOtH7qUisiEQeCtF5EkR+UwW5zeKyMI87j86yENz8FkqIr8XkR72GFXdQ1WbguOvEpE7crzXVSLSGtxnjYg8KyIHBvvOEZGtwb51IvKqiBwbk8+HI9e8Q0SuirnXlcHxR0b3eSoPL5A85aI78NVyZ6LCmKSqDcB44BbgtyJyZYnz0D/Iw0TgQODCIt3n7uA+Q4D/APeJiAT7ngv29Qd+D9wlIv0j5x8gIgdnuoGIjAVOARYXMuOe4uEFkqdc/Bz4RkxDA4CI/FpE3g96yS+JyKFB+nAR2SQiA51j9xaRFSLSI+hh/8fZ93ERmSMia4Me/9Mi8sVg31gReSrQSFaIyJ9tfkTkdmAU8I+gt/7/nN55dycvD4rIKhGZKyJfcu57lYjcIyK3icj6wNy1b5KCUdUVqno7cD5whYgMCq75eRF5M7jePBH5cpDeG3gEGO5oOMNFZIqIPBdoIYtF5Lci0jNhHpYBjwO7O8+0QESOFJFPAN8CPhPc69Vg/zlBvtaLyHwROSPBfVqBW4HtgUGRfduA24HewLjIqT8DftjB5X8LfBPY0lE+PJWBF0iecjEdaAK+kWb/i8BewEDgL8BfRaROVRcBzwEnO8d+Frg3aNw+REQGA/cCV2AauznAQe4hwI+B4cBuwA7AVQCqeibwHnBcYKb7WUwe7wQWBuefAvxIRD7q7D8euAvT038Q00Bmw98xmuSU4Pcy4FigL/B54DoR2UdVNwBHA4uCvDYE5bQV+BowGKPtfBS4IMmNRWQ4cBTwfHSfqj4K/IhAy1HVSYFQvB44WlX7YMp5RoL71ALnAAtVdUVkX7fgOVuBdyOn/g7YJZ0pTkROBbao6j87yoOncvACyVNOvgdcJCJDojtU9Q5VXamqbar6C6AWY8oCI6BOBwjMPKcFaVE+CbyuqvepahumwVzi3GOuqj6uqi2quhz4JXB4koyLyA7AIcA3VXWzqs4A/g840znsP6r6z2DM6XZgUpJrO/lrBVZghDKq+rCqvqOGp4HHgEMznP+Sqj4flOEC4MYEz7dCRNYAHwAbMAI9KduACSLSS1UXq+rrGY79dHCf94HJwInOvgOCfZuBa4HPBRqby2bgGmK0JBFpwAjMS7LIu6cC8ALJUzZU9TXgIeDy6D4RuTQwT60NGqd+mJ4+mEbywKAXfxigwL9jbjEc0+DZ+ylGo7H32E5E7hKRD0RkHXCHc4+OGA6sUtX1Ttq7wAjn9xLn+0agzpr7kiDGoWAIsCr4fbSIPB+YCNdgBG7a/IrILiLykIgsCZ7vR5mODxisqv2BeuC/wKNJ8hpoaZ8BvgIsFpGHRWTXDKfco6r9VXU7Vf2Iqr7k7Hs+yMMAjGaZTujeBAwVkeMi6d8HblfV+Uny7qkcvEDylJsrgS/hNOTBeNE3gU8DA4LGaS3GxIaqrsFoB5/GmOvu1Piw9YuBkc51xf2NMdcpsKeq9gU+Z+8RkCkU/iJgoIj0cdJGYTSLQnEC0AZMC0xbf8NoDEODMvmnk9+4vN4AzAbGBc/3LVKfLy2qugnjWHFgYPpsd0jMOf9S1Y8Bw4L73pTkXhny0IwxMZ4pInvH7G/FCJ+rSX2ujwIXB4J4CcYUe4+IfDOf/HiKjxdInrKiqnOBu4GLneQ+mIZ4OdBdRL6HGTdx+QtwFmYsKc5cB/AwMFFETgw0kwsxg+fufZqBNSIyArgscv5SYKc0+X4feBb4sYjUiciewBeAP2d43ESIyMDAIeB3wE9VdSXQE2O2XA60icjRgOvevhQYJCL9Is+3DmgOtJXzs8hDLcb8uARYGXPIUmC0iNQExw8VkeODsaQWTLnm7R4fPPv/Ycy7cdyOKZdPOGkfBSZgxiD3wnQevowpT08F4wWSpxL4AcaTyvIvjNfYWxgz2GYc01vAgxjPq6Wq+mrcRYNB8lMxHlkrMR5j0zENJpje9T4Y7eth4L7IJX4MfCfwUotzvjgdGI1p8O4HrlTVxzt41ky8KiLNwFzgi8DXVPV7wbOsxwjte4DVGM3wQedZZ2OcLOYF+R2OcRj5LLAeo63cnSAPa4I8LMU4QhyfRvv8a7BdKSIvY9qSSzFlsQozVpXIgSIBvwI+GQj9FILxuSsJxtmCtJWqusR+MIJxdaBxeSoY8Qv0eboKQW9+IXCGqk4td348Hk8qXkPydGpE5CgR6R+YoOwYSjtXZo/HU37KKpBE5I8iskxEXnPSrgq8nmYEn086+64IJiDOEZGjnPTJIjIr2Hd9MHiNiNSKyN1B+gsiMrqkD+ipBA4E3sG4Tx8HnBgM2Hs8ngqjrCY7ETkMM/h5m6pOCNKuAppV9drIsbtjbORTMC63TwC7qOpWEZmGCUPzPMbz6HpVfURELsB4UH1FRE4DTlLVxPHBPB6Px1M6yqohqeozBHMsEnACcFcwiXE+ZuB3iogMA/qq6nPB4OtthJPsTsCEJQEzd+WjVnvyeDweT2WReJJeifkfETkL4xF1qaquxsxTcW3/C4O0VpzJjk46wfZ9AFVtE5G1mBAy0RAl5wHnAdTV1U0eNWpUwR+oGtm2bRs1NX6YEXxZuPiyCPFlEfLWW2+tUNV2UVeyoRIF0g2YiW4abH8BnEv8hD7NkE4H+8IE1T8AfwAYP368zpkzJ/tcd0KamppobGwsdzYqAl8WIb4sQnxZhIhINN5g1lScaFfVpaq6NYj0exNhYMmFmBnXlpGYOQ8LSZ19b9NTzgkmRvYjuYnQ4/F4PCWk4gRSMCZkOQmwHngPAqcFnnNjMJMip6nqYmC9iBwQjA+dhYmSbM85O/h+CvBUmkl+Ho/H4ykzZTXZicidQCMwWMxql1cCjSKyF8a0tgAT8gNVfV1E7gHewISVudBZufN8TNytXpgZ/o8E6TcDt4vIXIxmdFrRH8rj8Xg8OVFWgaSqp8ck35zh+GswIeej6dMxsaui6ZsxoWM8Ho/HU+FUnMnO4/F4PF0TL5A8Ho/HUxF4geTxeDyeisALJI/H4/FUBF4geTwej6ci8ALJ4/F4PBWBF0gej8fjqQi8QPJ4PB5PReAFksfj8XgqAi+QPB6Px1MRdCiQRGQXEXnSLjMuInuKyHeKnzWPx+PxdCWSaEg3AVdgFsJDVWfig5R6PB6Pp8AkEUj1qjotktZWjMx4PB6Pp+uSRCCtEJGxBCutisgpwOKi5srj8Xg8XY4ky09ciFnee1cR+QCYD3yuqLnyeDweT5ejQ4GkqvOAI0WkN1CjquuLny2Px+PxdDXSCiQR+XqadABU9ZdFypPH4/F4uiCZNKQ+wXY8sB/wYPD7OOCZYmbK4/F4PF2PtAJJVb8PICKPAftYU52IXAX8tSS583g8Hk+XIYmX3Shgi/N7CzC6KLnxeDyeCmLVKmhuLncuug5JvOxuB6aJyP0Y1++TgNuKmiuPx+OpAAYNguHD4YMPyp2TrkESL7trROQR4NAg6fOq+kpxs+XxeDyVwaJF5c5B16FDgSQio4AVwP1umqq+V8yMeTyVytatUFMDgcOpp5OiWu4cdD2SjCE9DDwUfJ4E5gGPFDNTns7BmjXw7rvlzkVhaWmB7t3hyivLnRNPsVm3rtw56Hp0KJBUdaKq7hl8xgFTgP8UP2uecrFhA6xdm/919toLRo/O/zqVhC2XG24obz48xWflynLnoOuR9XpIqvoyZl6Sp8yowq9/DcuXm9+trfDpT8Orr+Z33YsvhhNOyD9/nU07Ati0yWx79ixvPjzFZ8WKcueg65FkDMmN2FAD7AMsL1qOPIl54QW45BJ45hn429/gjTfgr3+F2bNh5szcrzt/PryXxQjhokWmNzlxYu73rBRaWmDbNujVK36/dQH2Aqnz0twM778fryFt2mTGD2trk19v40aYNg0aGwuWxU5LEg2pj/OpxYwpFaD/DCLyRxFZZhf/C9IGisjjIvJ2sB3g7LtCROaKyBwROcpJnywis4J910sQ30hEakXk7iD9BREZXYh8VwrLlpnt5s2Fud5998GNN5qxn2zmXuy+O+y5p/k+cCDstx9897vJzn3zTeMc8OKLWWe3KIwdC4MHp99vy6VHj8zXue8++MUvCpcvT+k4/nhTp+M0pPp6mDAh/rz1603nMMqZZ8IRR8CSJanHisDttxcmz52FJALpDVX9fvC5RlX/jAkfVAhuAT4RSbsceDIYr3oy+I2I7I5ZGHCP4Jzfi0i34JwbgPOAccHHXvMLwGpV3Rm4DvhpgfKdEy0tRqNZtaow11uzxmz79zfbbLyCli6Fq6822oDl5JPhK18x4yS24V20yOQ7E3ZcZd06WL0apk+HH/4wWT4eeshs77wzed6LyQcfmB5tOpJqSCefDN/4RuHy5SkdU6eare3wRTsfc+fGn/f5z8Phh6cKHoDHHjPb1tYwzVowfv3r/PLa2UgikK5ImJY1qvoMEG2eTwBuDb7fCpzopN+lqi2qOh+YC0wRkWFAX1V9TlUVM2n3xJhr3Qt81GpPpeSll4wJ7M9/NhXwe98rzHWjAqkjweFy0UUmH01N7fetXWtME62twogR5kVzefttePbZ9uel03K2bm2fdsghcO21yfNbalyt89ZbYeVKI4HiNKSnnza93eUlNmQvXw4HHGDq1tKlJh+e/OkWdHOtQKqrS3beG2+YbbQe2Drjvp9WqO24Y2557KykFUgicrSI/AYYEZjB7OcWirti7FBVXQwQbLcL0kcA7zvHLQzSRgTfo+kp56hqG7AWGFS0nKdh331hl13CRi6ugc6F1avNtm9fs7UD7kmwvbU4bc0KumXLzJt4772p+3fZBQ4+uP15L7wQf69HHoEf/zj8rQr//S9cdlkyrW7RInj00Y6PKyQLFpjt/Plwzjnwox/tBsRrSD/5idlOm5baC4b857Js3Ni+x2255RZT5tdfD3vvbcYo/NyZ/LECyWr+W4LAadH/NkqfIBx1OmeILU4AtjffNNvtt88+f01NpgO0cGGHh1YdmZwaFgHTgeOBl5z09cDXipmpNMRpNpohPdM5qRcWOQ9j8mPIkCE0xakNOdLSUgMcRksLvPnm28A4/vd/YfvtX+fww/PrUs+YMQ4YwbvvvsdTT83jsceGArvR3NzMrbe+wb33juSSS9768AVz2bhxV2B7pk2bzeDBtsVrBEKBOW+eKapu3bbS1PRv52xzXFhO5vfDD68A2g/AHBcYeKdMeZrnnhtIv36tGN8YeO21BcBoFixYSFNTvC3knHP24913e/PAA/8Nzi0OpjFvBOCBB2Yyfvx65s1rACaxefM2mpqaeOmlYcB4Nm1aQ1PTDACWLp0EDODmmxdy7LEjufXWaZjZEfDII/+mvj73Hsj55+/D7Nl9mTq1CYB167qzfHktY8du4I03dgTGsHz5AhYvHg3Ao48+Q69e29JerxA0NzcX9B2pNGpqDgW68fbbS4GhtLTA1KlNrF3bAzA9Mfv8blm0tpp6MHXqG4gsc67YGJzzMs88o+y663r+/e8JwGDmz19MU9OcrPJ39dW7AUP53/99gyOPXNbh8VWFqmb8AN07OiafDyZQ62vO7znAsOD7MGBO8P0K4ArnuH8BBwbHzHbSTwdudI+xz4GJOCGZ8rPLLrtoIZk9W9U0daq/+EX4HVRXrDDH/PrXqg88kP21Tz3VXOdrX1O9+OLwuhMmqO60k/l+/fWqa9eqbtumunFjeO5FF5n9v/yl6rp1qqtWpeYNVC+9dLaCar9+5pyrrlI96aRwv6rq5s3h72HD2l/D/bzzTvu088832899rv3z/ec/qq2t4bF33pl9GWXD+vXhvX74Q7MdPtxsP/KRJaqqeu215vcRR4TnHXywSRs3zmyvuy68zvvv55cnt6xVVYcODX9fdpn5fvXVhbtfEqZOnVr8m5SRPn1MWR59dFiumzenvssWtyxOOMHs+9Wvwv3NzeE5Eyea7Xvvqe62m/n+6U9nn78zzjDn3nZbzo9YFIDpmqc8yGSyuyf4+oqIzIx+CiUQY3gQODv4fjbwdyf9tMBzbgzGeWGaGrPeehE5IBgfOityjr3WKcBTQcGVDGv6gfamukceMVX1q1+FE0/M/trWxn3ddcZsYxGBxYvN94svhtNOM84D9fWwzz5wzDFh2Jvly03wyIED219/8WJjsrPjJVddBfffH+5vaUl1jbX3TMcrMREQrXnDNXNs2QL33GPGmc47L0x/6qnM18+F6dPhppvg2GPD8gR4/nmztXHM+vVrZdOm0GTX3bEtWFNMv35m686/KsQEYwjNRUuXmu3ChfBgsELZ+44h25pxPbkTNdmBqetu2S5ZYt6hJ5/c7sM06wpu/yMIzd8As2aFafPnm+8bNuSev2h70tZm3s9qNttmMtl9NdgeW6ybi8idGH12sIgsBK4EfgLcIyJfAN4DTgVQ1dcDIfkGZgzrQlW1f8n5GI+9XpiwRja00c3A7SIyF+M8cVqxniXKpk2msXYFUtTp4O23UxvBXO6RZN/06eGA6yuvmM/HP25+L12a3sV7yZJUgRTlj3+Exx/vOJ81Ncab75RT2u+zAm3+fNPo9ugBZ5wRjlu5ArAYQS73c6Z4n3pq+D3qoHH//SOprw8959qcUVT7v9qxntdeC/e5DVI+NDenNpBTpoQdANcrsFD368rYzoYbOqilJXW89e23zfbee0dy9dXmu33nrED6739DhyOX+fPD8eRclrawAmnjRvOenHyyEY4/+IHxnP3nP+Hoo7O/biWQVkPS0LHg3bhPIW6uqqer6jBV7aGqI1X1ZlVdqaofVdVxwXaVc/w1qjpWVcer6iNO+nRVnRDs+x+rBanqZlU9VVV3VtUpqjqvEPlOwne/awaaXYEU1SDeestoRxAOiGZDup5QNH39etPw19aaygph455pAqwVSN3TdFsuuCBVYKQjnYt09+6hQJozB74WjEy6ThS2gd1pJ9NDffXVVA3k5z+Hu+/uOA9JOOec8Lvby3WxDciWLUYoqYYaki1TO2ANhdOQmpvT1yX3Hl5Dyp84DWnz5lSBZDWb2bP78s1vpqYtXQpPPGE0fOvw4jJjRnifXASSfR9/8xvTifrzn81v60oeNy8xnat6pZFWQxKR9aQ6AAihE4Gqat8i562qeewxY4aylQ9CNd1yzz3hPKBdd83+Hq7gGTsW3nmnfTqYCrpypVnbZUAwzdg2aE88kf76ViBt2mS0rEwMHpzeu2jzZthhh1TTEphnd01+VljGseuu5qXaay/zHG+9BfvvH75on/lM5vwVCpvf5majzX3726FAsv+lu3ZOoQTSY4+ZKBxxuFqRF0j5k85k5wok17Lxs5+FJnEwdcOa0F3POosN7TVxYn4mO8uZZ8K4ceF/b03Hlttvh7POgiefhI98JPv7lZJMGlIfVe3rfPq421Jmspr429+MS7S1F7uu0PMc/axnz9RJqcOHZ38vV/AMHRp+jxMMUYGUJHDkqlW1Hx7rmrbi2GOPzPs/+cn2adu2md7kWWelRkiIvnD9+sGwYUYI2fw8/3xqr++UU7K3nadrDOxYwD77mIbF/W/++1+ztdrQ9ddnnv9VKIH0xS/Cv/4Vv88VQt5klz9WA1m/PkzbvDnVhBftXL3xRtgR2bw5cwfOHjdyZH4mO9eU/pOfhP999P2xZvVswoGVi0TBVUVkHxG5WEQuEpG9i52pauaUU1InjbqNhbU7Q2r4kT59chuIdAXaduHYaqy5acUK0+C7zgvjx8POO3d8nyR5s432EUfA179uru2SziTZ2mryftBBYb5tT9Oy/fahIAUYMiS1LMF0BNxxnSSkM8vZvO+6q5lA7Ma1s4LITn6sqUntBY8dm3qtfARSpnJ3zaheQyostkFXhYYG872lJbXjERVIEP7Xzc2hBSJO4Ni6M3BgfgLJ7VCNHh3+921txox3+eXmt+2gDir5DMzs6VAgicj3MNEOBmEmmdwiIt8pdsaqlb0dcW2FhF2CwRUgboM9dGhuAsk9xxVIcVgNyR1ktQ37736XemxN1jHgQ4EzerSJ4RYdzG1oMGanEcGUZVfo9OplymDpUvNM0cCmixalCqTly00Ipr594cILw/RsyzDOoWTbNqONQaixRcfAPve58Hu3bqkNVVSTzCdMVCZzjvustiES8QKpELjC3ta7zZvjBVKPHuFLbZ1L3M5SnMCxAiJfgWTPraszHTtXIH3uc/DTIFCatYZUQ0DgJE3P6cB+qnqlql4JHACcUdxsVS977RV+t2a0UaPau1W7Y0a5akjZCKR33zUCqUePsNdnG3772zJgQDiDfN9921/LTnR1sQLJvsDRcCt9+sDHPhYGkzzzzHCfFUgtLaGp02XUqHhvpXXrUnt92ZahqyHV1xsToEhYLvba7ov83e+mRnpetSrVlBMNvLlihXHY+NjHsl/wLdPxrsuvFVzDh3uTXSFwTV62PsdpSBMmwKmntleVXI3ZNftZ7P86cKARHnHjTJmwAtMKpL59zTXs76ilwAqkjiJNVAJJBNICwG1eaoF3ipKbToBtzO69NwzpU1/f3oTl/q6pyd9k1zcyqhcd2Ny0KWxg7UuWTiD17x9qCe4g6COPmIp/yy2px9fVhY20vW80PL+9xxFHmDk0Z52Ver4V3pMmhT29Pfc0TiGPPpqqIVmuuy5V0OejIY0eHZrb7IsbFUjnnAPf/37mnma0Y7B8uRn/eeKJ9KGV0tGRue/UU8Ny7dnTCP1CRX7vyrgCydavqIb03nvGwtC7d+YoHHECyd7DvrPZakmu23fPnub9cYVaOoGUrUm7HCQRSC3A6yJyi4j8CXgNaLax7YqbvepD1Zh6Tj45rHC9e7cfaHQFkkiqcMnmXpaomWvvmJG+pAKpX78woKq7UN/++xsNyxV+e+0FL78c9tjtQGuchmQZMSL1nr16pQrQ1lYT5+6554yAGjmyfR4PPtiY7fIRSO78nR12CL/bhidqsmtoMP9VVNiedVaoUQ4ebP5vy/Ll4ZymuMnHmehIINXXh3mrrzf5yibArieeOJPd6aenlu3atabO1tenb+Vra9MLm549Q7N1pujycbgmddsZzCSQrNZcDRpShwv0AfcHH0tTcbLSOVANoyC4AulHP4IHHoBf/tKkDRkSniOSv8ku6ghw0EHtI3lHBZI9J+pw0L8//M//wPbbP8tBBx2Ukg6pL+zXvga77Ra+BHZfOg3J4jbavXrBoYea69uXZ8yY1GeyL9ykScZt9rOfTc0TZC/Ubfn94hepGpu9lxUgttG3zxTVkHbcMRTugwebhmrDBpP/ZcvChizb/7gjbae+PuwA9O5tGievIeWP23kcM8Zs161r30Ho3Rt6905t/Xv2NPWnpsa8V+kEUm1tKFiyrbfu+9erl7mnq4ml04SqQUPqUCCp6q0dHeMJUQ0rmiuQDj3UfKxAamgwy41PmgR//3v+AimqIe2zT/vjbY9/5MjUc+I0JBEYMiTVuO0u3DFkiOn9W80mKpCiGmH0HlENacAAE+HA5i06ZnTMMWatpquuMi+8Pc4tg2zL0B5/7rmp97M9SVs+HQmk4cPbC6RFi4ygcr2xsm14Ojrea0jFwW3wx441a3t95zvtHUZ694aGhlST3aBBxsPO/h/p5ub17Bm2E9nWW/fdqqsz13KXvHA1IdcxphoEUhIvu2NF5BURWSUi60RkvYhkOTzbddi2LV5DitK7t4kw8K1vFWYMKSqQDj+8/fFWQ7IOFfb8OIHkcv317Reb22UXs7U99EMOMVvrZRb11IuOAUU1JEid72N7ppa6OrjhBjPWtMMOYRm7pslsy9A+fzSvdvVbOx5k91uBFNX++vVLFUj2f4/OM8k1f+lwBVLv3iZfXkPKH7fBr68Px1NXrUqtK/X10KtXqkCylo/u3eNDbtl6X1sb1uFsOypu/qyG5Aokt865k7SrwWSXZAzpV5gApYP8xNiOcU127oCz5YtfNFu3F1aoMaQ1a4xZwY5jRbECaTeztM+HE+XinBpcLrrIhOhxueACs7ULjJ1yitEKrGCKNvLR8ZOo2zeYcrjpJrjjDrPwXBJ22CFcKjxXDSm6ZOOvfgX/+U8odO1x6TSk3Xc3zyBiBK8VSNFyzVUg3XFHfJSGqIZUV+c1pEIQFUhWiKxendpZM+mpf6oVSN26pdYTK5xsp8vVkPIRSHEakjvp3V0zqVNoSJgF7l4rdZTsasU12Vmh41a4G29s32gUYgzJOgZEve1crECy3mQ2Jlx0DCnOoy3KZz9rhJ8bocH2JKG9yS46Kc8VWK5298UvmuCq2ZBrTzOdQKqrS12AMCqQ7PEXXGCiR0yaFJodu3c3C+VBe8/KXAXSzjunjjlavIZUHNzOYn192HlatSq1o1dfD0OGpL7MrobkCiT7jtl3pNAmO3cMyTUTugKps2hI/w/4p4hcISJft59iZ6xacU12tmK7c0Zqatr3sAslkDrCaj677WY0G7uKq+sRd8EF8IUvJLt/JuEX1ZCiThcuSfKeCVveuWpIHU0EjgokG9V71CgTQwyMNmQbo8svN6FjonHDch1DcudGubhODV5DKhzpNKQNG1Ld+uvrYcSIzSnu/Ok0JCuQrIaUj8kuzqnBxRVI7hhmNWhISbzsrgGaMXORqmCub3lxTXZxAimOQowhZWrw3fuAeRncyNEuZ58dRlPIh2gjH9VCXKIu4tmSq0ByG/xMRAWS7XVaxwowE2btoHdNDUyeHK6pFL1OtvmLdmIGDDD3itOQvEDKn6iG5OJaD6ygsiZwSBVItrPQrVv4X7lz2wqpIblENSTr+VcNGlISgTRQVT9e9Jx0ElyTXbqFtKIUYgwp37Ag1msuOmCfK9mEHyq3hpStQLroIhPd+ePOWxE37ytqCs1HILlC+5BD4B//MOY5+7/36WPqmzfZ5U9UQ3Lrh/t+WGHl/jdxGlJtrfkMGJDquZnrGJKbn1692pvH3QgfK1eaOXLvvVcdGlKSZuMJEfECKSGuyW7iRLONc8F2KYTJLlopwTSc1vmgI6xzQqEatLj8pCNfgZRrTzNXk90hhxjzTdy4jkvUqSHXMa6oQLroIrPdeeewFz5okDlm5cqOBawnM1GB5GpJrkCyGpKrUcUJpJ49zScqkHI12bnHx2lI7njS6tWhQ1Fn0ZAuBP6fiLQArfj1kDLimuyOPNIs1hYd3I5SCA0pzhHBrsnywx92fP3bbjMu6JMmZZ+POMqhIeUzRpOJqEBKSrE0JBsXzw0VNGhQ+jkvnuyImuzcuhynIbn1xzb+rsmuttYc2717al3PtyMF5nq2nliTrev2vWZN2DZUg4aUZGJsDmuZdl1cgQTJFt6rqcmtsmzbZjzSrr02s2dcEq+53XZLtvprUjqzyS4phXL7jgokCIWd7Q3nGjna056ohuTWZVcbqa9v/97auux62fXsCddcY77bMFJbt+ZusnPrUV1dmIdBg8zUi6iGNHKkyU81aEhZLTQgImNF5Nsi8lqxMlTtuGNISclHQ+rRI4yjVknYMhAxkSgyETeBMBtK5WWXjRkS2ptSctXg4gSSxRVIhRr/6+pka7JzsfujY0gHHWQ+VmC1teU/XQFSvez69zd1xe2YrF5tOi/du1eHhpQkUsMwEfmaiEwDXsdoVacXPWdVijuGlJR8xpAqdbzAvtQ//zkcf3zmY/N9hlxNH9ma7PLNZz75Sye0beMzaJAXSIXC/s/W7OZqO3EmuziiAsliBdK2bfnXW0gdQ+rXz+TVHQdevdpMz+jRo8oFkoh8SUSeAp7GLM73RWCxqn5fVWNWrfFAbkKiMwokO7ibaa7SXXelLnaXK4WeGJvrcUnvlxRXQ0p3b1dDcrUoP409d2zZuR52VvjU1qYGtI1iG313DMnVlK1AKpTJrk+f9gIpemzfvtVjsss0hvQ74Dngs6o6HUBEfDXvgFxMdvnMQ8pldddScOmlxoRw7rnpj/nMZ8wnX/I12SU9rpwCKR126YKohlTJnZVKx/5P7timG8fQNu5xY58TJ5ogyr/4hQmD5Z7rXnPr1sKY7BoazFpnEC+QoJNoSMBw4C7glyIyR0SuBvK09nd+cjXZ5TqGVKmNTs+ecP752Y+75EI+E2OTCHT7kucr/PNx+7YcdVT8sQMGpGpIudQnj8HVkCy2DvTsaSaPQ6qG9OCD8Pjj5j945hkTZDiTmS8fk11UILljSOkEUrVoSGlfMVVdoao3qOphwEeBtcAyEXlTRH5UshxWGd5kV3ry0ZCSlN+f/gQnnvgBztJQOZGvhtTSAg8/nHrMJZeYbY8eqQ2fF0i5Y8vOFUjW9FxbC7/5jXGxdzsAxx1npnm4WEHhxnEshMnOPd4VSOk0pD59OoeG9CGqulBVr1XVycCJmFVkPTGUWiBVqsmulOTT00zyX+24I3z1q2/HvuzZ3i8bogKpZ8/2Gud118VrUn4MKXfiNKTddzdb6+QQDRYchx1DckNxFcNk15FA6hQaUjpUdY6qfr8YmekM5Or2nesYkteQ8nuxiy3Q77svHCfLx+07CW4cO68h5U6cQLJRV+ySLUmwKw+7AskKKVdDKpTJrrOPIXlyIBchUVPT+caQSkk+Y0jFLr+TTgoXNyyWW7rFC6TCEGeys+Y4d4mVjrBrFLnzBN34lqXwsgMz1lUtGlKeRghPFD+GVHqKPYaUL/lGI0+qIbkLK3qTXe7YsnOdFg4+GGbODE13SbACyY15aMeiJk0qTCy7JBpSjx6dTEMSkREicpCIHGY/xc6YiCwQkVkiMkNErNv5QBF5XETeDrYDnOOvEJG5gUfgUU765OA6c0XkepHiNkGlNNn5MSRDPqaPUpRfvoPXSfN43HEwZUpu9/KE2Hr0rW+lpk+cmJ3XaJxAGjbMeOH96U+lM9nZca9q0JCSRGr4KfBf4DvAZcHnG0XOl+UIVd1LVfcNfl8OPKmq44Ang9+IyO7AacAewCeA34uIrTo3AOcB44LPJ4qZ4VJGavBjSIZ8epqdSUMSgdNOSz3Xkz3btpkI/R1F6e+IH/4Qhg5NXVUZzDylhobCOTXsuKMROmPGZBZI1aAhJTHZnQiMV9VK8Kw7AWgMvt8KNAHfDNLvCvI4X0TmAlNEZAHQV1WfAxCR2zDP80ixMpiLGSjXibHeZGforCa7pLH2XHLtdXtCClUvPvnJcHXhOAoVXHXKFBP9va4uFEj19eGk6Woy2SURSPMwE2JLLZAUeCyIDnGjqv4BGKqqiwFUdbGI2AWFRwDu+pwLg7TW4Hs0PQUROQ+jRTFkyBCamppyzvTKlRPZsKEHTU0vJz5nxYo9WL++nqamF7O6V1vbIXzwwWKamt7JNpuJaG5uzqssSsWbb24H7M4LL0xj8eKNic97//2xbNs2jKam/3R4bD5lMW9eb2A/Zs16jYEDk68RMWfOCGAczz77H/r2TdaazJ1rznnmmf/Qr19xWqBqqRe5ks07nE9ZzJrVF9iHGTNepXv31YnPmz9/NDAagKefTr33xo37AH3p2XMLGzcaW9706c+xfv2utLbW0NT0Sk55LRVJBNJGYIaIPIkjlFT14qLlynCwqi4KhM7jIjI7w7Fx/RnNkJ6aYITdHwDGjx+vjY2NOWTX0L+/6cFkc43ttjP25mzvW1MDo0btQGPjDlmdl5Smpqas81QObC90v/2mpCwn3RH33296jkmeMZ+yGDzYbHfffQLZXOLVV832sMMOSXFYyMRrQRz+gw8+5MP7FppqqRe5ks07nE9Z2LGfiRMnZVUvnngi/B69t12PacCAnqxZY74fdtiB/PGPZm2kSv/fkgikB4NPSVHVRcF2mYjcD0wBlorIsEA7GgYsCw5fCLit8khgUZA+Mia9iPn2Y0ilptgTY/OlVGNI7rF+DCl3SlUvCmGyi2JNdq6HYKdyalDVW4E7gZeCz1+CtKIhIr1FpI/9DnwceA0jGINIUpwN2JV2HgROE5FaERmDcV6YFpj31ovIAYF33VnOOUXBjyGVnnwGh0vZ8BR7HpJ7rBdIuVPp9cIeP3du+332f7eaEnSyMSQRacQ4ECzAmMB2EJGzVfWZIuZrKHB/4KHdHSMEHxWRF4F7ROQLwHvAqQCq+rqI3AO8AbQBF6rq1uBa5wO3AL0wzgxFc2gweSntAn1eIOXnNFAKt+9855t4p4bSUg31omdPGDu2/b6VK812pGMXqiYNKYnJ7hfAx1V1DoCI7ILRmCYXK1OqOg+YFJO+EhPoNe6ca4BrYtKnAxMKncd0lHqBPj8PqbIjNYA32VUbpaoXxTA1rwh8ZqICqVo0pCRVvYcVRgCq+hZ+GYq0+DGk0tNZx5Bycfv2Jrv8qYYxpHT5s5Nx3fh53bp1Lg1puojcDNwe/D4DM5bkiaGUC/R5k52hkoOrQv5jSN5kV1oq3WSXJH+uhiRiNKTOIpDOBy4ELsaMIT0D/L6Ymapm/AJ9padaTHalHEPyGlLuVLrJLkn+okFgu3WrjjrRoUAKoh/8Mvh4OsDHsis9nTVSQy4CyZvs8qfSYxwmqbfu4oH2Xlu3xh9bSaQVSCJyj6p+WkRmET+ZdM+i5qxK8WNIpafSvexK6fbtTXb5Uw0mu3R14qGH4M032weBzXWJm1KTSUP6arA9thQZ6Sxs21a6MSTwAgmKa/ooBKUM/upNdvlT6Sa7TALzmGPM5/XXU9OrxWSXtum0MeOAC1T1XfcDXFCa7FUfuWpIuc7W9gKp8ifG5mOyy8X8a8/15Eale9klEZhxGlI1mOySVPePxaQdXeiMdBZKZbLLxSW4s1LpY0j5aHC5aNu53MsTUs0mO0tUIFWLhpRpDOl8jCa0k4jMdHb1wayP5ImhVE4NuYwvdFZKqYHkQind0r3JLn+qwWSXi4ZUDXUi0xjSXzBhdn5MsBBewHpVXVXUXFUxudr9c9WQvEDqvBNjvcmuPFS6yS5JR6VaTXZpBZKqrgXWAqcDBMtA1AENItKgqu+VJovVhR9DKj1+DCnEm+zyp9T1ohRjSNViskuyhPlxIvI2MB94GhNktagBSquZUpns/BhSSGd2+/ZedqWn0utFZzbZJSn2HwIHAG+p6hhMcFM/hpSGUgVX9WNIIZ05UoM32ZWeUo8hlcKpoVpMdkmqe2sQZbtGRGpUdSqwV3GzVb2Uaj0kb7ILqXQvO2+yqy4q3WSXyxhSt27mvEqvF0li2a0RkQZMDLs/i8gyzJpDnhj8GFLpKcYEw0JSDrdvryHlTjXUi1w0JHtudF8lkaTYTwA2AV8DHgXeAY4rZqaqGT+GVHpKGQkhF7zJrrqo9HqR6zykXO5VapIEV93g/Ly1iHnpFPgxpNLTWU12+cxDqnTTTCVTDW7f+WhIlUymibHrSQ2qKsFvAVRV+xY5b1WJH0MqPZUukLzJrrqodJNdrvOQoPIdGzLNQ+pTyox0FnI12fkxpNwpZYOfC6U0KXqTXf5Uusku13lIudyr1CR6HUXkEBH5fPB9sIiMKW62qpdSmez8GFKInxgb4k12+VPpmnNnNtklmRh7JfBN4IogqSdwRzEzVc2UKriqH0MKqXSTnQ8dVF10hjGk6P5qMdklqe4nAccDGwBUdREmwKonhlJ72XmB1LkjNfgxpNJT6abcXOptZzLZbVFVJXBwEJHexc1SdeODq5YeH6khxJvs8qfSTXb5hJTqDBrSPSJyI9BfRL4EPAHcVNxsVS+lnhjrx5A6b7TvXLVtqPyecCXTGUx2lp13zu9epSbjPCQREeBuYFdgHTAe+J6qPl6CvFUlfgyp9JTS9JELfoG+6qIzLNAH8PLLMGqU+V4tJruMAklVVUQeUNXJgBdCCfBjSKWnM5vsfLTv0lMNC/QlaWP23rv9vTqDye55Edmv6DnpJPgxpNLjveza38sLpNypdJNdLm1MtWhISar7EcBzIvKOiMwUkVmRJc0rHhH5hIjMEZG5InJ5x2fkjh9DKj0+uGr+9/KEdBaTnUu1aM5JxpC+ArxbmuwUHhHpBvwO+BiwEHhRRB5U1TeKcb9Smez8GFKID64aUi0NTyVTDSa7zupll2QM6bpgDKlamQLMVdV5ACJyFyaCeVEEUj7hXrLBm+xCvMmu/b28QMqdSjfZdeZ5SEnWQ3peRPZT1ReLnpviMAJ43/m9ENjfPUBEzgPOAxgyZAhNTU0536yl5UCWLFlFU9OcxOe8996OwBimTm1K/CIsWVILHMicObNpalqSU147orm5Oa+yKBXz5vUG9uO1115n0KDlic9bvXoSbW1CU9OMDo/NvywamT9/AU1NCxKfsWzZBDZurKWp6aXE57z1VgOwLzNnzqJPn5XZZzMB1VIvcqWl5UCWLl1JU9NbHR5biHoxb1729WLDhjqamqYnPmf27O2A3Xn++WksWrQx+2yWiCQC6QjgKyKyABOtwUb73rOYGSsgcU18Sl9VVf8A/AFg/Pjx2tjYmPPNevSA4cOH0dg4LPE5zzxjtocd1ph48awFC8x29913pbFx1+wymZCmpibyKYtSMXiw2e6++x5kk92+fU1vM8kz5lsWNTWw446jaWwcnficQYNg8+Zk+bP072+2e+wxMauyyIZqqRe50r07DB8+nMbG4R0em29ZiORWL5qbs6sXy5aZ7eTJU9hjj+zyWEqSCKSji56L4rIQ2MH5PRJYVKyb5TOZMRuTjh9DCqn0ibGQm+OKj/ZdHkpZL2pqSuPUkMRk9/DDsNNOsNtu2V27kCRZoO9dEZkEHBok/VtVXy1utgrKi8C4IEL5B8BpwGeLdbN8GpFsGlQ/hhRS6RNjIXfHFe9lV3oqvaOSz8KNmZwajj02vH65SBLt+6vAn4Htgs8dInJRsTNWKFS1Dfgf4F/Am8A9qvp68e6XuweMF0i5UenBVSG3uWbey648VEO96JJu3wFfAPa3S5mLyE+B54DfFDNjhURV/wn8szT3Ko1nlD3Wz0Oq/EgNkLvJznvZlZ5KrxfFMtlVAkmquwCuoreVeEcBD95kVw6qZQzJm+yqg844htQp5iEF/Al4QUTuD36fCNxctBxVOblGarDnZnMf99yuTDWMIXmTXfVQ6fWiS89DUtVfikgTcAhGM/q8qr5S7IxVK/kMOHqBlBveZJd6H3uuJzeqoV50uTGkIKDqYFV9RFVfBl4O0o8XkRpVTT5brwtRKlddP4YUUumRGiD3iO7eZFd6Sm2y86GDQjJV959jvNKivBHs88TgTXalpxq87Eo9hlTpPeFKptQmO+/UEJKp2Aep6oJooqrOBQYVLUdVjhdIpaeUS0HnSqnGkLzJLn8q3WSXj+Zc6fUi02P1yrCvd6Ez0lko9RiSN9mVNox/rpRqDMmb7PKn0k12+YwhpTPZVYqgylTdnxCRa4IlKD5ERL4PPFXcbFUvpR5D8hpS5x1D8ia78tAVTXaVUl8yedldCvwfMFdEZgRpk4DpwBeLnK+qxZvsSk81jCF5k131UA0mu0JrSJXi7JBWIAWRGU4XkZ0AGx/2dbuukCeeUgVX9QIppBrGkLzJrnqodJOdKolXBXDvA+nrYKUIpA6ru6rOU9V/BB8vjDogH/uuH0PKjWoZQyqle6/XkHKn0iM15NLGdGSyyySQWlrg0kth7drs7pkLvjkrMPmY7PwYUm54k12IN9nlT6mnAyT9r377W3jrreKY7DLl4dVX4Ze/hFKsyZgkdJAnC7zJrvT4SA0h3mSXP5U4HaCtDS66CAYOhPHjS6shtbWZbUtLdvfMhSTLT9yeJM1j8MFVS4/3sku9jz3XkxuVaLKzAmPVquLMQ8okkOy+zZvbp199Naxbl11eMpHksVIWvBWRbsDkwmWhc1Hq9ZD8GFJ+0b59pAZPlEo02VktBYozDymJhrRpU2r6Aw/A974Hl12WXV4ykbbYReQKEVkP7Cki60RkffB7GfD3wmWh8+HHkEpLrlpBJZpmXLzJrvSU2vKQtF64AqPU85DSaUhWUK1Zk11eMpG2uqvqj1W1D/BzVe2rqn2CzyBVvaJwWagsli6tY/To3M7NVWvxJrv8qBaTnY/2XfmUQyBlY7KD0s9DSieQugceCK2t2eUlE0mcGr4lIp/CLD+hwL9V9YHCZaGyWLu2R87ujblqLV4g5Ue1CKRShojxGlJulNoUnrSjEhVIpRxDsppQVCD16GG2pRZIvwN2Bu4Mfn9FRD6mqhcWLhudg1yFRD4CyY8h5TcxtpLdvjtzEM1KpdSm8FxMdoWch9TSYsaGctGQrEByx7fyJYlAOhyYoGqKTURuBWYVLguVSS6951yFRC4Nqh9DCqmWibHeZFf5VKrJzm30C2myO/pomDrVzG/q6N5RgWSFXCE1pCTVfQ4wyvm9AzCzcFmoTKKFn4R8TXbZNCLeZBfSmU12lejUcNNNY7j88uJdv5xUi8muUBrS1Kntr5/u3tE20ZZVqTWkQcCbIjIt+L0f8JyIPGgypccXLjuVw4YN0CvTAhwxlMNk5wWSj9QQvY89t1j85S87AvCTnxTvHuWiGkx2xTDlZtJyOvKyK/UY0vcKd7vqYcMGGDw4u3P8GFJ58JEaUu9jz/VkT6k7eh3Vi7/9DZYvhyOPDNOKMQ+puTn19zPPwBNPwA9+kH4eUlkEkqo+DSAifd3jVXVV4bJReWzYkP05fgypPOQzMdab7LomP/4x7L47nHBCanqljSHdeivMnQuNjWFaMeYhrV+f+vvww832iisyR2qAEpvsROQ84GpgE7ANEIz7906Fy0blEe0xJMGPIZWHfJwaKj1SQynqUlfkW98y2+h/UmrLQ0cmu9ZW0xYVah5SUoE0cKAJUzR3bnqnhmJoSEmK/TJgD1Udrao7qeoYVe3Uwgjy05D8GFJpqQaTXancvgstkJYvh7/8pTDXqgZKbXnoyGRXaIGUzmQXFUhjxpjtW291PIZUSA0pSXV/B9hYuFtWNvaPLqXJzo8h5Ue1eNllKyTa2nL7f3MRfun49KfhjDPg/fcLc71Kp9JCB7W1tRdIuZhy05nsbLSFaIDUHY3fCnPmVJ5AugJ4VkRuFJHr7adwWUhFRK4SkQ9EZEbw+aSz7woRmSsic0TkKCd9sojMCvZdL2Kqk4jUisjdQfoLIjK64/ub2lFKk50fQ8qPagyuet998N3vZj6nrS2cfJgNuSz6lo4lS8w22oPurJTDZNeRhtTaChsdlSBfDemdd2DIEJg/H2prTXr0/+3Z02znzSutyS6Jl92NwFOYybClskxfp6rXugkisjtwGib6+HDgCRHZRVW3AjcA5wHPA/8EPgE8AnwBWK2qO4vIacBPgc9kunEhNCQ/hlRaqjG46sknm+3VV6c/J1eBlIs2lo66OrONm5dXSg2zkGQqm0o02UFqANN8x5DmzoUVK4w5rrbWtHVRgWTvu25dx04NpRZIbar69cLdMmdOAO5S1RZgvojMBaaIyAKgr6o+ByAitwEnYgTSCcBVwfn3Ar8VEbFRJ+KwGlK1mOyqsUEoNJ3ZZNc9hyU0C2myyySQchWY+fKPf8CMGR1rmOnItNBcJZrsIHX58Hy97KwAaW4ONaGoQNqyJTymIw2p1BNjpwaedv8APvwri+z2/T8ichYwHbhUVVcDIzAakGVhkNYafI+mE2zfD/LbJiJrMRN9V7g3C57vPIBu3fYEYObMeTQ1vZdVpteu7QEczNy5b9PU9EHi815/fTAwgWnTXmTlymSScObMQcBEXnnlJTZuLI49pbm5maZSrFucJ+aFbmT+/AU0NS1IfF5r68EsWrSMpqa3Ozw237LYsGFfli/fTFPTa0FKIwBPPPE03bu3b5FUobW1kYULs3smw6EsWPABTU3zMh6lCvfeO5Kjj15MQ0P8aPfmzZOAATz33Ay2bFmTkvfHH/839fUZpvgXieOPN/c/9NCmnM5fv747JlY07f5T+w6/806ydzjferF+/d60tGyjqenV2P1r1uwLNPDii28BuwCwceMmli9fR1PTm4nvY7SZRubOnc/WrRuACbz44puojgHqePvtJcD2gCmTpUsnAoP44IM1vP32SmAs69Ztoanp2Q+v+eabI4BxbNrUSlPTf7N+9jiSCKTPBlt3yYm83L5F5Ans06fybYz57ergHlcDvwDOxbibR9EM6XSwL0xQ/QPwB4Da2n1061YYOnQnGhuze8Tly812l13G0dg4LvF5q1eb7b777sekScnOsYOQ++47mclFWi6xqamJRncCRIWz446jaWwcnfj4bt1ghx1G0Ng4osNj8y2Lvn1h0KCGdtfYZ5/DGTiw/fHWHDJuXHbPBOa5Ro4cRWPjqIzHPf00/P73sGrVztx5Z/wx229v87EX0cffb79DGTIkq6wVlFz/j8WL019j2TKzTfoO51sv+vc3WmZjYyPvvgvDhoVaC4Tfhw7d5cO0Hj16sf32vWhsHJr4PlYL23HHMYwfb76PGrUb/frB0qVQXx82x42NjTQ0mO/du/dn1Kj+AGzd2jPlWV955cMcFayd6NC4FLh5Rz95uX2r6pGqOiHm83dVXaqqW1V1G3ATMCU4bSEmjp5lJLAoSB8Zk55yjoh0B/oBiTS7XGLZ+TGk8lGqeT65ks5kl275Z2sGKYTJbt48c/+HHko9zgq9pUvTX8uGz4pz8snlHYnyzDOwcmX+10mHavt6UYkmu+ZmGD0avvzl1P1xi+C1tOTWxtg66Jrs0jk1uMeUMnRQhwJJRHqIyMUicm/w+R8RKZrlWESGOT9PAqyN40HgtMBzbgwwDpimqouB9SJyQOBddxbhirYPAmcH308Bnso0fgRhhbQ21GzwY0jlI5cxmkqI1JBOINmXPFeB5JbFs4GVJTqfKMl6NrbBKoZAamszEQGOOSa/62SipgZOPDE1LVO+y+VlZ8PyRDsN9r9xx5A2b86t3tbUGOFir7lhQ7IxJCuQtmxJrVflcmq4AegB/D74fWaQ9sXCZSOFn4nIXhjT2gLgywCq+rqI3AO8AbQBFwYedgDnA7cAvTDODI8E6TcDtwcOEKswXnqJyKWQy7FAn5+HZMhFQyqn27dtiKICafZs4wV1iBniKIiXna3LrinI/Z2p82WdGgohkNauNXmxMSJtIzuzyGsHPPhg6u9MGlK5veyinap0AimXetutm7m+K2xsnYzWQ1douU4LLS2h1mzTt24tnBNNEoG0n6q6IxtPiUj8CFwBUNUzM+y7BrgmJn06MCEmfTNwanb3NzUxHw3Jz0MqPZVusoua0errTYMQbQh2281s7XhkIUx2tnGJCjf77JnqutWQ4rxOsxVI229vzrF5s42svYdLoS0Abv2IW0bBdk7KZbKzjXtUIMV52RVKQ3I96JJ42dl7RwUS5OaVHJvHBMdsFZGx9oeI7ASU3rWmxJTDZOfHkHIn19A85eoJ19ebbSlMdrYuRzWkbMYAmptNY+Q25tkKpOjxtpGtqzMTcL/4xdB0NW4c3Hhj5uvl2iuPakgXXxy6RZcruGo6gRQ3DwlyF0juGNKGDaHZbVVkZN0es3VrqrCxdaC1NVUgRc/PlSTV/RsY1+95GK+1HYHPF+b2lYetkNVisvMCyZDrGFK5THZJBVIhTXbRa9kGJVPnyzZYzc1w5pmpAjLfMSRXQ/rud+Hmm+Ggg8x93nkH3u7AG3/btlCQZEM037/9rdm6pqdSjiFt3VoagWRNdnEaUrRM3DoR1c569YLJk1OXxLCewvmSUSCJSDdgEsaBYDxGIM0OJqd2akppsvNjSPlTbSa73r3NNp1AsqFiimmyyySQli414WXsMc3NJp6dW15JBNKiReY6cYLVFUhWQK9dG/bIO7p+W1t2AslqxOnGkDZtKr0pvGdPU/7ZmOwgt/e+rs7Uq3TmOJfW1lCjigokgJdeSl0So1ACKeNjBU4Dx6tqi6rOVNVXO7swKoeXnR9Dyp9cnRpKabJbv96sw9PWFo6bRBsaixVUhTTZWaHwz3/CCy+kF0jz5pnxnl//OlUgbdmSukhbRwJj7VoYMQIuvTT9fjANZb9+YZp1oEgikDIRrQ9x2oB7TJ8+MH26+V6qelFbawSk7TQkcWqA3PI3eLBxsU/nsGBRNf/1gAHt7+3+/27A11Ka7J4Vkd8CdwMfWhNV9eXCZKEyKYfJzo8h5U41CKQXXjCf4cNTTWFxWIGUj8lu9mwzIXdjJFb/ZZeZ5QUuvND8jgqkVwOXpSefNI20zeeWLanHug37pk3w/PNwxBFh2jvvmG26QAauhtS3r/m+Zk3hBFL0fdqyxZSnqyG1tqbWnd/8xmxLZXmwAskVlmPGmMCn27aFzxCtJ7nU20GDTAy7uDlGLtasN2iQEWBxGhKkln9JNKSAgzABTX+AiZrwC+DajGdUMeXwsvNjSPmTi1NDLmH8c8W9z+rVqdrJyy8b09O774bH5KshqRqPvREjQhOY2zNesSK9U4ONZDB4cOry1Vu2pDaMbuN04YXwkY+YgJ0Wu2TFSHfauoNt6Fxni0JqSNHnsr/d627ZklrG1gRYag3JfZYFC8w20/PlqiG5AimdhmRdw20EEXf8KiqQrMddScaQAk5V1RUdH9a5qBaB5MeQDNUwMdayeXOqQPr5z03en346PCYfgRQtCyuQrGawcWOqQIrWdavZ1NWF+bBjD657sNs42blEbm96/nyzjQqkNWvMteyxquG1OhJI7jvSkUCK7rcNsashbdlihJDdV2qBVFeXWh8sbW2ZrTS5vPeDBxsN3dWQ4tocqyHFCSTXZNfWZkIfbdlSOJNd2scSkeNEZDkwU0QWishBhbllZePHkKqTTCa7hQvhhhvap1eCQGppCXvEbly4fEx20TEk28DbOr1xozHFpNOQrHfbmjWZNaQ45wD3OecFsV2tOc4yYgQMHRoKpM2bw2utWpVZILn3dBvx7baD73zHfH//fSPco428ff5MGpJ9F0ttsov+B0uXZhZI+WhIUacGG7fO8q9/mWOiE5ij31tbTdkNGFAak901wKGqOhw4GfhxYW5ZHfgxpOoik0A66ii44IIwZtqWLSYaQqndvi2bNqUKJKtJuJ2gQpjsLFZD2rLFpG/caISN7e1GxxEWBZEgXdOiFUgucQLJve9rQdCv1tbUdDumZRu3lpbwWsuXZxZIcWMYqua8a66BDz6Aq66CT30quYYUJ5DKabID04kqhsmutTV8D+x/Gg2Qe8IJZhsXONcVSOvWlVYgtanqbABVfQHoU5hbVgfVYrLzAslgBVJbG3zta2GjCvBesIqIfcEvvthMvLTnlQJX8LmLnm3ZEgY3dRvbfE12bmPmakgtLWHdsZGto1hBtWpVcoEUtSzMnx86M7S2xnsT2vu4GtKGDe0F0rRp8Ne/pqbZ686bZwbfLSNHwh//aBpIm5dDDw2Pj17Dmuws5RhDam1tX7YLFxZHQ4LUaOcbN8YLHkgtVztNwf0fV60y9bO+vr3jTK5kqu7bicjX0/1W1V8WJguVSbUEV/VjSAZrpnr6afjVr2DOHOPeDGEDZLePPBKeVw6TnWsucxv1OIGUi8muW7fU2fXuGJI7BhCN8t3cbBoYm49Vq0JzW5xA2rLFTGY97rj2z/DQQ2Ed3bAhdCF2sc/uakgbN7YXSPvvb7buWBOYMvzzn+N756phup3jZPPvlkFUQ7L/UykFErRv0F2B1KtXap4ht/feChhXIEH8fwOm3Oy9e/c2/6M7nrRypSm7Xr0KE/kdMmtIN2G0IvuJ/u7UlMNkt2ULXHSRCaNSrHt1VqyGZMsjOvgK8S9NOUx2rkBK50adj4ZUX5+6pINrsnMbvmg969MHDjggzIdrsnMnVFrmzjXhfk45JUyzguXVV02PfNSo9MtLuB2FdAIpGqFgzJjwu+vlBe3/SzvQbo+x7/QHzrp7LS3x0SdKOYYE7d26164Nyz5OYOTy3vfvb7YrVsSnR+nZM5wfZseZ0gmkqMDMlbTVXVW/X5hbVCfZakhtbWGlyjW46qOPmjAmixfDvfdmPscOhHuBZLACyTYucR2KOIFUDpOdK5BcAVEogdTQkGqOs/fIJJBsMNdXX031rrLvQVx5Wo+7+fNDs499hpkzYc89jSt7uvEFV0Oy523aFF5382Yzt8kSN9HVDczas2dqGVpBGNWQ7JidTXNNdrZhLaWXHbQXSBs3hmXev39ogm5oMMfmkj87pywq5NMJpB49jEBasiS9QBo61AikdBFHssUbfNKwZYvp/UVD16fj1FND00KuGpJttNJNlrTMnw9XX53bvTorViDZRituQNg2Vm7DVg6Tnety7b7IhTLZ9emTKpDsdTMJJLsOT7duplHu3t2UU6bF86ygiZodt241Dg2TJpn8Z6MhbdsWajabN6eOWUQjSre1pd47qtVEBZJt4OfPhx13NN+jJjt7j1xi5OVCumjqrkByNSQrVPIRSFHSmex69AhNtnV1pnzd/8OWXV1d4TQkL5BisDb4m28OPU464oEHwu+5jiHZFyM6WBxtXF0bsB9DMljPMlt26VbajDuvFLgNyLJlYW+9I4GUq4YUN3ckKpDcMaQXXzTbPfYw+Rg+3Py2mlMcVnAsXw6zZpnvLS1GEGzaBDvtZBq1dHNUrCbU2praoNl7bt6c2lBH89LWltpARoWIFUiuyW7jRvPcu+5q0qznocWWm2sKLCaZBFKcyc4KlVzqrSuQ3PoYdcu3uCY7K3iizimFNtn55iyG+vrcnBosuWpIjz9utm7D+e1vm5faNZm41/caksFOBrWNun2ZrfkJymuyc+/jelW5E03dlzofgRTtCdvnbmlJFUhuA287ObaBHhas2xw177i4gsYdp7PpgwZlFkhRF2KL1e6iAinqFdjWlnpeRxrSli2ht9748WGa+65brc+a0opNujGkdBqS9XbLV0NyhVA6Ldya7MAI+7q6sD5st53ZltKpAQARGSoiN4vII8Hv3UXkC4W5fWWSrnekatR9q7Wk6xXkOoY0Y4bZugLpx8HsL/fFcxsVL5AM1mRnXwz7Mru933Ka7NL1aN3/1f1uG+tcTHbRiY62PkU1JBcrkGyDYzWkTMSNDW3eHAqCQYNMLzsuXhrEPy+EgjIaadoKJGsaj2pIUQ04zmT3/e+b8a6TTzZpGzakCqRK0pCiAqlbt/wEUm1t2MFxhVy6To9IKLiiGtKUKWZrHUtKqSHdAvwLsFX0LeCSwty+Mon2jqxH27PPGjPE179uXF3r642Jw8bssuRqsrPEmZbcHpTbq/YCybB4Mfzf/8Ett5jfmcaQXEqtIY0alZruToZ2G2irVRRCQ7K4Aina4NrxJNvguAIpbkXXdLga0sCBmQWqXeLAvS+kam6udmUFkl3ePTq/Kfr/xpnsVq6E00+H0aPD+8ZZQypBQ4qa7Lp1C4VrLvXWFTBJBNKCBaHDQ7duRiuyzhXW23HFitILpMGqeg+wDUBV2+jkK8baP90ybx5ce21oJ//Vr4xHHMAbb5iG0CVXk51l0yYT+t992Vwh5FZeP4aUip1jlEkguUKg1GNIY8emPybOUynXMaQ4XIEUFYxWQ7INiyuQ0gm4OOwYEoQmu0zYBnLduvglOVyHCCuQrBnJmuyOOMIImShxJrvmZvM8tqFds8bkecyY1OcslYZkBV8mDckVCvZZcq239hkzCaSBA81/d9JJ4WTatjY455zwGCuQli0zz5BujalsSfJYG0RkEKAAInIAEDPvuvMQrYznnmtC9v8yzVTgaMiffAXSvHlwySXGvGBZv95EVN5jj1RXWK8hxRP1wIJQILkvf6lNdpkEkm2I3cYiVy+7ODIJpKiWYMeQMl0vjmw0JAiFy7p18d5eHQmktWvN7zgtLiqQ1q0z72qfPkZo19SEru1nnGGilVsqQUOKM9mli5yeFPtfuq7eUWeQXXc1ms/OO4djRatWwbHHhsdYDXPdusIK7yQC6evAg8BYEfkvcBtwUeGyUHlEC/jf/zZbNxyNS76rOaY73tWK1q+HO+80Gtndd4fpXiDF444vXHWV2dqwOeUweVrhaF9kaN8ztRrSXnulPyYJcRpSfX1qpIYddsh8jf79w/cgW4FkJ0z27RsKpNraVE9Uy4gRqfe02GfIRyBFJ8ba31YY9etnrr9tmxnrcoVQOceQevc2AslOObECqXt30yGF1Mm92WD/S3fJj2gdczsRViCtXJn6X7n1uKQCKViI73DMukhfBvZQ1ZmFy0LlYQvYuoZaNmwIBxVdovMs8tWQLK4pcP36sBfrzrT2Aiked3xh6FCz3bw5dZlqKJ3Jzo6LDB0a/mfRumQFpVvvCjWG1K9farRu29N2GyaXXr3ChjDuem4jdOqp4Xdrshs40Dynbdz69InXlnbbLfzuakjWVLRyZSgoogJp7lwz9jVkSPxzRDUkK5BcLcFes7Y2VSCVWkNyBVJDg8m7jVDvmux23918f+ON3O5nn939L5IIpFWrUsvE7dCUVCCJyKlAL1V9HTgRuFtE9ilcFioPW8B7791+3+GHt0+Lzo8olECCsEf05S+3tzODH0NKx/LloWbrCqToOE2pBLrtRAwdGjae7lhlz57hOkRuT7QQXnYQCqTVq00DZ8dutm6NP76uLnSZjxNINu+DB6eO31iTnT23I4G0yy5hHXYF0s47m+3bb4eNon3PrED6+c/NuRddFK8hWZNXVCDZ53UFUrk1JNdk16dPaqfTNdnZ9iCuLUiCqyHZephEIEWdFtzyKbXJ7ruqul5EDgGOAm4FYlaX6TzYArZzFVwmTGifZsPs2z8420YuOgDvvuA2D7a3FxVAXkNKzxeCyQkDB5qXefPm1LAxULrys43pdtuFDZ8rkNzvrkNBoTUkKyzs/bZujZ8YWVcX9szjQsvY83v3DgUEmDJesSIM5OkKpLhnaWgIe9vufaxbMYSNop3Ia++3fLkR3qNGZfYEjJrs4jQkVyDV1ORW7rkQFzoo2kEQMeXdrZsp1+uvh/vuy+1+tuw2bUo1BV56aXhMnECKUltrwpw99FDpBZL1qDsGuEFV/w6kUfQ7B7aA4wYQbbDIqVPDtMWLTaWxg37RaLodEZ18+Je/hIPK0TxENbR0czw8If36mXL60Y/gT38yaRMnmm2pNEzbox06NGw8XZOdWwe23z78nksIG9vA77dfmDZ0qOn4LFiQKpAgvUCy6XGNkj2/oSH1/M2bTSNvtVLbSUunIdXWhmF83EnMI0eGmqI131nh4d7P5iOd6dE9Jqoh9esXCjnXZNerV+mjfbsaz8EHh98bG41W1NAQ1oWLLmo/nJCUCy4w24kTw/Lu1s14Ed9zj/nt/k9xQxRghNiFF8IxxxTWvJnkdfxARG4EPg38U0RqE55XtWQSSDvuGLpFRtNtmKF0f2I64np39gWLrlVy/PHh9969sxtw7kp84xvhd7cHf9NNprw/+lHz23VwKAXbbRcvkFzy9QIcNcr0uK+/PkybNMlsn322vUCyDb4rnHv1Chv+uPrpakhuD7mlxQgOK8Q6MtnV1ZmYkSefDF/6Upje0BCapxoajDazbZu5Rpy5KJOGlGkMyXYEevYMn7eUZnDr8bd2rREMqqnjM1ddZepAQ0NhtLbJk42m/M1vhgIpGpDY/Z9s/dt3X7OdNQt+//vUa5ZaQ/o0ZmLsJ1R1DTAQuKxwWag89tvPuIDaPwHCwUTrLhvtVY4fD2eeCf/9b+ogbxIOPdRoRS5W84maS445Jvze3Jy5Z9iVsf8XpAokMOMW1hRqx21KRX19/BiSS5ypOFt6907tudrx0G3b2gsk2/Fyx3BcDSmuIbTnDxqUWr7vvmtMdnECKe46tbXmvbn33lBrBdMA7xOMVIuE2l7v3qnXsfnIJJBsOcSNIVl69gwFc0fBjQtJbS388Ifmu33n3f/GCk9XQ8qXHj1Mmdr/2943TiCBGXe047ETJsD556fuL7WX3UZVvQ9YKyKjgB7A7HxuKiKnisjrIrJNRPaN7LtCROaKyBwROcpJnywis4J914sY2S0itSJyd5D+goiMds45W0TeDj5nJ83f6NHw5JPmZbM9BDsRzAqkqGay227m2IMOyq1X+5nPpP62lSTamI4ebV5I+7J64tlpp/B7VKgfcEA4HyhX99lscbXtOA3pxBPNduvW1IY5H1zT3x57hA15VCBZ05hbTnV1qYE1LVZI2fNHjzbP9uCDplzfeMP08pNqSK4gEQnfnYaGMCLDa6+FZqxt2+IFktsxO/RQY06y9OiRGlPPvrtuh7O2NrRGZLNQZiGIzk2LM6cWUiBZ3GVGIBzLjv5P/ftnNsuV2svueBF5G5gPPB1sH8l8Voe8BnwKeCZyr92B04A9gE8AvxcR+zfcAJwHjAs+nwjSvwCsVtWdgeuAnwbXGghcCewPTAGuFJE0gdZTcf/4t96Cp54yf15DQ/iSRgXSAQckuXJ6omYCWzlcgaRqKsv69amTYz3tmTDB/I833dS+bE8/3czu/8pXTNSNUjBrllkFFOIF0m23mca2kOYiO44DpmGzDV9UINmG2HWHr6sLNQm3gbb10XaYrHnpuOPg1lvb3zsbgQShabGmJhRC3bsbgT1smDFDuteJ05CeeSZVy+ze3ZxjTaH2uU46KTymsTHUkEpNtMPk5qMUAsnGJLQaUramwQEDws5DviS59dXAAcATqrq3iBwBxATqSI6qvgkg7VWJE4C7VLUFmC8ic4EpIrIA6KuqzwXn3YZxQX8kOOeq4Px7gd8G2tNRwOOquio453GMELuzo/y5f/zOO5tPfb0x49ksR1+ugw5K8OBZ4GpIDzyQaiIs1RyJambQIPOCRavYD35gHENqasJ5HqWgf/+w4Ykz2dXWpuZ15MhQgOWKe726OjN+MGeOEYTuve14qBt4tU+fUGBu3GjqoZ2E+v77odegG9Fhl13CuGZJTXbRunzllUZQjB1ryuuee0y+d9opnJju5jMqkOw2Gs3a5qNHj/CY+np4+WXz/P37tx+vLRXRCBVuFA37HOPGFf6+p59uOmRHHGF+pzPZdcTo0cakVwhHkCQCqVVVV4pIjYjUqOpUEflp/reOZQTg9v0XBmmtwfdouj3nfTBx9kRkLTDITY85JyNxL87++4dRhqPU1nY88z1bbG+1X7/4uU+ejnFfkBtuMI3l2YkNt8XDNsKu91q0EZg5s/1S0/nQq1c4VrluXapAsj1l15mipiY8ZuNGs0z5zTeHjWecQAIzdvfSS6Emla2GdOKJpu7b/y5uPDaTyc425q5loXv39E5C7lzDStGQrNchhOXzq18V3pQ4ZUrqNXMVSIUkiUBaIyINGPPan0VkGRATujIVEXkC2D5m17cD1/HY02LSNEN6ruek3lTkPIw5EJjMjBkv0dLSsfvVk0+Gdu+mpg4P75BDDtmDUaM20tQ0ny1bDgG6M3v286xZU6DFRrKkubmZpkI8WEloTPkVzbd1k831cQpZFhs27AkMxBgKTKiCp5+Ov3a+Y1x77z2JV14ZwLPPNjF2rHDmmTuy//4fMGOGYIKvQM+e/2GHHfbh+OMX8bvfmRmpTU1NvPvuUGA35s1bwmWXzaGxsY4//Wk0MJSxY1ewZMlgVq9+jqamMGjgN75Rx9/+NoIVK+bR1KQsXDgK2InFi9/ixRdXfHjPmhpl2zZh5szpbNqUnReB6aw1ArBy5fs0Nb3DnDmDgQn07buKpqaZzJvXH9gLgGeffQZjta9j8OA1NDXNiL2usUo0fvj8SShEvdi8uQY47MP7GiFh8pGuXhSDjRsHARPp2XM2TU1LOjy+KKhqxg/QG+iGEV5nAxcDgzo6L8kHaAL2dX5fAVzh/P4XcCAwDJjtpJ8O3OgeE3zvDqzACKMPjwn23Qic3nGeJuv06Vp2evUyC3KvWlW+PEydOrV8N88Su4D5Oeeofu97hb9+IcviuONMXh94IMx3sdiwQXXu3Pbpa9a0v/e0aeZ3XZ35fc895vcpp4THnHuuSXv9ddU5czq+/89+Zo6/4w7VJUvCe/7oR2Y7b15uz2Wv853vmN833GB+n3uu+f3GG+ExW7aofuQjYf1Ict2kFKJebNvW/r7FrhfpePFFk59cAKZrnjIhiZfdBlXdqqptqnqrql6vqis7Oi9HHgROCzznxmCcF6ap6mJgvYgcEIwPnQX83TnHGmJOAZ4KCudfwMdFZEDgzPDxIC0jY8c2s+eehX2oXPjRj8zWzzNKxh13mCVB/vSn1CjplYg1HxUqZH8m6uvjI4zHuZxb85A1XdljXFOe9aiqqzNjRh2RzmR3+eVmjMx6r+aKzaMNNWTnArom9O7dwwgrSaJlH3hgfnnKlkqKtrLvvuXNT4cmOxH5FMZzbTuM5iEY0Z1mJfaOEZGTgN8AQ4CHRWSGqh6lqq+LyD3AGxiz4IWqamMRnI9ZLLAXxpnBevrdDNweOECswnjpoaqrRORq4MXguB9o4OCQiW7dtKw2VMsll5iPJxlnnFHuHCTHNvxbthjX7CVlsI7E1XEbvNcKJNepwWIFQFJPrHQCSSQ1Zl+u2PwceaQxb9qwS274HfdeHXmqtbRURnzIBQsKt+hdNZGkWv0MOE4Dz7hCoKr3A/en2XcNcE1M+nSgXSQ5Vd0MxE5FVdU/An/MK7MeT4GxAqmlBWbPjl+YrxyMG2eE0E8DlyU77nbaaeExVkNK6oLsCiR7TiEnc7tzYDItu37BBWbS7sUXZ75epUw0dx0buhJJBNLSQgojj6er8/GPG9PiHnsYb7Do5Ody0a9fapSC7bc38+FcjcFqJEkFkhvLrlcvs+rouefmn9e+fdt7C2aioQF+97v87+spLmkFUmCqA5guIncDDwAfWr3VRG/weDxZctppZk5bukjKlURU8PTvDyJKXV2ygYZjj4Uf/9iMN4mEwW3zZdQoE8Ehk0AaN84sX1ENrFjRPup/VySThnSc830jxinAooAXSB5PjlSDMIrjjDOguXkm/ftPSnT84MHGgaHQ7LBDuOxLOl58sf1aZZVKNFhzVyWtQFLVz5cyIx6Pp7TMmpXc5GVpaIDJk1cXJ0NZMHEiPPJIqsNFlEoyh3qSkcTLbifg15jwQQo8B1yiqvMznujxeCqauMUmq4Xvf99EXYgGJfZUN0kcHP8C3IOZnDoc+CtwVzEz5fF4PJmoqzNrXlXCFA1P4UgikERVbw8mxrap6h2kCcHj8Xg8Hk+uJHH7nioil2O0IgU+g5nMOhDMBNQi5s/j8Xg8XYQkAslaab8cST8XI6B2wuPxeDyePOlQIKlqntGmPB6Px+PpmEQRqUTkIGC0e7yq3lakPHk8Ho+nC5LE7ft2YCwwA7CBThXwAsnj8Xg8BSOJhrQvsHuwpIPH4/F4PEUhidv3a8Sv/OrxeDweT8FIoiENBt4QkWmkBlc9vmi58ng8Hk+XI4lAuqrYmfB4PB6PJ4nb99OlyIjH4/F4ujaZ1kNaT3yIoLyXMPd4PB6PJ0qm5Sf6lDIjHo/H4+naJPGy83g8Ho+n6HiB5PF4PJ6KwAskj8fj8VQEXiB5PB6PpyLwAsnj8Xg8FYEXSB6Px+OpCLxA8ng8Hk9F4AWSx+PxeCoCL5A8Ho/HUxGURSCJyKki8rqIbBORfZ300SKySURmBJ//dfZNFpFZIjJXRK4XEQnSa0Xk7iD9BREZ7Zxztoi8HXzOLulDejwejycryqUhvQZ8CngmZt87qrpX8PmKk34DcB4wLvh8Ikj/ArBaVXcGrgN+CiAiA4Ergf2BKcCVIjKgGA/j8Xg8nvwpi0BS1TdVdU7S40VkGNBXVZ8LVq69DTgx2H0CcGvw/V7go4H2dBTwuKquUtXVwOOEQszj8Xg8FUaS9ZBKzRgReQVYB3xHVf8NjAAWOscsDNIItu8DqGqbiKwFBrnpMeekICLnYbQvgBYRea1Az1LtDAZWlDsTFYIvixBfFiG+LELG53uBogkkEXmC+KXPv62qf09z2mJglKquFJHJwAMisgdmyYsodmmMdPsynZOaqPoH4A9Bvqer6r5xx3U1fFmE+LII8WUR4ssiRESm53uNogkkVT0yh3NaCJZJV9WXROQdYBeMdjPSOXQksCj4vhDYAVgoIt2BfsCqIL0xck5TtnnyeDweT2moKLdvERkiIt2C7zthnBfmqepiYL2IHBCMD50FWC3rQcB60J0CPBWMM/0L+LiIDAicGT4epHk8Ho+nAinLGJKInAT8BhgCPCwiM1T1KOAw4Aci0gZsBb6iqquC084HbgF6AY8EH4CbgdtFZC5GMzoNQFVXicjVwIvBcT9wrpWJP+T7fJ0IXxYhvixCfFmE+LIIybssxCgTHo/H4/GUl4oy2Xk8Ho+n6+IFksfj8XgqAi+QHETkEyIyJwhDdHm581NsROSPIrLMnXclIgNF5PEg3NLjbnQLEbkiKJs5InJUeXJdHERkBxGZKiJvBmGtvhqkd7nyEJE6EZkmIq8GZfH9IL3LlQWAiHQTkVdE5KHgd5csBwARWRCEcJth3bwLWh6q6j9mHK0b8A6wE9ATeBXYvdz5KvIzHwbsA7zmpP0MuDz4fjnw0+D77kGZ1AJjgrLqVu5nKGBZDAP2Cb73Ad4KnrnLlQdmDl9D8L0H8AJwQFcsi+D5vg78BXgo+N0lyyF4xgXA4EhawcrDa0ghU4C5qjpPVbcAd2HCEnVaVPUZjGeiixuK6VZSQzTdpaotqjofmIsps06Bqi5W1ZeD7+uBNzGRPbpceaihOfjZI/goXbAsRGQkcAzwf05ylyuHDihYeXiBFJI41FAnZ6iaeV8E2+2C9C5TPkHE+L0xmkGXLI/ATDUDWIaJCdlVy+JXwP8DtjlpXbEcLAo8JiIvBSHXoIDlUYmx7MpF4lBDXZQuUT4i0gD8DbhEVdcFq5zEHhqT1mnKQ1W3AnuJSH/gfhGZkOHwTlkWInIssExN1JjGJKfEpFV9OUQ4WFUXich2wOMiMjvDsVmXh9eQQmwIIosbnqgrsTSIrm6jrC8L0jt9+YhID4ww+rOq3hckd9nyAFDVNZiQW5+g65XFwcDxIrIAY8L/iIjcQdcrhw9R1UXBdhlwP8YEV7Dy8AIp5EVgnIiMEZGemIgPD5Y5T+XADcV0Nqkhmk4TsyDiGExYp2llyF9RCEJS3Qy8qaq/dHZ1ufIIQnj1D773Ao4EZtPFykJVr1DVkao6GtMePKWqn6OLlYNFRHqLSB/7HROO7TUKWR7l9tqopA/wSYx31TuYqORlz1ORn/dOTIT1Vkxv5guYpTueBN4OtgOd478dlM0c4Ohy57/AZXEIxpwwE5gRfD7ZFcsD2BN4JSiL14DvBeldriyc52sk9LLrkuWA8UB+Nfi8btvIQpaHDx3k8Xg8norAm+w8Ho/HUxF4geTxeDyeisALJI/H4/FUBF4geTwej6ci8ALJ4/F4PBWBF0geT4EQkUFBFOQZIrJERD4IvjeLyO+LdM9LROSsAlznLhEZV4g8eTy54t2+PZ4iICJXAc2qem0R79EdeBkTpbwtz2sdDnxOVb9UkMx5PDngNSSPp8iISKOzls5VInKriDwWrC3zKRH5WbDGzKNB+CJEZLKIPB0EsfyXDc0S4SPAy1YYiUiTiFwnIs+IWddpPxG5L1in5ofBMb1F5GExax29JiKfCa71b+DIQMh5PGXBCySPp/SMxSxpcAJwBzBVVScCm4BjAqH0G+AUVZ0M/BG4JuY6BwMvRdK2qOphwP9iQrhcCEwAzhGRQZiYdItUdZKqTgAeBVDVbZjlASYV9Ek9nizwAsnjKT2PqGorMAuzMOSjQfosYDQwHiNEHg+WgPgOJjBllGHA8kiajb84C3hdzTpPLcA8TKDLWRhN6KcicqiqrnXOXQYMz/PZPJ6c8eq5x1N6WsBoJSLSquFA7jbMOykYYXJgB9fZBNTFXTu4VouTvg3orqpvichkTJy+H4vIY6r6g+CYuuCaHk9Z8BqSx1N5zAGGiMiBYJbFEJE9Yo57E9g5mwuLyHBgo6reAVyLWcLesgsmaKbHUxa8huTxVBiqukVETgGuF5F+mPf0V7QXFo8At2d5+YnAz0VkGybK+/kAIjIU2KTByp8eTznwbt8eTxUjIvcD/09V387zOl8D1qnqzYXJmceTPd5k5/FUN5djnBvyZQ1wawGu4/HkjNeQPB6Px1MReA3J4/F4PBWBF0gej8fjqQi8QPJ4PB5PReAFksfj8XgqAi+QPB6Px1MR/H8Twnkf4x+B1wAAAABJRU5ErkJggg==;imageBorder=default;" vertex="1" parent="1">
          <mxGeometry x="330" y="538" width="420" height="278" as="geometry" />
        </mxCell>
      </root>
    </mxGraphModel>
  </diagram>
</mxfile>
